<svg width="682" height="423" viewBox="0 0 682 423" fill="none" xmlns="http://www.w3.org/2000/svg">
<path d="M90.8913 75.6622L97.0948 81.8656L103.298 75.6622C104.099 74.8613 105.383 74.8613 106.171 75.6622C106.972 76.463 106.972 77.747 106.171 78.5478L99.9677 84.7513L106.171 90.9548C106.972 91.7556 106.972 93.0396 106.171 93.8404C105.37 94.6413 104.086 94.6413 103.298 93.8404L97.0948 87.6369L90.8913 93.8404C90.0904 94.6413 88.8066 94.6413 88.0184 93.8404C87.2176 93.0396 87.2176 91.7556 88.0184 90.9548L94.2218 84.7513L88.0184 78.5478C87.2176 77.747 87.2176 76.463 88.0184 75.6622C88.8193 74.874 90.1031 74.874 90.8913 75.6622Z" fill="#30A0FC"/>
<path d="M438.261 399.591L444.465 405.794L450.668 399.591C451.469 398.79 452.753 398.79 453.554 399.591C454.355 400.392 454.355 401.676 453.554 402.477L447.35 408.68L453.554 414.883C454.355 415.684 454.355 416.968 453.554 417.756C452.753 418.557 451.469 418.557 450.668 417.756L444.465 411.553L438.261 417.756C437.46 418.557 436.176 418.557 435.376 417.756C434.575 416.956 434.575 415.672 435.376 414.883L441.579 408.68L435.376 402.477C434.575 401.676 434.575 400.392 435.376 399.591C436.176 398.79 437.473 398.79 438.261 399.591Z" fill="#FF2C45"/>
<path d="M479.715 26.7969L485.919 33.0004L492.122 26.7969C492.923 25.9961 494.207 25.9961 495.008 26.7969C495.809 27.5978 495.809 28.8817 495.008 29.6826L488.804 35.8861L495.008 42.0895C495.809 42.8904 495.809 44.1743 495.008 44.9752C494.207 45.776 492.923 45.776 492.122 44.9752L485.919 38.7717L479.715 44.9752C478.914 45.776 477.63 45.776 476.842 44.9752C476.054 44.1743 476.041 42.8904 476.842 42.0895L483.046 35.8861L476.842 29.6826C476.041 28.8817 476.041 27.5978 476.842 26.7969C477.63 25.9961 478.914 25.9961 479.715 26.7969Z" fill="#FFD300"/>
<path d="M655.498 365.446C660.824 365.446 665.146 361.112 665.146 355.798C665.146 350.484 660.811 346.149 655.498 346.149C650.171 346.149 645.849 350.484 645.849 355.798C645.849 361.112 650.184 365.446 655.498 365.446ZM655.498 349.81C658.79 349.81 661.472 352.493 661.472 355.785C661.472 359.078 658.79 361.76 655.498 361.76C652.205 361.76 649.523 359.078 649.523 355.785C649.523 352.493 652.205 349.81 655.498 349.81Z" fill="white"/>
<path d="M329.344 19.2969C334.671 19.2969 338.993 14.9621 338.993 9.64846C338.993 4.32211 334.671 0 329.344 0C324.018 0 319.696 4.33482 319.696 9.64846C319.696 14.9748 324.031 19.2969 329.344 19.2969ZM329.344 3.67379C332.637 3.67379 335.319 6.35604 335.319 9.64846C335.319 12.9409 332.637 15.6231 329.344 15.6231C326.052 15.6231 323.37 12.9409 323.37 9.64846C323.37 6.35604 326.052 3.67379 329.344 3.67379Z" fill="white"/>
<path d="M209.114 397.989C214.44 397.989 218.762 393.654 218.762 388.341C218.762 383.027 214.427 378.692 209.114 378.692C203.8 378.692 199.465 383.027 199.465 388.341C199.465 393.654 203.787 397.989 209.114 397.989ZM209.114 382.366C212.406 382.366 215.088 385.048 215.088 388.341C215.088 391.633 212.406 394.316 209.114 394.316C205.821 394.316 203.139 391.633 203.139 388.341C203.126 385.048 205.808 382.366 209.114 382.366Z" fill="white"/>
<path d="M85.0438 391.023C83.5625 391.023 82.3616 389.822 82.3616 388.341C82.3616 386.86 83.5625 385.659 85.0438 385.659C86.5252 385.659 87.7261 386.86 87.7261 388.341C87.7261 389.822 86.5252 391.023 85.0438 391.023Z" fill="#C6BBB5"/>
<path d="M64.463 391.023C62.9817 391.023 61.7808 389.822 61.7808 388.341C61.7808 386.86 62.9817 385.659 64.463 385.659C65.9444 385.659 67.1453 386.86 67.1453 388.341C67.1453 389.822 65.9444 391.023 64.463 391.023Z" fill="#C6BBB5"/>
<path d="M43.8694 391.023C42.388 391.023 41.1872 389.822 41.1872 388.341C41.1872 386.86 42.388 385.659 43.8694 385.659C45.3508 385.659 46.5516 386.86 46.5516 388.341C46.5516 389.822 45.3508 391.023 43.8694 391.023Z" fill="#C6BBB5"/>
<path d="M23.2758 391.023C21.7945 391.023 20.5936 389.822 20.5936 388.341C20.5936 386.86 21.7945 385.659 23.2758 385.659C24.7572 385.659 25.9581 386.86 25.9581 388.341C25.9581 389.822 24.7572 391.023 23.2758 391.023Z" fill="#C6BBB5"/>
<path d="M2.6824 391.023C1.20103 391.023 9.20296e-05 389.822 9.20296e-05 388.341C9.20296e-05 386.86 1.20103 385.659 2.6824 385.659C4.16376 385.659 5.36462 386.86 5.36462 388.341C5.36462 389.822 4.16376 391.023 2.6824 391.023Z" fill="#C6BBB5"/>
<path d="M85.0438 406.583C83.5625 406.583 82.3616 405.382 82.3616 403.901C82.3616 402.419 83.5625 401.218 85.0438 401.218C86.5252 401.218 87.7261 402.419 87.7261 403.901C87.7261 405.382 86.5252 406.583 85.0438 406.583Z" fill="#C6BBB5"/>
<path d="M64.463 406.583C62.9817 406.583 61.7808 405.382 61.7808 403.901C61.7808 402.419 62.9817 401.218 64.463 401.218C65.9444 401.218 67.1453 402.419 67.1453 403.901C67.1453 405.382 65.9444 406.583 64.463 406.583Z" fill="#C6BBB5"/>
<path d="M43.8694 406.583C42.388 406.583 41.1872 405.382 41.1872 403.901C41.1872 402.419 42.388 401.218 43.8694 401.218C45.3508 401.218 46.5516 402.419 46.5516 403.901C46.5516 405.382 45.3508 406.583 43.8694 406.583Z" fill="#C6BBB5"/>
<path d="M23.2758 406.583C21.7945 406.583 20.5936 405.382 20.5936 403.901C20.5936 402.419 21.7945 401.218 23.2758 401.218C24.7572 401.218 25.9581 402.419 25.9581 403.901C25.9581 405.382 24.7572 406.583 23.2758 406.583Z" fill="#C6BBB5"/>
<path d="M2.6824 406.583C1.20103 406.583 9.20296e-05 405.382 9.20296e-05 403.901C9.20296e-05 402.419 1.20103 401.218 2.6824 401.218C4.16376 401.218 5.36462 402.419 5.36462 403.901C5.36462 405.382 4.16376 406.583 2.6824 406.583Z" fill="#C6BBB5"/>
<path d="M85.0438 422.142C83.5625 422.142 82.3616 420.941 82.3616 419.46C82.3616 417.979 83.5625 416.778 85.0438 416.778C86.5252 416.778 87.7261 417.979 87.7261 419.46C87.7261 420.941 86.5252 422.142 85.0438 422.142Z" fill="#C6BBB5"/>
<path d="M64.463 422.142C62.9817 422.142 61.7808 420.941 61.7808 419.46C61.7808 417.979 62.9817 416.778 64.463 416.778C65.9444 416.778 67.1453 417.979 67.1453 419.46C67.1453 420.941 65.9444 422.142 64.463 422.142Z" fill="#C6BBB5"/>
<path d="M43.8694 422.142C42.388 422.142 41.1872 420.941 41.1872 419.46C41.1872 417.979 42.388 416.778 43.8694 416.778C45.3508 416.778 46.5516 417.979 46.5516 419.46C46.5516 420.941 45.3508 422.142 43.8694 422.142Z" fill="#C6BBB5"/>
<path d="M23.2758 422.142C21.7945 422.142 20.5936 420.941 20.5936 419.46C20.5936 417.979 21.7945 416.778 23.2758 416.778C24.7572 416.778 25.9581 417.979 25.9581 419.46C25.9581 420.941 24.7572 422.142 23.2758 422.142Z" fill="#C6BBB5"/>
<path d="M2.6824 422.142C1.20103 422.142 9.20296e-05 420.941 9.20296e-05 419.46C9.20296e-05 417.979 1.20103 416.778 2.6824 416.778C4.16376 416.778 5.36462 417.979 5.36462 419.46C5.36462 420.941 4.16376 422.142 2.6824 422.142Z" fill="#C6BBB5"/>
<path d="M646.116 68.404C644.635 68.404 643.434 67.2032 643.434 65.7218C643.434 64.2404 644.635 63.0396 646.116 63.0396C647.598 63.0396 648.798 64.2404 648.798 65.7218C648.798 67.2032 647.598 68.404 646.116 68.404Z" fill="#C6BBB5"/>
<path d="M646.116 88.9973C644.635 88.9973 643.434 87.7964 643.434 86.315C643.434 84.8337 644.635 83.6328 646.116 83.6328C647.598 83.6328 648.798 84.8337 648.798 86.315C648.798 87.7964 647.598 88.9973 646.116 88.9973Z" fill="#C6BBB5"/>
<path d="M646.116 109.591C644.635 109.591 643.434 108.39 643.434 106.908C643.434 105.427 644.635 104.226 646.116 104.226C647.598 104.226 648.798 105.427 648.798 106.908C648.798 108.39 647.598 109.591 646.116 109.591Z" fill="#C6BBB5"/>
<path d="M646.116 130.184C644.635 130.184 643.434 128.983 643.434 127.502C643.434 126.021 644.635 124.82 646.116 124.82C647.598 124.82 648.798 126.021 648.798 127.502C648.798 128.983 647.598 130.184 646.116 130.184Z" fill="#C6BBB5"/>
<path d="M646.116 150.765C644.635 150.765 643.434 149.564 643.434 148.083C643.434 146.602 644.635 145.401 646.116 145.401C647.598 145.401 648.798 146.602 648.798 148.083C648.798 149.564 647.598 150.765 646.116 150.765Z" fill="#C6BBB5"/>
<path d="M661.676 68.404C660.194 68.404 658.994 67.2032 658.994 65.7218C658.994 64.2404 660.194 63.0396 661.676 63.0396C663.157 63.0396 664.358 64.2404 664.358 65.7218C664.358 67.2032 663.157 68.404 661.676 68.404Z" fill="#C6BBB5"/>
<path d="M661.676 88.9973C660.194 88.9973 658.994 87.7964 658.994 86.315C658.994 84.8337 660.194 83.6328 661.676 83.6328C663.157 83.6328 664.358 84.8337 664.358 86.315C664.358 87.7964 663.157 88.9973 661.676 88.9973Z" fill="#C6BBB5"/>
<path d="M661.676 109.591C660.194 109.591 658.994 108.39 658.994 106.908C658.994 105.427 660.194 104.226 661.676 104.226C663.157 104.226 664.358 105.427 664.358 106.908C664.358 108.39 663.157 109.591 661.676 109.591Z" fill="#C6BBB5"/>
<path d="M661.676 130.184C660.194 130.184 658.994 128.983 658.994 127.502C658.994 126.021 660.194 124.82 661.676 124.82C663.157 124.82 664.358 126.021 664.358 127.502C664.358 128.983 663.157 130.184 661.676 130.184Z" fill="#C6BBB5"/>
<path d="M661.676 150.765C660.194 150.765 658.994 149.564 658.994 148.083C658.994 146.602 660.194 145.401 661.676 145.401C663.157 145.401 664.358 146.602 664.358 148.083C664.358 149.564 663.157 150.765 661.676 150.765Z" fill="#C6BBB5"/>
<path d="M677.235 68.4036C675.754 68.4036 674.553 67.2027 674.553 65.7213C674.553 64.2399 675.754 63.0391 677.235 63.0391C678.717 63.0391 679.918 64.2399 679.918 65.7213C679.918 67.2027 678.717 68.4036 677.235 68.4036Z" fill="#C6BBB5"/>
<path d="M677.235 88.9973C675.754 88.9973 674.553 87.7964 674.553 86.315C674.553 84.8337 675.754 83.6328 677.235 83.6328C678.717 83.6328 679.918 84.8337 679.918 86.315C679.918 87.7964 678.717 88.9973 677.235 88.9973Z" fill="#C6BBB5"/>
<path d="M677.235 109.591C675.754 109.591 674.553 108.39 674.553 106.908C674.553 105.427 675.754 104.226 677.235 104.226C678.717 104.226 679.918 105.427 679.918 106.908C679.918 108.39 678.717 109.591 677.235 109.591Z" fill="#C6BBB5"/>
<path d="M677.235 130.184C675.754 130.184 674.553 128.983 674.553 127.502C674.553 126.021 675.754 124.82 677.235 124.82C678.717 124.82 679.918 126.021 679.918 127.502C679.918 128.983 678.717 130.184 677.235 130.184Z" fill="#C6BBB5"/>
<path d="M677.235 150.765C675.754 150.765 674.553 149.564 674.553 148.083C674.553 146.602 675.754 145.401 677.235 145.401C678.717 145.401 679.918 146.602 679.918 148.083C679.918 149.564 678.717 150.765 677.235 150.765Z" fill="#C6BBB5"/>
</svg>
