<svg width="276" height="155" viewBox="0 0 276 155" fill="none" xmlns="http://www.w3.org/2000/svg">
<g filter="url(#filter0_d_31_246)">
<rect x="47" y="22" width="182" height="61" rx="10" fill="#8727D1"/>
</g>
<path d="M74.2939 65C70.302 64.9777 67 57.0786 67 53.0557C67 46.4844 72.0854 45.0458 74.0453 45.0458C74.9285 45.0458 75.8717 45.382 76.7035 45.6796C77.2852 45.8871 77.8868 46.1014 78.2214 46.1014C78.4217 46.1014 78.8936 45.9191 79.3103 45.7592C80.199 45.4163 81.3047 44.9901 82.5924 44.9901C82.5947 44.9901 82.5978 44.9901 82.6 44.9901C83.5615 44.9901 86.4769 45.1946 88.2296 47.7461L88.6401 48.3441L88.0492 48.7763C87.2051 49.3937 85.665 50.5199 85.665 52.7508C85.665 55.393 87.4092 56.4091 88.2472 56.8979C88.6171 57.1136 89 57.336 89 57.8225C89 58.1401 86.3848 64.9606 82.587 64.9606C81.6577 64.9606 81.0008 64.6898 80.4214 64.4511C79.8352 64.2093 79.3294 64.001 78.4938 64.001C78.0702 64.001 77.5345 64.1952 76.9674 64.4012C76.1925 64.6816 75.3153 65 74.32 65H74.2939Z" fill="white"/>
<path d="M82.9947 39C83.0936 42.457 80.5432 44.8553 77.9957 44.7049C77.576 41.9461 80.5429 39 82.9947 39Z" fill="white"/>
<path d="M108.99 44V35.4688H111.398C112.141 35.4688 112.797 35.6328 113.367 35.9609C113.938 36.2891 114.377 36.7559 114.686 37.3613C114.998 37.9668 115.156 38.6621 115.16 39.4473V39.9922C115.16 40.7969 115.004 41.502 114.691 42.1074C114.383 42.7129 113.939 43.1777 113.361 43.502C112.787 43.8262 112.117 43.9922 111.352 44H108.99ZM110.115 36.3945V43.0801H111.299C112.166 43.0801 112.84 42.8105 113.32 42.2715C113.805 41.7324 114.047 40.9648 114.047 39.9688V39.4707C114.047 38.502 113.818 37.75 113.361 37.2148C112.908 36.6758 112.264 36.4023 111.428 36.3945H110.115ZM116.408 40.7715C116.408 40.1504 116.529 39.5918 116.771 39.0957C117.018 38.5996 117.357 38.2168 117.791 37.9473C118.229 37.6777 118.727 37.543 119.285 37.543C120.148 37.543 120.846 37.8418 121.377 38.4395C121.912 39.0371 122.18 39.832 122.18 40.8242V40.9004C122.18 41.5176 122.061 42.0723 121.822 42.5645C121.588 43.0527 121.25 43.4336 120.809 43.707C120.371 43.9805 119.867 44.1172 119.297 44.1172C118.438 44.1172 117.74 43.8184 117.205 43.2207C116.674 42.623 116.408 41.832 116.408 40.8477V40.7715ZM117.498 40.9004C117.498 41.6035 117.66 42.168 117.984 42.5938C118.312 43.0195 118.75 43.2324 119.297 43.2324C119.848 43.2324 120.285 43.0176 120.609 42.5879C120.934 42.1543 121.096 41.5488 121.096 40.7715C121.096 40.0762 120.93 39.5137 120.598 39.084C120.27 38.6504 119.832 38.4336 119.285 38.4336C118.75 38.4336 118.318 38.6465 117.99 39.0723C117.662 39.498 117.498 40.1074 117.498 40.9004ZM129.152 42.5059L130.371 37.6602H131.455L129.609 44H128.73L127.189 39.1953L125.689 44H124.811L122.971 37.6602H124.049L125.297 42.4062L126.773 37.6602H127.646L129.152 42.5059ZM133.588 37.6602L133.623 38.457C134.107 37.8477 134.74 37.543 135.521 37.543C136.861 37.543 137.537 38.2988 137.549 39.8105V44H136.465V39.8047C136.461 39.3477 136.355 39.0098 136.148 38.791C135.945 38.5723 135.627 38.4629 135.193 38.4629C134.842 38.4629 134.533 38.5566 134.268 38.7441C134.002 38.9316 133.795 39.1777 133.646 39.4824V44H132.562V37.6602H133.588ZM140.361 44H139.277V35H140.361V44ZM141.814 40.7715C141.814 40.1504 141.936 39.5918 142.178 39.0957C142.424 38.5996 142.764 38.2168 143.197 37.9473C143.635 37.6777 144.133 37.543 144.691 37.543C145.555 37.543 146.252 37.8418 146.783 38.4395C147.318 39.0371 147.586 39.832 147.586 40.8242V40.9004C147.586 41.5176 147.467 42.0723 147.229 42.5645C146.994 43.0527 146.656 43.4336 146.215 43.707C145.777 43.9805 145.273 44.1172 144.703 44.1172C143.844 44.1172 143.146 43.8184 142.611 43.2207C142.08 42.623 141.814 41.832 141.814 40.8477V40.7715ZM142.904 40.9004C142.904 41.6035 143.066 42.168 143.391 42.5938C143.719 43.0195 144.156 43.2324 144.703 43.2324C145.254 43.2324 145.691 43.0176 146.016 42.5879C146.34 42.1543 146.502 41.5488 146.502 40.7715C146.502 40.0762 146.336 39.5137 146.004 39.084C145.676 38.6504 145.238 38.4336 144.691 38.4336C144.156 38.4336 143.725 38.6465 143.396 39.0723C143.068 39.498 142.904 40.1074 142.904 40.9004ZM152.859 44C152.797 43.875 152.746 43.6523 152.707 43.332C152.203 43.8555 151.602 44.1172 150.902 44.1172C150.277 44.1172 149.764 43.9414 149.361 43.5898C148.963 43.2344 148.764 42.7852 148.764 42.2422C148.764 41.582 149.014 41.0703 149.514 40.707C150.018 40.3398 150.725 40.1562 151.635 40.1562H152.689V39.6582C152.689 39.2793 152.576 38.9785 152.35 38.7559C152.123 38.5293 151.789 38.416 151.348 38.416C150.961 38.416 150.637 38.5137 150.375 38.709C150.113 38.9043 149.982 39.1406 149.982 39.418H148.893C148.893 39.1016 149.004 38.7969 149.227 38.5039C149.453 38.207 149.758 37.9727 150.141 37.8008C150.527 37.6289 150.951 37.543 151.412 37.543C152.143 37.543 152.715 37.7266 153.129 38.0938C153.543 38.457 153.758 38.959 153.773 39.5996V42.5176C153.773 43.0996 153.848 43.5625 153.996 43.9062V44H152.859ZM151.061 43.1738C151.4 43.1738 151.723 43.0859 152.027 42.9102C152.332 42.7344 152.553 42.5059 152.689 42.2246V40.9238H151.84C150.512 40.9238 149.848 41.3125 149.848 42.0898C149.848 42.4297 149.961 42.6953 150.188 42.8867C150.414 43.0781 150.705 43.1738 151.061 43.1738ZM155.209 40.7773C155.209 39.8047 155.439 39.0234 155.9 38.4336C156.361 37.8398 156.965 37.543 157.711 37.543C158.453 37.543 159.041 37.7969 159.475 38.3047V35H160.559V44H159.562L159.51 43.3203C159.076 43.8516 158.473 44.1172 157.699 44.1172C156.965 44.1172 156.365 43.8164 155.9 43.2148C155.439 42.6133 155.209 41.8281 155.209 40.8594V40.7773ZM156.293 40.9004C156.293 41.6191 156.441 42.1816 156.738 42.5879C157.035 42.9941 157.445 43.1973 157.969 43.1973C158.656 43.1973 159.158 42.8887 159.475 42.2715V39.3594C159.15 38.7617 158.652 38.4629 157.98 38.4629C157.449 38.4629 157.035 38.668 156.738 39.0781C156.441 39.4883 156.293 40.0957 156.293 40.9004ZM164.936 40.7715C164.936 40.1504 165.057 39.5918 165.299 39.0957C165.545 38.5996 165.885 38.2168 166.318 37.9473C166.756 37.6777 167.254 37.543 167.812 37.543C168.676 37.543 169.373 37.8418 169.904 38.4395C170.439 39.0371 170.707 39.832 170.707 40.8242V40.9004C170.707 41.5176 170.588 42.0723 170.35 42.5645C170.115 43.0527 169.777 43.4336 169.336 43.707C168.898 43.9805 168.395 44.1172 167.824 44.1172C166.965 44.1172 166.268 43.8184 165.732 43.2207C165.201 42.623 164.936 41.832 164.936 40.8477V40.7715ZM166.025 40.9004C166.025 41.6035 166.188 42.168 166.512 42.5938C166.84 43.0195 167.277 43.2324 167.824 43.2324C168.375 43.2324 168.812 43.0176 169.137 42.5879C169.461 42.1543 169.623 41.5488 169.623 40.7715C169.623 40.0762 169.457 39.5137 169.125 39.084C168.797 38.6504 168.359 38.4336 167.812 38.4336C167.277 38.4336 166.846 38.6465 166.518 39.0723C166.189 39.498 166.025 40.1074 166.025 40.9004ZM173.092 37.6602L173.127 38.457C173.611 37.8477 174.244 37.543 175.025 37.543C176.365 37.543 177.041 38.2988 177.053 39.8105V44H175.969V39.8047C175.965 39.3477 175.859 39.0098 175.652 38.791C175.449 38.5723 175.131 38.4629 174.697 38.4629C174.346 38.4629 174.037 38.5566 173.771 38.7441C173.506 38.9316 173.299 39.1777 173.15 39.4824V44H172.066V37.6602H173.092ZM183.135 36.125V37.6602H184.318V38.498H183.135V42.4297C183.135 42.6836 183.188 42.875 183.293 43.0039C183.398 43.1289 183.578 43.1914 183.832 43.1914C183.957 43.1914 184.129 43.168 184.348 43.1211V44C184.062 44.0781 183.785 44.1172 183.516 44.1172C183.031 44.1172 182.666 43.9707 182.42 43.6777C182.174 43.3848 182.051 42.9688 182.051 42.4297V38.498H180.896V37.6602H182.051V36.125H183.135ZM186.674 38.4277C187.154 37.8379 187.779 37.543 188.549 37.543C189.889 37.543 190.564 38.2988 190.576 39.8105V44H189.492V39.8047C189.488 39.3477 189.383 39.0098 189.176 38.791C188.973 38.5723 188.654 38.4629 188.221 38.4629C187.869 38.4629 187.561 38.5566 187.295 38.7441C187.029 38.9316 186.822 39.1777 186.674 39.4824V44H185.59V35H186.674V38.4277ZM194.83 44.1172C193.971 44.1172 193.271 43.8359 192.732 43.2734C192.193 42.707 191.924 41.9512 191.924 41.0059V40.8066C191.924 40.1777 192.043 39.6172 192.281 39.125C192.523 38.6289 192.859 38.2422 193.289 37.9648C193.723 37.6836 194.191 37.543 194.695 37.543C195.52 37.543 196.16 37.8145 196.617 38.3574C197.074 38.9004 197.303 39.6777 197.303 40.6895V41.1406H193.008C193.023 41.7656 193.205 42.2715 193.553 42.6582C193.904 43.041 194.35 43.2324 194.889 43.2324C195.271 43.2324 195.596 43.1543 195.861 42.998C196.127 42.8418 196.359 42.6348 196.559 42.377L197.221 42.8926C196.689 43.709 195.893 44.1172 194.83 44.1172ZM194.695 38.4336C194.258 38.4336 193.891 38.5938 193.594 38.9141C193.297 39.2305 193.113 39.6758 193.043 40.25H196.219V40.168C196.188 39.6172 196.039 39.1914 195.773 38.8906C195.508 38.5859 195.148 38.4336 194.695 38.4336Z" fill="#EAF1F9"/>
<path d="M120.072 68L115.189 55.327H111.807L106.905 68H109.983L110.781 65.853H116.215L116.994 68H120.072ZM115.474 63.478H111.522L113.498 58.025L115.474 63.478ZM126.429 68.228C128.785 68.228 130.495 66.461 130.495 63.402C130.495 60.343 128.785 58.595 126.429 58.595C125.308 58.595 124.301 59.089 123.598 59.982V58.823H121.185V71.496H123.598V66.822C124.339 67.772 125.346 68.228 126.429 68.228ZM125.669 66.081C124.89 66.081 123.997 65.606 123.598 65.036V61.787C123.997 61.198 124.89 60.742 125.669 60.742C127.056 60.742 127.987 61.825 127.987 63.402C127.987 64.998 127.056 66.081 125.669 66.081ZM137.506 68.228C139.862 68.228 141.572 66.461 141.572 63.402C141.572 60.343 139.862 58.595 137.506 58.595C136.385 58.595 135.378 59.089 134.675 59.982V58.823H132.262V71.496H134.675V66.822C135.416 67.772 136.423 68.228 137.506 68.228ZM136.746 66.081C135.967 66.081 135.074 65.606 134.675 65.036V61.787C135.074 61.198 135.967 60.742 136.746 60.742C138.133 60.742 139.064 61.825 139.064 63.402C139.064 64.998 138.133 66.081 136.746 66.081ZM145.753 68V55.327H143.34V68H145.753ZM152.458 68.228C153.883 68.228 155.327 67.791 156.239 66.955L155.175 65.397C154.586 65.967 153.503 66.309 152.724 66.309C151.166 66.309 150.235 65.34 150.083 64.181H156.904V63.649C156.904 60.647 155.042 58.595 152.306 58.595C149.513 58.595 147.556 60.742 147.556 63.402C147.556 66.347 149.665 68.228 152.458 68.228ZM154.567 62.547H150.045C150.159 61.635 150.805 60.514 152.306 60.514C153.902 60.514 154.51 61.673 154.567 62.547ZM168.069 68.228C171.489 68.228 173.142 66.48 173.142 64.162C173.142 59.431 165.865 60.78 165.865 58.766C165.865 58.006 166.511 57.493 167.67 57.493C168.962 57.493 170.33 57.93 171.356 58.88L172.857 56.904C171.603 55.745 169.931 55.137 167.917 55.137C164.934 55.137 163.11 56.885 163.11 58.994C163.11 63.763 170.406 62.224 170.406 64.466C170.406 65.188 169.684 65.872 168.202 65.872C166.454 65.872 165.067 65.093 164.174 64.162L162.711 66.214C163.889 67.411 165.637 68.228 168.069 68.228ZM177.719 68.228C178.726 68.228 179.372 67.962 179.733 67.639L179.22 65.815C179.087 65.948 178.745 66.081 178.384 66.081C177.852 66.081 177.548 65.644 177.548 65.074V60.932H179.41V58.823H177.548V56.315H175.116V58.823H173.596V60.932H175.116V65.72C175.116 67.354 176.028 68.228 177.719 68.228ZM185.317 68.228C188.357 68.228 190.181 66.024 190.181 63.402C190.181 60.799 188.357 58.595 185.317 58.595C182.296 58.595 180.472 60.799 180.472 63.402C180.472 66.024 182.296 68.228 185.317 68.228ZM185.317 66.081C183.816 66.081 182.98 64.846 182.98 63.402C182.98 61.977 183.816 60.742 185.317 60.742C186.818 60.742 187.673 61.977 187.673 63.402C187.673 64.846 186.818 66.081 185.317 66.081ZM194.384 68V61.939C194.783 61.35 195.847 60.894 196.645 60.894C196.911 60.894 197.139 60.913 197.31 60.951V58.595C196.17 58.595 195.03 59.26 194.384 60.077V58.823H191.971V68H194.384ZM203.131 68.228C204.556 68.228 206 67.791 206.912 66.955L205.848 65.397C205.259 65.967 204.176 66.309 203.397 66.309C201.839 66.309 200.908 65.34 200.756 64.181H207.577V63.649C207.577 60.647 205.715 58.595 202.979 58.595C200.186 58.595 198.229 60.742 198.229 63.402C198.229 66.347 200.338 68.228 203.131 68.228ZM205.24 62.547H200.718C200.832 61.635 201.478 60.514 202.979 60.514C204.575 60.514 205.183 61.673 205.24 62.547Z" fill="white"/>
<defs>
<filter id="filter0_d_31_246" x="0" y="0" width="276" height="155" filterUnits="userSpaceOnUse" color-interpolation-filters="sRGB">
<feFlood flood-opacity="0" result="BackgroundImageFix"/>
<feColorMatrix in="SourceAlpha" type="matrix" values="0 0 0 0 0 0 0 0 0 0 0 0 0 0 0 0 0 0 127 0" result="hardAlpha"/>
<feOffset dy="25"/>
<feGaussianBlur stdDeviation="23.5"/>
<feColorMatrix type="matrix" values="0 0 0 0 0.824913 0 0 0 0 0.836198 0 0 0 0 0.920833 0 0 0 1 0"/>
<feBlend mode="multiply" in2="BackgroundImageFix" result="effect1_dropShadow_31_246"/>
<feBlend mode="normal" in="SourceGraphic" in2="effect1_dropShadow_31_246" result="shape"/>
</filter>
</defs>
</svg>
