<svg width="28" height="28" viewBox="0 0 28 28" fill="none" xmlns="http://www.w3.org/2000/svg">
<path fill-rule="evenodd" clip-rule="evenodd" d="M23.1535 7.78486C24.0218 8.42581 24.2634 9.65502 23.6849 10.5822C20.3328 15.9549 16.9562 20.1678 14.9426 22.5225C13.9098 23.7302 12.1673 23.8354 11.0188 22.7454C9.26079 21.0769 6.66569 18.4183 4.38732 15.311C3.80154 14.5121 3.89438 13.3953 4.56989 12.6762L5.26698 11.9341C6.06304 11.0867 7.37827 11.0865 8.16844 11.9398C10.4977 14.4552 12.7524 16.9613 12.7524 16.9613C12.7524 16.9613 15.9359 12.7641 19.8771 7.76813C20.5512 6.91357 21.7508 6.74934 22.6187 7.39L23.1535 7.78486Z" fill="#2B6D8D"/>
</svg>
