<svg width="121" height="121" viewBox="0 0 121 121" fill="none" xmlns="http://www.w3.org/2000/svg">
<circle cx="60.5" cy="60.5" r="60.5" fill="#2B6D8D" fill-opacity="0.29"/>
<circle cx="60" cy="61" r="39" fill="#2B6D8D"/>
<path opacity="0.78" fill-rule="evenodd" clip-rule="evenodd" d="M81.352 44.168C83.0133 45.4539 83.4974 47.9143 82.4412 49.8104C74.2458 64.5215 66.7887 74.3097 62.3821 79.5491C60.0119 82.3672 56.2009 82.7287 53.5134 80.2698C49.6764 76.7594 44.0374 70.7996 38.6408 62.1188C37.6238 60.4827 37.8441 58.3015 39.1116 56.8869L42.3609 53.2601C43.8736 51.5717 46.3605 51.5252 47.8861 53.1999C53.2592 59.0978 57.4264 64.4457 57.4264 64.4457C57.4264 64.4457 63.5497 54.5118 73.0586 42.4674C74.3729 40.8026 76.6404 40.5211 78.2844 41.7936L81.352 44.168Z" fill="#40A4D3"/>
</svg>
