<svg width="121" height="121" viewBox="0 0 121 121" fill="none" xmlns="http://www.w3.org/2000/svg">
<circle cx="60.5" cy="60.5" r="60.5" fill="#2B6D8D" fill-opacity="0.29"/>
<path d="M45.5195 67.9736C32.3837 83.394 26.5816 97.5389 24.4737 103.762C23.9444 105.325 25.2133 106.798 26.7802 106.525L34.8344 105.124C36.0236 104.918 37.2421 105.228 38.2066 105.982L43.0712 109.79C44.2757 110.732 46.0246 110.183 46.5466 108.71C48.1816 104.094 51.913 94.0671 58.7542 78.1016C65.5955 94.0671 69.3269 104.094 70.9619 108.71C71.4839 110.183 73.2328 110.732 74.4372 109.79L79.3019 105.982C80.2664 105.228 81.4849 104.918 82.6741 105.124L90.7282 106.525C92.2952 106.798 93.5641 105.325 93.0348 103.762C90.9269 97.5389 85.1248 83.394 71.9889 67.9736H45.5195Z" fill="#40A4D3"/>
<path d="M52.8966 14.1048C57.7545 10.5474 64.3573 10.5474 69.2152 14.1048L71.889 16.0629C72.2848 16.3527 72.7628 16.5085 73.2533 16.5075L76.5754 16.5012C82.5834 16.4897 87.9096 20.364 89.7489 26.0836L90.7821 29.2969C90.9317 29.7619 91.2253 30.1673 91.6205 30.4544L94.3616 32.4457C99.2054 35.9645 101.23 42.2037 99.3758 47.8963L98.3162 51.149C98.1653 51.6123 98.1653 52.1115 98.3162 52.5748L99.3758 55.8274C101.23 61.5201 99.2054 67.7592 94.3616 71.278L91.6205 73.2693C91.2253 73.5564 90.9317 73.9618 90.7821 74.4269L89.7489 77.6401C87.9096 83.3598 82.5834 87.2341 76.5754 87.2226L73.2533 87.2162C72.7628 87.2153 72.2848 87.3711 71.889 87.6609L69.2152 89.6189C64.3573 93.1763 57.7545 93.1763 52.8966 89.6189L50.2228 87.6609C49.827 87.3711 49.3491 87.2153 48.8585 87.2162L45.5365 87.2226C39.5284 87.2341 34.2022 83.3598 32.363 77.6401L31.3297 74.4269C31.1802 73.9618 30.8865 73.5564 30.4913 73.2693L27.7502 71.278C22.9064 67.7592 20.8816 61.5201 22.736 55.8274L23.7956 52.5748C23.9465 52.1115 23.9465 51.6123 23.7956 51.149L22.736 47.8963C20.8816 42.2037 22.9064 35.9645 27.7502 32.4457L30.4913 30.4544C30.8865 30.1673 31.1802 29.7619 31.3297 29.2969L32.363 26.0836C34.2022 20.364 39.5284 16.4897 45.5365 16.5012L48.8585 16.5075C49.349 16.5085 49.827 16.3527 50.2228 16.0629L52.8966 14.1048Z" fill="#2B6D8D"/>
<path d="M56.2422 31.3035C57.8626 28.0255 62.3312 28.0255 63.9515 31.3035L68.6309 40.7704L78.6475 42.8399C81.9544 43.5232 83.291 47.7272 81.0375 50.357L73.9053 58.6803L75.2079 69.7558C75.6321 73.363 72.0582 76.0138 68.9591 74.3907L60.0969 69.7493L51.2346 74.3907C48.1355 76.0138 44.5616 73.363 44.9859 69.7558L46.2884 58.6803L39.1562 50.357C36.9027 47.7272 38.2393 43.5232 41.5463 42.8399L51.5628 40.7704L56.2422 31.3035Z" fill="#40A4D3"/>
</svg>
