<svg width="68" height="64" viewBox="0 0 68 64" fill="none" xmlns="http://www.w3.org/2000/svg">
<rect width="68" height="64" rx="15" fill="white"/>
<path d="M18.9379 24.0439C18.644 22.2942 19.6008 20.7897 21.2769 20.2081C23.0566 19.5905 25.9667 18.68 30.6358 17.4289C35.3048 16.1779 38.2803 15.5114 40.1303 15.1563C41.8727 14.8219 43.4536 15.6465 44.0739 17.3087C44.5514 18.5885 45.1627 20.4567 45.8818 23.1406C46.601 25.8246 47.0057 27.7481 47.2321 29.0952C47.526 30.8449 46.5692 32.3494 44.893 32.931C43.1133 33.5485 40.2032 34.4591 35.5342 35.7101C30.8652 36.9612 27.8897 37.6277 26.0396 37.9827C24.2972 38.3171 22.7164 37.4926 22.0961 35.8304C21.6185 34.5506 21.0073 32.6824 20.2881 29.9984C19.569 27.3145 19.1642 25.391 18.9379 24.0439Z" fill="#40A4D3"/>
<path d="M15.478 22.7071C15.6771 20.9311 16.9692 19.6602 18.7469 19.4773C21.1652 19.2285 25.4929 18.9652 32.9798 18.9652C40.4666 18.9652 44.7944 19.2285 47.2127 19.4773C48.9904 19.6602 50.2825 20.9311 50.4816 22.7071C50.7198 24.8314 50.9596 28.3896 50.9596 34.1061C50.9596 39.8225 50.7198 43.3808 50.4816 45.505C50.2825 47.281 48.9904 48.552 47.2127 48.7349C44.7944 48.9837 40.4666 49.2469 32.9798 49.2469C25.4929 49.2469 21.1652 48.9837 18.7469 48.7349C16.9692 48.552 15.6771 47.281 15.478 45.505C15.2398 43.3808 15 39.8225 15 34.1061C15 28.3896 15.2398 24.8314 15.478 22.7071Z" fill="#306A90"/>
<path d="M39.6529 31.5998C39.731 29.8145 40.9866 28.5759 42.7718 28.4951C43.646 28.4556 44.7757 28.4282 46.228 28.4282C47.6804 28.4282 48.8101 28.4556 49.6843 28.4951C51.4694 28.5759 52.7251 29.8145 52.8032 31.5998C52.8328 32.2765 52.8522 33.1026 52.8522 34.1061C52.8522 35.1095 52.8328 35.9357 52.8032 36.6123C52.7251 38.3976 51.4694 39.6363 49.6843 39.717C48.8101 39.7565 47.6804 39.7839 46.228 39.7839C44.7757 39.7839 43.646 39.7565 42.7718 39.717C40.9866 39.6363 39.731 38.3976 39.6529 36.6123C39.6233 35.9357 39.6039 35.1095 39.6039 34.1061C39.6039 33.1026 39.6233 32.2765 39.6529 31.5998Z" fill="#40A4D3"/>
<path d="M47.1743 34.1061C47.1743 35.1514 46.327 35.9987 45.2817 35.9987C44.2365 35.9987 43.3891 35.1514 43.3891 34.1061C43.3891 33.0608 44.2365 32.2135 45.2817 32.2135C46.327 32.2135 47.1743 33.0608 47.1743 34.1061Z" fill="#306A90"/>
</svg>
