<svg width="276" height="155" viewBox="0 0 276 155" fill="none" xmlns="http://www.w3.org/2000/svg">
<g filter="url(#filter0_d_31_252)">
<rect x="47" y="22" width="182" height="61" rx="10" fill="white"/>
</g>
<g clip-path="url(#clip0_31_252)">
<path d="M88.7818 50.2005L84.7172 47.8531L79.1485 52.014L84.7171 56.1748L88.7956 53.8193C89.4315 53.433 89.8109 52.7579 89.8109 52.0141C89.8109 51.2702 89.4314 50.5952 88.7818 50.2005Z" fill="#FF9100"/>
<path d="M80.5564 52.014C80.5503 52.0218 75.6328 58.3444 75.6288 58.3496L69.2228 63.3945C68.8286 63.0003 68.5893 62.4654 68.5893 61.874V42.1191C68.5893 41.5278 68.8286 40.9928 69.2228 40.5986L75.6288 45.6784C75.6328 45.6836 80.5503 52.0062 80.5564 52.014Z" fill="#25D9F8"/>
<path d="M80.5564 52.014L79.1485 53.8301V50.1978L80.5564 52.014Z" fill="#00C0F1"/>
<path d="M84.7241 47.8466L80.5567 52.0141L69.2231 40.5988C69.3638 40.472 69.5047 40.3734 69.6595 40.2749C70.3353 39.8948 71.1378 39.9088 71.7996 40.3172L79.1488 44.6367L84.7241 47.8466Z" fill="#7FE881"/>
<path d="M84.7239 47.8467L80.5564 52.0141L79.1485 50.6062V44.6367L84.7239 47.8467Z" fill="#5BC980"/>
<path d="M84.7241 56.1815L79.1488 59.3916L71.7855 63.6904C71.4476 63.8874 71.0816 64.0001 70.7014 64.0001C70.3494 64.0001 69.9974 63.9015 69.6595 63.7185C69.5047 63.6199 69.3638 63.5214 69.2231 63.3947L80.5567 52.0142L84.7241 56.1815Z" fill="#FF637B"/>
<path d="M84.7239 56.1815L79.1485 59.3916V53.4221L80.5564 52.0142L84.7239 56.1815Z" fill="#E63950"/>
</g>
<path d="M112.289 42.8809C112 43.2949 111.596 43.6055 111.076 43.8125C110.561 44.0156 109.959 44.1172 109.271 44.1172C108.576 44.1172 107.959 43.9551 107.42 43.6309C106.881 43.3027 106.463 42.8379 106.166 42.2363C105.873 41.6348 105.723 40.9375 105.715 40.1445V39.4004C105.715 38.1152 106.014 37.1191 106.611 36.4121C107.213 35.7051 108.057 35.3516 109.143 35.3516C110.033 35.3516 110.75 35.5801 111.293 36.0371C111.836 36.4902 112.168 37.1348 112.289 37.9707H111.164C110.953 36.8418 110.281 36.2773 109.148 36.2773C108.395 36.2773 107.822 36.543 107.432 37.0742C107.045 37.6016 106.85 38.3672 106.846 39.3711V40.0684C106.846 41.0254 107.064 41.7871 107.502 42.3535C107.939 42.916 108.531 43.1973 109.277 43.1973C109.699 43.1973 110.068 43.1504 110.385 43.0566C110.701 42.9629 110.963 42.8047 111.17 42.582V40.666H109.195V39.752H112.289V42.8809ZM116.631 44.1172C115.771 44.1172 115.072 43.8359 114.533 43.2734C113.994 42.707 113.725 41.9512 113.725 41.0059V40.8066C113.725 40.1777 113.844 39.6172 114.082 39.125C114.324 38.6289 114.66 38.2422 115.09 37.9648C115.523 37.6836 115.992 37.543 116.496 37.543C117.32 37.543 117.961 37.8145 118.418 38.3574C118.875 38.9004 119.104 39.6777 119.104 40.6895V41.1406H114.809C114.824 41.7656 115.006 42.2715 115.354 42.6582C115.705 43.041 116.15 43.2324 116.689 43.2324C117.072 43.2324 117.396 43.1543 117.662 42.998C117.928 42.8418 118.16 42.6348 118.359 42.377L119.021 42.8926C118.49 43.709 117.693 44.1172 116.631 44.1172ZM116.496 38.4336C116.059 38.4336 115.691 38.5938 115.395 38.9141C115.098 39.2305 114.914 39.6758 114.844 40.25H118.02V40.168C117.988 39.6172 117.84 39.1914 117.574 38.8906C117.309 38.5859 116.949 38.4336 116.496 38.4336ZM121.834 36.125V37.6602H123.018V38.498H121.834V42.4297C121.834 42.6836 121.887 42.875 121.992 43.0039C122.098 43.1289 122.277 43.1914 122.531 43.1914C122.656 43.1914 122.828 43.168 123.047 43.1211V44C122.762 44.0781 122.484 44.1172 122.215 44.1172C121.73 44.1172 121.365 43.9707 121.119 43.6777C120.873 43.3848 120.75 42.9688 120.75 42.4297V38.498H119.596V37.6602H120.75V36.125H121.834ZM128.443 44H127.359V37.6602H128.443V44ZM127.271 35.9785C127.271 35.8027 127.324 35.6543 127.43 35.5332C127.539 35.4121 127.699 35.3516 127.91 35.3516C128.121 35.3516 128.281 35.4121 128.391 35.5332C128.5 35.6543 128.555 35.8027 128.555 35.9785C128.555 36.1543 128.5 36.3008 128.391 36.418C128.281 36.5352 128.121 36.5938 127.91 36.5938C127.699 36.5938 127.539 36.5352 127.43 36.418C127.324 36.3008 127.271 36.1543 127.271 35.9785ZM131.654 36.125V37.6602H132.838V38.498H131.654V42.4297C131.654 42.6836 131.707 42.875 131.812 43.0039C131.918 43.1289 132.098 43.1914 132.352 43.1914C132.477 43.1914 132.648 43.168 132.867 43.1211V44C132.582 44.0781 132.305 44.1172 132.035 44.1172C131.551 44.1172 131.186 43.9707 130.939 43.6777C130.693 43.3848 130.57 42.9688 130.57 42.4297V38.498H129.416V37.6602H130.57V36.125H131.654ZM137.619 44V38.498H136.617V37.6602H137.619V37.0098C137.619 36.3301 137.801 35.8047 138.164 35.4336C138.527 35.0625 139.041 34.877 139.705 34.877C139.955 34.877 140.203 34.9102 140.449 34.9766L140.391 35.8555C140.207 35.8203 140.012 35.8027 139.805 35.8027C139.453 35.8027 139.182 35.9062 138.99 36.1133C138.799 36.3164 138.703 36.6094 138.703 36.9922V37.6602H140.057V38.498H138.703V44H137.619ZM144.322 38.6328C144.158 38.6055 143.98 38.5918 143.789 38.5918C143.078 38.5918 142.596 38.8945 142.342 39.5V44H141.258V37.6602H142.312L142.33 38.3926C142.686 37.8262 143.189 37.543 143.842 37.543C144.053 37.543 144.213 37.5703 144.322 37.625V38.6328ZM144.92 40.7715C144.92 40.1504 145.041 39.5918 145.283 39.0957C145.529 38.5996 145.869 38.2168 146.303 37.9473C146.74 37.6777 147.238 37.543 147.797 37.543C148.66 37.543 149.357 37.8418 149.889 38.4395C150.424 39.0371 150.691 39.832 150.691 40.8242V40.9004C150.691 41.5176 150.572 42.0723 150.334 42.5645C150.1 43.0527 149.762 43.4336 149.32 43.707C148.883 43.9805 148.379 44.1172 147.809 44.1172C146.949 44.1172 146.252 43.8184 145.717 43.2207C145.186 42.623 144.92 41.832 144.92 40.8477V40.7715ZM146.01 40.9004C146.01 41.6035 146.172 42.168 146.496 42.5938C146.824 43.0195 147.262 43.2324 147.809 43.2324C148.359 43.2324 148.797 43.0176 149.121 42.5879C149.445 42.1543 149.607 41.5488 149.607 40.7715C149.607 40.0762 149.441 39.5137 149.109 39.084C148.781 38.6504 148.344 38.4336 147.797 38.4336C147.262 38.4336 146.83 38.6465 146.502 39.0723C146.174 39.498 146.01 40.1074 146.01 40.9004ZM153.07 37.6602L153.1 38.3633C153.564 37.8164 154.191 37.543 154.98 37.543C155.867 37.543 156.471 37.8828 156.791 38.5625C157.002 38.2578 157.275 38.0117 157.611 37.8242C157.951 37.6367 158.352 37.543 158.812 37.543C160.203 37.543 160.91 38.2793 160.934 39.752V44H159.85V39.8164C159.85 39.3633 159.746 39.0254 159.539 38.8027C159.332 38.5762 158.984 38.4629 158.496 38.4629C158.094 38.4629 157.76 38.584 157.494 38.8262C157.229 39.0645 157.074 39.3867 157.031 39.793V44H155.941V39.8457C155.941 38.9238 155.49 38.4629 154.588 38.4629C153.877 38.4629 153.391 38.7656 153.129 39.3711V44H152.045V37.6602H153.07Z" fill="#758FA4"/>
<path d="M111.391 68.247C113.69 68.247 115.495 67.297 116.787 65.853V60.989H110.745V63.345H114.089V64.865C113.576 65.34 112.512 65.834 111.391 65.834C109.092 65.834 107.42 64.067 107.42 61.673C107.42 59.279 109.092 57.512 111.391 57.512C112.74 57.512 113.823 58.272 114.393 59.165L116.635 57.949C115.685 56.448 114.032 55.118 111.391 55.118C107.686 55.118 104.646 57.664 104.646 61.673C104.646 65.663 107.686 68.247 111.391 68.247ZM123.128 68.228C126.168 68.228 127.992 66.024 127.992 63.402C127.992 60.799 126.168 58.595 123.128 58.595C120.107 58.595 118.283 60.799 118.283 63.402C118.283 66.024 120.107 68.228 123.128 68.228ZM123.128 66.081C121.627 66.081 120.791 64.846 120.791 63.402C120.791 61.977 121.627 60.742 123.128 60.742C124.629 60.742 125.484 61.977 125.484 63.402C125.484 64.846 124.629 66.081 123.128 66.081ZM134.038 68.228C137.078 68.228 138.902 66.024 138.902 63.402C138.902 60.799 137.078 58.595 134.038 58.595C131.017 58.595 129.193 60.799 129.193 63.402C129.193 66.024 131.017 68.228 134.038 68.228ZM134.038 66.081C132.537 66.081 131.701 64.846 131.701 63.402C131.701 61.977 132.537 60.742 134.038 60.742C135.539 60.742 136.394 61.977 136.394 63.402C136.394 64.846 135.539 66.081 134.038 66.081ZM144.454 71.724C146.715 71.724 149.413 70.869 149.413 67.373V58.823H146.981V60.001C146.24 59.07 145.252 58.595 144.15 58.595C141.832 58.595 140.103 60.267 140.103 63.269C140.103 66.328 141.851 67.943 144.15 67.943C145.271 67.943 146.259 67.411 146.981 66.499V67.43C146.981 69.235 145.613 69.748 144.454 69.748C143.295 69.748 142.326 69.425 141.585 68.608L140.502 70.356C141.661 71.363 142.877 71.724 144.454 71.724ZM144.91 65.796C143.542 65.796 142.592 64.846 142.592 63.269C142.592 61.692 143.542 60.742 144.91 60.742C145.708 60.742 146.582 61.179 146.981 61.787V64.751C146.582 65.34 145.708 65.796 144.91 65.796ZM154.219 68V55.327H151.806V68H154.219ZM160.925 68.228C162.35 68.228 163.794 67.791 164.706 66.955L163.642 65.397C163.053 65.967 161.97 66.309 161.191 66.309C159.633 66.309 158.702 65.34 158.55 64.181H165.371V63.649C165.371 60.647 163.509 58.595 160.773 58.595C157.98 58.595 156.023 60.742 156.023 63.402C156.023 66.347 158.132 68.228 160.925 68.228ZM163.034 62.547H158.512C158.626 61.635 159.272 60.514 160.773 60.514C162.369 60.514 162.977 61.673 163.034 62.547ZM174.73 68V63.497H177.96C180.696 63.497 182.216 61.616 182.216 59.412C182.216 57.189 180.715 55.327 177.96 55.327H172.032V68H174.73ZM177.599 61.122H174.73V57.702H177.599C178.663 57.702 179.461 58.348 179.461 59.412C179.461 60.457 178.663 61.122 177.599 61.122ZM186.245 68V55.327H183.832V68H186.245ZM196.56 68V62.072C196.56 59.431 194.641 58.595 192.551 58.595C191.107 58.595 189.663 59.051 188.542 60.039L189.454 61.654C190.233 60.932 191.145 60.571 192.133 60.571C193.349 60.571 194.147 61.179 194.147 62.11V63.345C193.539 62.623 192.456 62.224 191.24 62.224C189.777 62.224 188.048 63.041 188.048 65.188C188.048 67.24 189.777 68.228 191.24 68.228C192.437 68.228 193.52 67.791 194.147 67.05V68H196.56ZM192.209 66.594C191.259 66.594 190.48 66.1 190.48 65.245C190.48 64.352 191.259 63.858 192.209 63.858C192.988 63.858 193.748 64.124 194.147 64.656V65.796C193.748 66.328 192.988 66.594 192.209 66.594ZM198.631 71.591C198.935 71.667 199.543 71.724 199.828 71.724C201.405 71.686 202.621 71.23 203.305 69.501L207.618 58.823H205.015L202.621 65.207L200.227 58.823H197.643L201.367 68.133L201.025 68.912C200.797 69.406 200.379 69.577 199.752 69.577C199.524 69.577 199.201 69.52 198.992 69.425L198.631 71.591Z" fill="#3D4C59"/>
<defs>
<filter id="filter0_d_31_252" x="0" y="0" width="276" height="155" filterUnits="userSpaceOnUse" color-interpolation-filters="sRGB">
<feFlood flood-opacity="0" result="BackgroundImageFix"/>
<feColorMatrix in="SourceAlpha" type="matrix" values="0 0 0 0 0 0 0 0 0 0 0 0 0 0 0 0 0 0 127 0" result="hardAlpha"/>
<feOffset dy="25"/>
<feGaussianBlur stdDeviation="23.5"/>
<feColorMatrix type="matrix" values="0 0 0 0 0.824913 0 0 0 0 0.836198 0 0 0 0 0.920833 0 0 0 1 0"/>
<feBlend mode="multiply" in2="BackgroundImageFix" result="effect1_dropShadow_31_252"/>
<feBlend mode="normal" in="SourceGraphic" in2="effect1_dropShadow_31_252" result="shape"/>
</filter>
<clipPath id="clip0_31_252">
<rect width="24" height="24" fill="white" transform="translate(66 40)"/>
</clipPath>
</defs>
</svg>
