<svg width="1440" height="972" viewBox="0 0 1440 972" fill="none" xmlns="http://www.w3.org/2000/svg">
<path d="M909.5 145.5C984.762 137.164 1390.17 169.5 1440 7L1418.5 -121L-264 -49C-374.167 290.5 -472.308 716.49 -61.0001 732C960 770.5 426.5 199 909.5 145.5Z" fill="#2B6D8D"/>
<path opacity="0.05" d="M-45.7437 584.4C-106.39 592.126 -124.553 646.607 -127.8 677.924L-108.196 926.495C-106.851 943.553 123.566 960.324 195.432 947.3C267.298 934.276 573.11 710.921 609.174 593.44C645.237 475.959 579.203 430.898 531.319 421.801C483.435 412.703 440.757 454.077 407.034 500.262C379.644 537.774 337.091 634.345 246 659.92C184.274 677.25 122.293 654.451 89.5 627C60.7881 602.965 30.0635 574.744 -45.7437 584.4Z" fill="white"/>
<ellipse opacity="0.05" cx="144.5" cy="81" rx="274.5" ry="274" fill="white"/>
<path opacity="0.05" d="M717.809 113.578C768.434 -75.4216 915.476 -74.4216 999.309 -112.422C1068.14 -161.422 1199.11 -218.122 1172.31 -52.9216C1145.51 112.278 1055.14 210.912 1013.31 239.578L694.809 325.078C692.476 291.912 693.809 203.178 717.809 113.578Z" fill="white"/>
<circle cx="1211.58" cy="617.585" r="3.58452" fill="#324668" fill-opacity="0.15"/>
<circle cx="1211.58" cy="638.151" r="3.58452" fill="#324668" fill-opacity="0.15"/>
<circle cx="1211.58" cy="658.717" r="3.58452" fill="#324668" fill-opacity="0.15"/>
<circle cx="1211.58" cy="679.283" r="3.58452" fill="#324668" fill-opacity="0.15"/>
<circle cx="1211.58" cy="699.849" r="3.58452" fill="#324668" fill-opacity="0.15"/>
<circle cx="1211.58" cy="720.415" r="3.58452" fill="#324668" fill-opacity="0.15"/>
<circle cx="1232.15" cy="617.585" r="3.58452" fill="#324668" fill-opacity="0.15"/>
<circle cx="1232.15" cy="638.151" r="3.58452" fill="#324668" fill-opacity="0.15"/>
<circle cx="1232.15" cy="658.717" r="3.58452" fill="#324668" fill-opacity="0.15"/>
<circle cx="1232.15" cy="679.283" r="3.58452" fill="#324668" fill-opacity="0.15"/>
<circle cx="1232.15" cy="699.849" r="3.58452" fill="#324668" fill-opacity="0.15"/>
<circle cx="1232.15" cy="720.415" r="3.58452" fill="#324668" fill-opacity="0.15"/>
<circle cx="1252.72" cy="617.585" r="3.58452" fill="#324668" fill-opacity="0.15"/>
<circle cx="1252.72" cy="638.151" r="3.58452" fill="#324668" fill-opacity="0.15"/>
<circle cx="1252.72" cy="658.717" r="3.58452" fill="#324668" fill-opacity="0.15"/>
<circle cx="1252.72" cy="679.283" r="3.58452" fill="#324668" fill-opacity="0.15"/>
<circle cx="1252.72" cy="699.849" r="3.58452" fill="#324668" fill-opacity="0.15"/>
<circle cx="1252.72" cy="720.415" r="3.58452" fill="#324668" fill-opacity="0.15"/>
<circle cx="1273.28" cy="617.585" r="3.58452" fill="#324668" fill-opacity="0.15"/>
<circle cx="1293.85" cy="617.585" r="3.58452" fill="#324668" fill-opacity="0.15"/>
<circle cx="1314.42" cy="617.585" r="3.58452" fill="#324668" fill-opacity="0.15"/>
<circle cx="1273.28" cy="638.151" r="3.58452" fill="#324668" fill-opacity="0.15"/>
<circle cx="1293.85" cy="638.151" r="3.58452" fill="#324668" fill-opacity="0.15"/>
<circle cx="1314.42" cy="638.151" r="3.58452" fill="#324668" fill-opacity="0.15"/>
<circle cx="1273.28" cy="658.717" r="3.58452" fill="#324668" fill-opacity="0.15"/>
<circle cx="1293.85" cy="658.717" r="3.58452" fill="#324668" fill-opacity="0.15"/>
<circle cx="1314.42" cy="658.717" r="3.58452" fill="#324668" fill-opacity="0.15"/>
<circle cx="1273.28" cy="679.283" r="3.58452" fill="#324668" fill-opacity="0.15"/>
<circle cx="1273.28" cy="699.849" r="3.58452" fill="#324668" fill-opacity="0.15"/>
<circle cx="1273.28" cy="720.415" r="3.58452" fill="#324668" fill-opacity="0.15"/>
<circle cx="1293.85" cy="679.283" r="3.58452" fill="#324668" fill-opacity="0.15"/>
<circle cx="1293.85" cy="699.849" r="3.58452" fill="#324668" fill-opacity="0.15"/>
<circle cx="1293.85" cy="720.415" r="3.58452" fill="#324668" fill-opacity="0.15"/>
<circle cx="1314.42" cy="679.283" r="3.58452" fill="#324668" fill-opacity="0.15"/>
<circle cx="1314.42" cy="699.849" r="3.58452" fill="#324668" fill-opacity="0.15"/>
<circle cx="1314.42" cy="720.415" r="3.58452" fill="#324668" fill-opacity="0.15"/>
<circle cx="1333.58" cy="617.585" r="3.58452" fill="#324668" fill-opacity="0.15"/>
<circle cx="1333.58" cy="638.151" r="3.58452" fill="#324668" fill-opacity="0.15"/>
<circle cx="1333.58" cy="658.717" r="3.58452" fill="#324668" fill-opacity="0.15"/>
<circle cx="1333.58" cy="679.283" r="3.58452" fill="#324668" fill-opacity="0.15"/>
<circle cx="1333.58" cy="699.849" r="3.58452" fill="#324668" fill-opacity="0.15"/>
<circle cx="1333.58" cy="720.415" r="3.58452" fill="#324668" fill-opacity="0.15"/>
<circle cx="1354.15" cy="617.585" r="3.58452" fill="#324668" fill-opacity="0.15"/>
<circle cx="1354.15" cy="638.151" r="3.58452" fill="#324668" fill-opacity="0.15"/>
<circle cx="1354.15" cy="658.717" r="3.58452" fill="#324668" fill-opacity="0.15"/>
<circle cx="1354.15" cy="679.283" r="3.58452" fill="#324668" fill-opacity="0.15"/>
<circle cx="1354.15" cy="699.849" r="3.58452" fill="#324668" fill-opacity="0.15"/>
<circle cx="1354.15" cy="720.415" r="3.58452" fill="#324668" fill-opacity="0.15"/>
<circle cx="1374.72" cy="617.585" r="3.58452" fill="#324668" fill-opacity="0.15"/>
<circle cx="1374.72" cy="638.151" r="3.58452" fill="#324668" fill-opacity="0.15"/>
<circle cx="1374.72" cy="658.717" r="3.58452" fill="#324668" fill-opacity="0.15"/>
<circle cx="1374.72" cy="679.283" r="3.58452" fill="#324668" fill-opacity="0.15"/>
<circle cx="1374.72" cy="699.849" r="3.58452" fill="#324668" fill-opacity="0.15"/>
<circle cx="1374.72" cy="720.415" r="3.58452" fill="#324668" fill-opacity="0.15"/>
<circle cx="1395.28" cy="617.585" r="3.58452" fill="#324668" fill-opacity="0.15"/>
<circle cx="1415.85" cy="617.585" r="3.58452" fill="#324668" fill-opacity="0.15"/>
<circle cx="1436.42" cy="617.585" r="3.58452" fill="#324668" fill-opacity="0.15"/>
<circle cx="1395.28" cy="638.151" r="3.58452" fill="#324668" fill-opacity="0.15"/>
<circle cx="1415.85" cy="638.151" r="3.58452" fill="#324668" fill-opacity="0.15"/>
<circle cx="1436.42" cy="638.151" r="3.58452" fill="#324668" fill-opacity="0.15"/>
<circle cx="1395.28" cy="658.717" r="3.58452" fill="#324668" fill-opacity="0.15"/>
<circle cx="1415.85" cy="658.717" r="3.58452" fill="#324668" fill-opacity="0.15"/>
<circle cx="1436.42" cy="658.717" r="3.58452" fill="#324668" fill-opacity="0.15"/>
<circle cx="1395.28" cy="679.283" r="3.58452" fill="#324668" fill-opacity="0.15"/>
<circle cx="1395.28" cy="699.849" r="3.58452" fill="#324668" fill-opacity="0.15"/>
<circle cx="1395.28" cy="720.415" r="3.58452" fill="#324668" fill-opacity="0.15"/>
<circle cx="1415.85" cy="679.283" r="3.58452" fill="#324668" fill-opacity="0.15"/>
<circle cx="1415.85" cy="699.849" r="3.58452" fill="#324668" fill-opacity="0.15"/>
<circle cx="1415.85" cy="720.415" r="3.58452" fill="#324668" fill-opacity="0.15"/>
<circle cx="1436.42" cy="679.283" r="3.58452" fill="#324668" fill-opacity="0.15"/>
<circle cx="1436.42" cy="699.849" r="3.58452" fill="#324668" fill-opacity="0.15"/>
<circle cx="1436.42" cy="720.415" r="3.58452" fill="#324668" fill-opacity="0.15"/>
<circle cx="6.58452" cy="624.585" r="3.58452" fill="white" fill-opacity="0.15"/>
<circle cx="6.58452" cy="645.151" r="3.58452" fill="white" fill-opacity="0.15"/>
<circle cx="6.58452" cy="665.717" r="3.58452" fill="white" fill-opacity="0.15"/>
<circle cx="6.58452" cy="686.283" r="3.58452" fill="white" fill-opacity="0.15"/>
<circle cx="6.58452" cy="706.849" r="3.58452" fill="white" fill-opacity="0.15"/>
<circle cx="6.58452" cy="727.415" r="3.58452" fill="white" fill-opacity="0.15"/>
<circle cx="27.1507" cy="624.585" r="3.58452" fill="white" fill-opacity="0.15"/>
<circle cx="27.1507" cy="645.151" r="3.58452" fill="white" fill-opacity="0.15"/>
<circle cx="27.1507" cy="665.717" r="3.58452" fill="white" fill-opacity="0.15"/>
<circle cx="27.1507" cy="686.283" r="3.58452" fill="white" fill-opacity="0.15"/>
<circle cx="27.1507" cy="706.849" r="3.58452" fill="white" fill-opacity="0.15"/>
<circle cx="27.1507" cy="727.415" r="3.58452" fill="white" fill-opacity="0.15"/>
<circle cx="47.7169" cy="624.585" r="3.58452" fill="white" fill-opacity="0.15"/>
<circle cx="47.7169" cy="645.151" r="3.58452" fill="white" fill-opacity="0.15"/>
<circle cx="47.7169" cy="665.717" r="3.58452" fill="white" fill-opacity="0.15"/>
<circle cx="47.7169" cy="686.283" r="3.58452" fill="white" fill-opacity="0.15"/>
<circle cx="47.7169" cy="706.849" r="3.58452" fill="white" fill-opacity="0.15"/>
<circle cx="47.7169" cy="727.415" r="3.58452" fill="white" fill-opacity="0.15"/>
<circle cx="68.2831" cy="624.585" r="3.58452" fill="white" fill-opacity="0.15"/>
<circle cx="88.8493" cy="624.585" r="3.58452" fill="white" fill-opacity="0.15"/>
<circle cx="109.415" cy="624.585" r="3.58452" fill="white" fill-opacity="0.15"/>
<circle cx="68.2831" cy="645.151" r="3.58452" fill="white" fill-opacity="0.15"/>
<circle cx="88.8493" cy="645.151" r="3.58452" fill="white" fill-opacity="0.15"/>
<circle cx="109.415" cy="645.151" r="3.58452" fill="white" fill-opacity="0.15"/>
<circle cx="68.2831" cy="665.717" r="3.58452" fill="white" fill-opacity="0.15"/>
<circle cx="88.8493" cy="665.717" r="3.58452" fill="white" fill-opacity="0.15"/>
<circle cx="109.415" cy="665.717" r="3.58452" fill="white" fill-opacity="0.15"/>
<circle cx="68.2831" cy="686.283" r="3.58452" fill="white" fill-opacity="0.15"/>
<circle cx="68.2831" cy="706.849" r="3.58452" fill="white" fill-opacity="0.15"/>
<circle cx="68.2831" cy="727.415" r="3.58452" fill="white" fill-opacity="0.15"/>
<circle cx="88.8493" cy="686.283" r="3.58452" fill="white" fill-opacity="0.15"/>
<circle cx="88.8493" cy="706.849" r="3.58452" fill="white" fill-opacity="0.15"/>
<circle cx="88.8493" cy="727.415" r="3.58452" fill="white" fill-opacity="0.15"/>
<circle cx="109.415" cy="686.283" r="3.58452" fill="white" fill-opacity="0.15"/>
<circle cx="109.415" cy="706.849" r="3.58452" fill="white" fill-opacity="0.15"/>
<circle cx="109.415" cy="727.415" r="3.58452" fill="white" fill-opacity="0.15"/>
<circle cx="128.585" cy="624.585" r="3.58452" fill="white" fill-opacity="0.15"/>
<circle cx="128.585" cy="645.151" r="3.58452" fill="white" fill-opacity="0.15"/>
<circle cx="128.585" cy="665.717" r="3.58452" fill="white" fill-opacity="0.15"/>
<circle cx="128.585" cy="686.283" r="3.58452" fill="white" fill-opacity="0.15"/>
<circle cx="128.585" cy="706.849" r="3.58452" fill="white" fill-opacity="0.15"/>
<circle cx="128.585" cy="727.415" r="3.58452" fill="white" fill-opacity="0.15"/>
<circle cx="149.151" cy="624.585" r="3.58452" fill="white" fill-opacity="0.15"/>
<circle cx="149.151" cy="645.151" r="3.58452" fill="white" fill-opacity="0.15"/>
<circle cx="149.151" cy="665.717" r="3.58452" fill="white" fill-opacity="0.15"/>
<circle cx="149.151" cy="686.283" r="3.58452" fill="white" fill-opacity="0.15"/>
<circle cx="149.151" cy="706.849" r="3.58452" fill="white" fill-opacity="0.15"/>
<circle cx="149.151" cy="727.415" r="3.58452" fill="white" fill-opacity="0.15"/>
<circle cx="169.717" cy="624.585" r="3.58452" fill="white" fill-opacity="0.15"/>
<circle cx="169.717" cy="645.151" r="3.58452" fill="white" fill-opacity="0.15"/>
<circle cx="169.717" cy="665.717" r="3.58452" fill="white" fill-opacity="0.15"/>
<circle cx="169.717" cy="686.283" r="3.58452" fill="white" fill-opacity="0.15"/>
<circle cx="169.717" cy="706.849" r="3.58452" fill="white" fill-opacity="0.15"/>
<circle cx="169.717" cy="727.415" r="3.58452" fill="white" fill-opacity="0.15"/>
<circle cx="190.283" cy="624.585" r="3.58452" fill="white" fill-opacity="0.15"/>
<circle cx="210.849" cy="624.585" r="3.58452" fill="white" fill-opacity="0.15"/>
<circle cx="231.415" cy="624.585" r="3.58452" fill="white" fill-opacity="0.15"/>
<circle cx="190.283" cy="645.151" r="3.58452" fill="white" fill-opacity="0.15"/>
<circle cx="210.849" cy="645.151" r="3.58452" fill="white" fill-opacity="0.15"/>
<circle cx="231.415" cy="645.151" r="3.58452" fill="white" fill-opacity="0.15"/>
<circle cx="190.283" cy="665.717" r="3.58452" fill="white" fill-opacity="0.15"/>
<circle cx="210.849" cy="665.717" r="3.58452" fill="white" fill-opacity="0.15"/>
<circle cx="231.415" cy="665.717" r="3.58452" fill="white" fill-opacity="0.15"/>
<circle cx="190.283" cy="686.283" r="3.58452" fill="white" fill-opacity="0.15"/>
<circle cx="190.283" cy="706.849" r="3.58452" fill="white" fill-opacity="0.15"/>
<circle cx="190.283" cy="727.415" r="3.58452" fill="white" fill-opacity="0.15"/>
<circle cx="210.849" cy="686.283" r="3.58452" fill="white" fill-opacity="0.15"/>
<circle cx="210.849" cy="706.849" r="3.58452" fill="white" fill-opacity="0.15"/>
<circle cx="210.849" cy="727.415" r="3.58452" fill="white" fill-opacity="0.15"/>
<circle cx="231.415" cy="686.283" r="3.58452" fill="white" fill-opacity="0.15"/>
<circle cx="231.415" cy="706.849" r="3.58452" fill="white" fill-opacity="0.15"/>
<circle cx="231.415" cy="727.415" r="3.58452" fill="white" fill-opacity="0.15"/>
</svg>
