<svg width="414" height="451" viewBox="0 0 414 451" fill="none" xmlns="http://www.w3.org/2000/svg">
<path d="M0 0H414V346C414 346 356 307.5 210.5 308.5C65 309.5 0 346 0 346V0Z" fill="#2B6D8D"/>
<circle opacity="0.05" cx="56" cy="32" r="80" fill="white"/>
<path opacity="0.05" d="M488.568 184.52C370.028 199.295 336.857 115.937 296.124 77.2674C252.61 49.6037 190.484 -11.4184 290.094 -34.1972C389.703 -56.976 466.238 -28.5345 492.054 -11.4664L613.5 148.963C595.271 157.897 544.765 177.516 488.568 184.52Z" fill="white"/>
<path opacity="0.05" d="M18.186 266.483C-0.0748145 260.748 -12.3329 273.788 -17.3323 282.223L-44.1028 355.101C-45.9399 360.103 17.4374 394.939 39.5803 400.64C61.7232 406.341 177.802 383.094 203.352 354.569C228.901 326.045 215.977 304.674 203.536 295.847C191.096 287.02 173.569 293.151 157.963 301.812C145.288 308.846 120.613 330.608 91.3672 325.947C71.5491 322.788 56.8807 308.244 51.1227 296.196C46.0812 285.647 41.0119 273.651 18.186 266.483Z" fill="white"/>
<path d="M362.497 107.971L358.982 111.486L355.467 107.971C355.013 107.517 354.285 107.517 353.839 107.971C353.385 108.425 353.385 109.152 353.839 109.606L357.354 113.121L353.839 116.636C353.385 117.09 353.385 117.818 353.839 118.272C354.293 118.725 355.02 118.725 355.467 118.272L358.982 114.756L362.497 118.272C362.951 118.725 363.678 118.725 364.125 118.272C364.579 117.818 364.579 117.09 364.125 116.636L360.61 113.121L364.125 109.606C364.579 109.152 364.579 108.425 364.125 107.971C363.671 107.524 362.944 107.524 362.497 107.971Z" fill="#30A0FC"/>
<path d="M165.662 291.523L162.146 295.039L158.631 291.523C158.177 291.07 157.45 291.07 156.996 291.523C156.542 291.977 156.542 292.705 156.996 293.159L160.511 296.674L156.996 300.189C156.542 300.643 156.542 301.37 156.996 301.817C157.45 302.271 158.177 302.271 158.631 301.817L162.146 298.302L165.662 301.817C166.115 302.271 166.843 302.271 167.297 301.817C167.751 301.363 167.751 300.636 167.297 300.189L163.782 296.674L167.297 293.159C167.751 292.705 167.751 291.977 167.297 291.523C166.843 291.07 166.108 291.07 165.662 291.523Z" fill="#FF2C45"/>
<path d="M9.00584 168.816L5.49066 172.332L1.97549 168.816C1.52169 168.363 0.794156 168.363 0.340353 168.816C-0.113451 169.27 -0.113451 169.998 0.340353 170.444L3.85553 173.96L0.340353 177.475C-0.113451 177.929 -0.113451 178.656 0.340353 179.103C0.794156 179.549 1.52169 179.556 1.97549 179.103L5.49066 175.587L9.00584 179.103C9.45965 179.556 10.1872 179.556 10.641 179.103C11.0948 178.649 11.0948 177.921 10.641 177.468L7.1258 173.952L10.641 170.437C11.0948 169.983 11.0948 169.256 10.641 168.809C10.1872 168.37 9.45244 168.37 9.00584 168.816Z" fill="#03D06F"/>
<path d="M142.172 80.2818L138.657 83.7969L135.142 80.2818C134.688 79.828 133.961 79.828 133.507 80.2818C133.053 80.7356 133.053 81.4631 133.507 81.9169L137.022 85.4321L133.507 88.9472C133.053 89.401 133.053 90.1286 133.507 90.5824C133.961 91.0362 134.688 91.0362 135.142 90.5824L138.657 87.0672L142.172 90.5824C142.626 91.0362 143.354 91.0362 143.8 90.5824C144.247 90.1286 144.254 89.401 143.8 88.9472L140.285 85.4321L143.8 81.9169C144.254 81.4631 144.254 80.7356 143.8 80.2818C143.354 79.828 142.626 79.828 142.172 80.2818Z" fill="#FFD300"/>
<path d="M42.5659 272.176C39.5477 272.176 37.0986 269.719 37.0986 266.708C37.0986 263.698 39.5549 261.241 42.5659 261.241C45.584 261.241 48.0331 263.698 48.0331 266.708C48.0331 269.719 45.5768 272.176 42.5659 272.176ZM42.5659 263.316C40.7002 263.316 39.1804 264.836 39.1804 266.701C39.1804 268.567 40.7002 270.087 42.5659 270.087C44.4315 270.087 45.9514 268.567 45.9514 266.701C45.9514 264.836 44.4315 263.316 42.5659 263.316Z" fill="white"/>
<path d="M227.379 76.0319C224.361 76.0319 221.912 73.5756 221.912 70.5647C221.912 67.5465 224.361 65.0974 227.379 65.0974C230.397 65.0974 232.846 67.5537 232.846 70.5647C232.846 73.5828 230.39 76.0319 227.379 76.0319ZM227.379 67.1791C225.513 67.1791 223.993 68.699 223.993 70.5647C223.993 72.4303 225.513 73.9502 227.379 73.9502C229.245 73.9502 230.764 72.4303 230.764 70.5647C230.764 68.699 229.245 67.1791 227.379 67.1791Z" fill="white"/>
<path d="M295.507 290.616C292.489 290.616 290.04 288.16 290.04 285.149C290.04 282.138 292.496 279.681 295.507 279.681C298.518 279.681 300.974 282.138 300.974 285.149C300.974 288.16 298.525 290.616 295.507 290.616ZM295.507 281.763C293.641 281.763 292.121 283.283 292.121 285.149C292.121 287.014 293.641 288.534 295.507 288.534C297.372 288.534 298.892 287.014 298.892 285.149C298.9 283.283 297.38 281.763 295.507 281.763Z" fill="white"/>
<path d="M365.81 286.669C366.65 286.669 367.33 285.988 367.33 285.149C367.33 284.309 366.65 283.629 365.81 283.629C364.971 283.629 364.291 284.309 364.291 285.149C364.291 285.988 364.971 286.669 365.81 286.669Z" fill="#C6BBB5"/>
<path d="M377.472 286.669C378.311 286.669 378.992 285.988 378.992 285.149C378.992 284.309 378.311 283.629 377.472 283.629C376.633 283.629 375.952 284.309 375.952 285.149C375.952 285.988 376.633 286.669 377.472 286.669Z" fill="#C6BBB5"/>
<path d="M389.141 286.669C389.98 286.669 390.661 285.988 390.661 285.149C390.661 284.309 389.98 283.629 389.141 283.629C388.302 283.629 387.621 284.309 387.621 285.149C387.621 285.988 388.302 286.669 389.141 286.669Z" fill="#C6BBB5"/>
<path d="M400.811 286.669C401.65 286.669 402.331 285.988 402.331 285.149C402.331 284.309 401.65 283.629 400.811 283.629C399.972 283.629 399.291 284.309 399.291 285.149C399.291 285.988 399.972 286.669 400.811 286.669Z" fill="#C6BBB5"/>
<path d="M412.48 286.669C413.319 286.669 414 285.988 414 285.149C414 284.309 413.319 283.629 412.48 283.629C411.64 283.629 410.96 284.309 410.96 285.149C410.96 285.988 411.64 286.669 412.48 286.669Z" fill="#C6BBB5"/>
<path d="M365.81 295.486C366.65 295.486 367.33 294.805 367.33 293.966C367.33 293.127 366.65 292.446 365.81 292.446C364.971 292.446 364.291 293.127 364.291 293.966C364.291 294.805 364.971 295.486 365.81 295.486Z" fill="#C6BBB5"/>
<path d="M377.472 295.486C378.311 295.486 378.992 294.805 378.992 293.966C378.992 293.127 378.311 292.446 377.472 292.446C376.633 292.446 375.952 293.127 375.952 293.966C375.952 294.805 376.633 295.486 377.472 295.486Z" fill="#C6BBB5"/>
<path d="M389.141 295.486C389.98 295.486 390.661 294.805 390.661 293.966C390.661 293.127 389.98 292.446 389.141 292.446C388.302 292.446 387.621 293.127 387.621 293.966C387.621 294.805 388.302 295.486 389.141 295.486Z" fill="#C6BBB5"/>
<path d="M400.811 295.486C401.65 295.486 402.331 294.805 402.331 293.966C402.331 293.127 401.65 292.446 400.811 292.446C399.972 292.446 399.291 293.127 399.291 293.966C399.291 294.805 399.972 295.486 400.811 295.486Z" fill="#C6BBB5"/>
<path d="M412.48 295.486C413.319 295.486 414 294.805 414 293.966C414 293.127 413.319 292.446 412.48 292.446C411.64 292.446 410.96 293.127 410.96 293.966C410.96 294.805 411.64 295.486 412.48 295.486Z" fill="#C6BBB5"/>
<path d="M365.81 304.302C366.65 304.302 367.33 303.622 367.33 302.782C367.33 301.943 366.65 301.262 365.81 301.262C364.971 301.262 364.291 301.943 364.291 302.782C364.291 303.622 364.971 304.302 365.81 304.302Z" fill="#C6BBB5"/>
<path d="M377.472 304.302C378.311 304.302 378.992 303.622 378.992 302.782C378.992 301.943 378.311 301.262 377.472 301.262C376.633 301.262 375.952 301.943 375.952 302.782C375.952 303.622 376.633 304.302 377.472 304.302Z" fill="#C6BBB5"/>
<path d="M389.141 304.302C389.98 304.302 390.661 303.622 390.661 302.782C390.661 301.943 389.98 301.262 389.141 301.262C388.302 301.262 387.621 301.943 387.621 302.782C387.621 303.622 388.302 304.302 389.141 304.302Z" fill="#C6BBB5"/>
<path d="M400.811 304.302C401.65 304.302 402.331 303.622 402.331 302.782C402.331 301.943 401.65 301.262 400.811 301.262C399.972 301.262 399.291 301.943 399.291 302.782C399.291 303.622 399.972 304.302 400.811 304.302Z" fill="#C6BBB5"/>
<path d="M412.48 304.302C413.319 304.302 414 303.622 414 302.782C414 301.943 413.319 301.262 412.48 301.262C411.64 301.262 410.96 301.943 410.96 302.782C410.96 303.622 411.64 304.302 412.48 304.302Z" fill="#C6BBB5"/>
<path d="M47.8817 103.858C48.7211 103.858 49.4016 103.178 49.4016 102.338C49.4016 101.499 48.7211 100.819 47.8817 100.819C47.0423 100.819 46.3618 101.499 46.3618 102.338C46.3618 103.178 47.0423 103.858 47.8817 103.858Z" fill="#C6BBB5"/>
<path d="M47.8817 115.527C48.7211 115.527 49.4016 114.847 49.4016 114.007C49.4016 113.168 48.7211 112.488 47.8817 112.488C47.0423 112.488 46.3618 113.168 46.3618 114.007C46.3618 114.847 47.0423 115.527 47.8817 115.527Z" fill="#C6BBB5"/>
<path d="M47.8817 127.197C48.7211 127.197 49.4016 126.516 49.4016 125.677C49.4016 124.837 48.7211 124.157 47.8817 124.157C47.0423 124.157 46.3618 124.837 46.3618 125.677C46.3618 126.516 47.0423 127.197 47.8817 127.197Z" fill="#C6BBB5"/>
<path d="M47.8817 138.866C48.7211 138.866 49.4016 138.185 49.4016 137.346C49.4016 136.507 48.7211 135.826 47.8817 135.826C47.0423 135.826 46.3618 136.507 46.3618 137.346C46.3618 138.185 47.0423 138.866 47.8817 138.866Z" fill="#C6BBB5"/>
<path d="M47.8817 150.528C48.7211 150.528 49.4016 149.847 49.4016 149.008C49.4016 148.169 48.7211 147.488 47.8817 147.488C47.0423 147.488 46.3618 148.169 46.3618 149.008C46.3618 149.847 47.0423 150.528 47.8817 150.528Z" fill="#C6BBB5"/>
<path d="M39.0648 103.858C39.9042 103.858 40.5847 103.178 40.5847 102.338C40.5847 101.499 39.9042 100.819 39.0648 100.819C38.2254 100.819 37.5449 101.499 37.5449 102.338C37.5449 103.178 38.2254 103.858 39.0648 103.858Z" fill="#C6BBB5"/>
<path d="M39.0648 115.527C39.9042 115.527 40.5847 114.847 40.5847 114.007C40.5847 113.168 39.9042 112.488 39.0648 112.488C38.2254 112.488 37.5449 113.168 37.5449 114.007C37.5449 114.847 38.2254 115.527 39.0648 115.527Z" fill="#C6BBB5"/>
<path d="M39.0648 127.197C39.9042 127.197 40.5847 126.516 40.5847 125.677C40.5847 124.837 39.9042 124.157 39.0648 124.157C38.2254 124.157 37.5449 124.837 37.5449 125.677C37.5449 126.516 38.2254 127.197 39.0648 127.197Z" fill="#C6BBB5"/>
<path d="M39.0648 138.866C39.9042 138.866 40.5847 138.185 40.5847 137.346C40.5847 136.507 39.9042 135.826 39.0648 135.826C38.2254 135.826 37.5449 136.507 37.5449 137.346C37.5449 138.185 38.2254 138.866 39.0648 138.866Z" fill="#C6BBB5"/>
<path d="M39.0648 150.528C39.9042 150.528 40.5847 149.847 40.5847 149.008C40.5847 148.169 39.9042 147.488 39.0648 147.488C38.2254 147.488 37.5449 148.169 37.5449 149.008C37.5449 149.847 38.2254 150.528 39.0648 150.528Z" fill="#C6BBB5"/>
<path d="M30.2479 103.858C31.0873 103.858 31.7678 103.177 31.7678 102.338C31.7678 101.499 31.0873 100.818 30.2479 100.818C29.4085 100.818 28.728 101.499 28.728 102.338C28.728 103.177 29.4085 103.858 30.2479 103.858Z" fill="#C6BBB5"/>
<path d="M30.2479 115.527C31.0873 115.527 31.7678 114.847 31.7678 114.007C31.7678 113.168 31.0873 112.488 30.2479 112.488C29.4085 112.488 28.728 113.168 28.728 114.007C28.728 114.847 29.4085 115.527 30.2479 115.527Z" fill="#C6BBB5"/>
<path d="M30.2479 127.197C31.0873 127.197 31.7678 126.516 31.7678 125.677C31.7678 124.837 31.0873 124.157 30.2479 124.157C29.4085 124.157 28.728 124.837 28.728 125.677C28.728 126.516 29.4085 127.197 30.2479 127.197Z" fill="#C6BBB5"/>
<path d="M30.2479 138.866C31.0873 138.866 31.7678 138.185 31.7678 137.346C31.7678 136.507 31.0873 135.826 30.2479 135.826C29.4085 135.826 28.728 136.507 28.728 137.346C28.728 138.185 29.4085 138.866 30.2479 138.866Z" fill="#C6BBB5"/>
<path d="M30.2479 150.528C31.0873 150.528 31.7678 149.847 31.7678 149.008C31.7678 148.169 31.0873 147.488 30.2479 147.488C29.4085 147.488 28.728 148.169 28.728 149.008C28.728 149.847 29.4085 150.528 30.2479 150.528Z" fill="#C6BBB5"/>
</svg>
