<svg width="718" height="537" viewBox="0 0 718 537" fill="none" xmlns="http://www.w3.org/2000/svg">
<path d="M92.9823 495.847H643.634C689.277 460.032 665.79 352.264 627.666 330.419C586.63 306.904 651.793 225.575 588.577 199.176C547.304 181.941 481.66 200.728 490.491 154.605C502.734 90.659 359.621 74.2751 254.183 91.5075C140.195 110.144 244.289 201.764 118.935 220.226C54.4765 229.718 66.9326 310.928 72.9509 327.712C78.1867 342.329 112.817 365.512 64.6872 397.439C-5.9 444.271 91.3177 494.985 92.9823 495.847Z" fill="#DFF0F7"/>
<path d="M407.531 409.156C453.706 358.786 489.482 297.423 512.975 228.3L594.899 275.097C567.739 355.019 526.372 425.967 472.984 484.207C451.168 459.192 429.351 434.175 407.531 409.156Z" fill="#3C8F7C"/>
<path d="M526.773 241.736L577.753 271.384C575.228 278.633 577.958 287.413 584.019 291.135C559.421 356.861 524.917 416.046 481.802 466.465C476.755 461.001 468.894 461.031 464.07 466.377L422.926 419.856C427.352 414.935 426.745 406.404 421.7 400.946C459.563 356.673 489.864 304.699 511.463 246.982C517.522 250.698 524.447 248.395 526.773 241.736Z" fill="#96D9C9"/>
<path d="M487.837 389.253C474.248 376.499 470.952 355.035 479.559 340.522C488.167 326.01 506.335 322.552 521.002 333.493C535.668 344.435 540.487 367.171 530.777 383.474C521.066 399.778 501.398 401.985 487.837 389.253Z" fill="#50BFA5"/>
<path d="M484.87 342.826L489.555 346.542C490.791 344.523 492.301 342.685 494.04 341.078C495.331 339.913 497.308 340.187 498.564 341.72L498.717 341.905C500.099 343.594 500.061 346.156 498.599 347.428C496.958 348.855 495.577 350.554 494.514 352.449C492.841 355.454 492.747 358.356 494.707 359.954C496.566 361.46 498.717 360.735 502.154 357.755C507.11 353.44 511.695 351.343 516.538 355.04C520.921 358.383 522.551 364.491 520.302 371.252L524.995 374.952C523.984 376.778 522.964 378.597 521.935 380.408L517.611 376.936C516.617 378.561 515.435 380.063 514.091 381.412C512.722 382.755 510.611 382.486 509.371 380.819C508.086 379.109 508.207 376.598 509.64 375.269C510.97 374.026 512.096 372.581 512.977 370.989C514.978 367.437 514.22 365.187 512.837 364.099C511.202 362.811 509.124 363.922 504.958 367.227C499.249 371.95 495.052 372.213 490.706 368.57C486.36 364.926 484.647 358.657 487.054 351.923L482.052 347.895C482.997 346.207 483.936 344.518 484.87 342.826Z" fill="#3C8F7C"/>
<path d="M452.141 433.243C462.552 421.046 472.417 408.314 481.738 395.047L488.643 401.577C479.197 415.014 469.194 427.925 458.633 440.308L452.141 433.243Z" fill="#50BFA5"/>
<path d="M414.867 385.029C479.901 366.127 541.474 333.66 596.341 289.336L643.559 364.448C580.122 415.697 508.93 453.236 433.734 475.092C427.443 445.077 421.154 415.056 414.867 385.029Z" fill="#3C8F7C"/>
<path d="M601.512 306.426C611.216 322.145 620.923 337.866 630.632 353.588C624.832 358.201 622.78 366.476 626.147 372.238C572.028 413.342 512.641 444.657 450.221 465.004C448.607 458.319 441.801 454.713 434.974 456.759L422.784 400.669C429.065 398.79 432.811 391.696 431.195 385.016C486.011 367.147 538.161 339.639 585.686 303.553C589.048 309.312 596.182 310.668 601.512 306.426Z" fill="#96D9C9"/>
<path d="M494.081 406.179C488.746 389.738 496.652 371.091 511.34 363.487C526.028 355.883 543.426 361.492 550.601 376.985C557.776 392.477 550.544 412.84 534.006 421.373C517.468 429.906 499.4 422.592 494.081 406.179Z" fill="#50BFA5"/>
<path d="M514.768 367.767L516.947 372.893C519.039 371.847 521.258 371.077 523.548 370.602C525.245 370.267 526.813 371.408 527.128 373.202C527.128 373.271 527.155 373.344 527.165 373.416C527.515 375.403 526.195 377.425 524.299 377.769C522.185 378.147 520.147 378.865 518.264 379.895C515.306 381.506 513.779 383.797 514.672 385.969C515.521 388.028 517.74 388.442 522.201 387.65C528.636 386.49 533.641 386.933 535.964 392.115C538.07 396.805 536.419 402.428 531.094 406.786L533.289 411.903C531.496 412.895 529.703 413.879 527.91 414.857C527.247 413.267 526.584 411.679 525.92 410.093C524.239 410.934 522.469 411.587 520.644 412.04C520.22 412.147 519.778 412.162 519.347 412.082C518.917 412.003 518.509 411.831 518.151 411.58C517.794 411.328 517.495 411.002 517.275 410.624C517.056 410.246 516.921 409.825 516.879 409.39C516.771 408.431 517.017 407.465 517.571 406.674C518.125 405.883 518.949 405.321 519.889 405.094C521.646 404.718 523.338 404.085 524.909 403.214C528.405 401.303 528.886 399.157 528.238 397.654C527.475 395.871 525.127 395.799 519.878 396.515C512.59 397.651 508.852 395.927 506.9 391.014C504.948 386.1 506.631 380.311 512.09 376.04C511.326 374.198 510.563 372.355 509.802 370.511C511.454 369.602 513.11 368.687 514.768 367.767Z" fill="#3C8F7C"/>
<path d="M434.68 407.438C490.168 419.789 549.275 420.079 608.894 408.332C608.955 434.445 609.017 460.555 609.082 486.664C540.151 500.25 471.807 499.899 407.665 485.631C416.669 459.565 425.674 433.5 434.68 407.438Z" fill="#3C8F7C"/>
<path d="M604.916 423.825C604.83 440.146 604.74 456.468 604.647 472.791C598.376 473.972 593.162 479.581 592.99 485.486C535.364 495.031 478.355 494.738 424.112 484.618C425.962 478.711 422.679 473.073 416.825 471.824C422.332 455.535 427.837 439.246 433.341 422.957C438.719 424.104 444.636 420.13 446.48 414.239C494.121 423.126 544.185 423.384 594.789 414.999C594.617 420.887 599.14 424.915 604.916 423.825Z" fill="#96D9C9"/>
<path d="M482.329 456.957C485.9 441.895 500.024 430.628 514.061 430.806C528.098 430.983 538.126 442.62 536.308 457.707C534.49 472.794 520.079 485.682 504.294 485.448C488.509 485.214 478.761 471.991 482.329 456.957Z" fill="#50BFA5"/>
<path d="M514.601 435.582C514.354 437.22 514.108 438.857 513.862 440.493C515.831 440.543 517.783 440.867 519.662 441.454C521.039 441.9 521.66 443.436 521.074 444.974C521.053 445.036 521.028 445.098 521.004 445.16C520.359 446.856 518.493 447.885 516.971 447.364C515.261 446.777 513.462 446.487 511.654 446.507C508.793 446.548 506.652 447.689 506.319 449.756C506.002 451.716 507.416 452.978 510.993 454.203C516.161 455.977 519.574 458.41 518.912 463.423C518.318 467.966 514.585 471.669 508.774 472.853C508.532 474.491 508.291 476.128 508.051 477.764C506.314 477.792 504.578 477.812 502.845 477.823C503.081 476.306 503.319 474.79 503.557 473.274C501.973 473.231 500.399 473.003 498.867 472.595C497.332 472.168 496.66 470.533 497.34 468.954C498.042 467.322 499.903 466.368 501.454 466.846C502.904 467.287 504.414 467.498 505.929 467.472C509.32 467.44 510.63 465.96 510.839 464.518C511.092 462.811 509.43 461.774 505.319 460.147C499.542 457.999 497.614 455.089 498.429 450.444C499.244 445.799 503.073 441.978 508.938 440.915C509.218 439.155 509.498 437.397 509.78 435.641C511.386 435.629 512.993 435.609 514.601 435.582Z" fill="#3C8F7C"/>
<path d="M425.032 449.512C438.149 451.945 451.427 453.764 464.863 454.971C464.248 457.528 463.632 460.087 463.013 462.647C449.401 461.419 435.938 459.574 422.625 457.11C423.426 454.579 424.229 452.047 425.032 449.512Z" fill="#50BFA5"/>
<path d="M550.655 455.075C563.86 453.176 577.02 450.648 590.134 447.49C590.374 450.111 590.613 452.731 590.849 455.352C577.56 458.552 564.215 461.116 550.816 463.044L550.655 455.075Z" fill="#50BFA5"/>
<path d="M558.763 371.728C570.319 365.069 581.598 357.842 592.6 350.049C593.794 352.396 594.989 354.74 596.185 357.084C585.037 364.979 573.6 372.307 561.874 379.066C560.836 376.621 559.799 374.174 558.763 371.728Z" fill="#50BFA5"/>
<path d="M515.338 315.426C522.276 304.047 528.698 292.302 534.603 280.19L541.13 284.645C535.147 296.915 528.636 308.824 521.596 320.371L515.338 315.426Z" fill="#50BFA5"/>
<path d="M266.203 38.2317C283.588 35.4688 299.059 41.8726 300.761 52.5347C301.611 57.8671 298.857 63.2532 293.718 67.6539L303.281 82.2523L286.485 72.3929C282.033 74.5899 277.269 76.0921 272.361 76.8474C254.979 79.6102 239.505 73.2065 237.806 62.5444C236.106 51.8822 248.818 40.9972 266.203 38.2317Z" fill="#FAE0B2"/>
<path d="M281.504 57.553C281.272 59.7345 280.398 61.7983 278.991 63.4834C277.585 65.1686 275.709 66.3995 273.602 67.0204C271.495 67.6413 269.25 67.6243 267.153 66.9716C265.055 66.3189 263.198 65.0599 261.817 63.3536C260.436 61.6474 259.593 59.5706 259.394 57.3859C259.196 55.2011 259.65 53.0066 260.7 51.0798C261.751 49.153 263.35 47.5804 265.295 46.5609C267.241 45.5414 269.445 45.1209 271.63 45.3523C273.081 45.5057 274.487 45.943 275.769 46.6392C277.05 47.3354 278.182 48.277 279.099 49.41C280.016 50.543 280.7 51.8453 281.113 53.2425C281.526 54.6397 281.659 56.1044 281.504 57.553Z" fill="#F7CC7F"/>
<path d="M264.369 57.502C264.203 59.0657 264.665 60.6315 265.655 61.8549C266.645 63.0782 268.08 63.8589 269.647 64.0252C270.422 64.1075 271.206 64.0365 271.954 63.8163C272.702 63.596 273.4 63.2308 274.006 62.7415C275.231 61.7533 276.013 60.3196 276.18 58.7558L264.369 57.502Z" fill="#EFEFEF"/>
<path d="M247.514 188.35L249.297 185.082L247.619 181.758C247.575 181.673 247.556 181.578 247.565 181.483C247.573 181.387 247.608 181.296 247.665 181.22C247.722 181.144 247.8 181.085 247.889 181.05C247.979 181.016 248.076 181.007 248.17 181.025L251.824 181.713L254.46 179.089C254.527 179.022 254.613 178.975 254.706 178.953C254.799 178.931 254.897 178.936 254.987 178.968C255.078 178.999 255.158 179.054 255.218 179.129C255.278 179.203 255.317 179.293 255.328 179.387L255.804 183.079L259.112 184.779C259.197 184.823 259.268 184.89 259.316 184.972C259.365 185.054 259.39 185.148 259.389 185.243C259.387 185.339 259.359 185.432 259.307 185.512C259.255 185.592 259.182 185.656 259.096 185.697L255.737 187.292L255.143 190.968C255.128 191.062 255.086 191.15 255.024 191.222C254.961 191.294 254.879 191.347 254.788 191.375C254.697 191.403 254.6 191.404 254.507 191.38C254.415 191.356 254.331 191.306 254.266 191.236L251.703 188.53L248.03 189.099C247.937 189.112 247.841 189.098 247.755 189.06C247.669 189.021 247.595 188.96 247.542 188.883C247.488 188.805 247.457 188.714 247.452 188.62C247.447 188.526 247.469 188.433 247.514 188.35Z" fill="#F47458"/>
<path d="M131.561 119.931C131.482 118.747 131.756 117.567 132.348 116.539C132.941 115.51 133.825 114.681 134.89 114.154C135.955 113.628 137.152 113.428 138.33 113.58C139.508 113.733 140.615 114.231 141.51 115.011C142.405 115.791 143.048 116.818 143.359 117.963C143.669 119.108 143.633 120.32 143.254 121.444C142.876 122.569 142.172 123.556 141.232 124.281C140.291 125.006 139.157 125.437 137.972 125.518C136.38 125.625 134.811 125.096 133.609 124.048C132.407 123.001 131.67 121.52 131.561 119.931Z" fill="#F7CC7F"/>
<path d="M141.753 136.935C141.392 135.19 141.174 133.321 140.58 131.637C140.069 130.19 137.816 130.633 137.929 132.174C138.068 134.078 138.663 136.009 139.061 137.872C139.222 138.627 140.22 138.976 140.879 138.745C141.685 138.46 141.909 137.671 141.753 136.924V136.935Z" fill="#F7CC7F"/>
<path d="M152.049 129.468C150.059 128.292 148.322 126.837 146.485 125.441C145.049 124.367 143.5 126.225 144.681 127.513C146.378 129.369 148.604 130.819 150.753 132.078C151.433 132.481 152.367 132.078 152.711 131.417C152.876 131.068 152.9 130.669 152.776 130.303C152.653 129.937 152.392 129.633 152.049 129.455V129.468Z" fill="#F7CC7F"/>
<path d="M148.279 118.696C148.066 118.85 147.919 119.08 147.87 119.338C147.82 119.596 147.87 119.864 148.01 120.087C148.685 121.308 150.393 121.249 151.608 121.206C152.88 121.154 154.138 120.915 155.341 120.497C157.11 119.891 156.148 117.138 154.373 117.745C150.904 118.945 149.586 117.646 148.279 118.696Z" fill="#F7CC7F"/>
<path d="M146.364 106.997C144.617 109.559 143.186 110.423 143.406 111.83C143.535 112.655 144.186 113.047 144.982 112.867C145.921 112.655 146.434 111.656 146.996 110.955C147.558 110.254 148.072 109.612 148.548 108.896C148.986 108.248 149.048 107.408 148.406 106.85C147.868 106.38 146.792 106.339 146.362 106.992L146.364 106.997Z" fill="#F7CC7F"/>
<path d="M139.55 106.552C138.991 105 138.87 104.436 138.144 103.714C137.512 103.085 136.181 103.485 136.095 104.409C135.99 105.483 136.216 105.888 136.804 107.521C136.868 107.701 136.967 107.867 137.095 108.008C137.223 108.15 137.377 108.266 137.55 108.348C137.722 108.43 137.909 108.478 138.1 108.488C138.291 108.498 138.482 108.471 138.663 108.407C138.843 108.343 139.009 108.245 139.151 108.117C139.293 107.989 139.409 107.835 139.491 107.663C139.574 107.49 139.621 107.304 139.631 107.113C139.641 106.922 139.614 106.732 139.55 106.552Z" fill="#F7CC7F"/>
<path d="M132.19 110.311C129.67 108.393 129.157 107.851 128.156 107.956C127.575 108.018 126.922 108.576 127.048 109.229C127.285 110.442 127.99 110.772 130.308 112.464C130.929 112.92 131.784 112.942 132.319 112.324C132.8 111.771 132.795 110.78 132.179 110.311H132.19Z" fill="#F7CC7F"/>
<path d="M122.063 119.104C121.07 119.641 121.468 121.351 122.544 121.491C123.577 121.625 123.975 121.461 128.979 120.546C129.754 120.403 130.388 119.84 130.324 118.991C130.273 118.272 129.549 117.498 128.769 117.649C123.579 118.578 123.06 118.572 122.063 119.104Z" fill="#F7CC7F"/>
<path d="M129.904 127.301C127.161 129.959 126.761 129.492 125.677 131.117C125.182 131.86 125.997 133.044 126.86 132.886C127.968 132.682 128.264 132.497 129.708 131.353C130.547 130.687 131.348 129.973 132.128 129.232C132.701 128.679 132.545 127.648 131.986 127.159C131.346 126.6 130.488 126.748 129.915 127.301H129.904Z" fill="#F7CC7F"/>
<path d="M260.223 121.902L271.173 125.781L268.333 115.979L260.223 121.902Z" fill="#355389"/>
<path d="M206.609 106.823L197.533 106.627L194.161 98.0052L196.417 97.1191L199.201 104.237L208.575 104.441L210.775 114.717L217.024 114.08L217.07 116.513L208.863 117.345L206.609 106.823Z" fill="#50BFA5"/>
<path d="M552.08 370.052L545.699 324.348C545.486 322.798 544.891 321.325 543.969 320.06C543.047 318.795 541.826 317.778 540.415 317.098L524.428 309.411C522.82 308.632 521.559 307.285 520.889 305.631C500.828 256.415 448.083 221.279 386.163 221.279C327.083 221.279 276.349 253.273 254.395 298.967C254.285 298.985 254.169 298.999 254.046 299.01C253.555 299.041 253.062 299.006 252.58 298.905C251.984 298.791 251.398 298.626 250.829 298.414C250.188 298.174 249.56 297.9 248.947 297.595C247.634 296.914 246.376 296.134 245.182 295.261C244.566 294.816 243.959 294.346 243.364 293.86C243.114 293.656 242.867 293.444 242.625 293.234C242.894 292.998 243.163 292.756 243.41 292.512C244.223 291.726 244.991 290.894 245.709 290.02C246.433 289.153 247.105 288.251 247.734 287.322C248.363 286.393 248.96 285.442 249.509 284.473C249.652 284.231 249.778 283.984 249.918 283.743C250.058 283.501 250.187 283.254 250.316 282.994C250.585 282.481 250.829 281.955 251.063 281.42C251.541 280.335 251.925 279.212 252.212 278.061C252.519 276.843 252.672 275.591 252.666 274.334C252.664 272.948 252.376 271.578 251.822 270.307C251.22 268.963 250.297 267.787 249.133 266.884C247.999 266.013 246.694 265.391 245.303 265.058C243.911 264.714 242.464 264.65 241.046 264.87C239.501 265.1 238.044 265.736 236.824 266.712C236.671 266.838 236.502 266.98 236.362 267.098L236.023 267.431C235.797 267.654 235.566 267.872 235.348 268.105C234.929 268.583 234.496 269.053 234.119 269.577C233.734 270.09 233.375 270.622 233.043 271.172C232.731 271.733 232.406 272.291 232.148 272.879C231.606 274.04 231.185 275.254 230.892 276.501C230.324 278.941 230.148 281.455 230.373 283.949C230.585 286.402 231.113 288.817 231.946 291.135C232.373 292.339 232.898 293.507 233.517 294.625C233.624 294.813 233.732 294.998 233.845 295.186C231.916 295.602 229.925 295.636 227.982 295.288C227.482 295.208 226.993 295.073 226.498 294.95C226.003 294.826 225.519 294.649 225.051 294.445C223.126 293.66 221.355 292.54 219.821 291.137C218.254 289.713 216.867 288.103 215.693 286.342C214.504 284.564 213.45 282.699 212.541 280.762C213.305 282.775 214.218 284.728 215.274 286.605C216.34 288.503 217.636 290.263 219.132 291.846C220.654 293.468 222.452 294.807 224.444 295.798C224.941 296.067 225.468 296.258 225.99 296.475C226.511 296.692 227.065 296.846 227.603 296.977C228.703 297.268 229.829 297.448 230.965 297.514C232.105 297.576 233.249 297.525 234.38 297.361C234.684 297.318 234.988 297.264 235.292 297.205C235.324 297.246 235.361 297.283 235.402 297.326C235.558 297.487 235.698 297.64 235.872 297.807L236.012 297.928L236.472 298.424L236.964 298.934C237.292 299.27 237.62 299.595 237.956 299.917C238.629 300.559 239.317 301.182 240.03 301.797C241.484 303.042 243.032 304.174 244.66 305.182C246.447 306.299 248.38 307.164 250.404 307.752C250.464 307.771 250.528 307.784 250.587 307.8C245.43 321.153 242.786 335.342 242.789 349.654C242.789 382.634 256.684 412.709 279.514 435.44C287.494 443.338 293.369 453.103 296.604 463.847L304.402 490.058C304.794 491.37 305.599 492.521 306.699 493.34C307.798 494.158 309.133 494.601 310.504 494.601H360.92C362.282 494.601 363.616 494.211 364.763 493.477C365.909 492.743 366.821 491.697 367.39 490.461L371.604 481.3C372.111 480.196 372.938 479.27 373.979 478.641C375.019 478.012 376.225 477.71 377.439 477.774C380.308 477.928 383.209 478.006 386.142 478.008C388.901 478.008 391.641 477.937 394.362 477.796C395.575 477.734 396.779 478.037 397.818 478.665C398.857 479.294 399.683 480.219 400.19 481.321L404.051 489.714C404.727 491.172 405.808 492.404 407.165 493.266C408.522 494.128 410.099 494.583 411.707 494.577H459.784C461.594 494.577 463.355 493.994 464.806 492.913C466.257 491.833 467.319 490.313 467.835 488.581L476.835 458.378C479.012 451.05 483.133 444.447 488.762 439.269C501.465 427.618 511.716 413.812 518.759 398.521C520.542 394.642 523.659 391.531 527.545 389.752L545.831 381.385C547.956 380.42 549.712 378.795 550.838 376.753C551.964 374.711 552.399 372.361 552.08 370.052ZM240.535 291.263L240.457 291.159C240.339 291.016 240.229 290.845 240.113 290.678C239.633 289.952 239.213 289.188 238.857 288.393C238.107 286.721 237.574 284.959 237.271 283.152C236.671 279.543 237.136 275.903 239 273.003C239.218 272.63 239.492 272.294 239.747 271.929C239.885 271.76 240.035 271.598 240.175 271.432L240.39 271.182L240.535 271.04C240.965 270.626 241.501 270.338 242.084 270.21C242.786 270.044 243.514 270.018 244.226 270.133C244.938 270.247 245.62 270.501 246.234 270.879C246.806 271.246 247.278 271.749 247.608 272.342C247.968 273.019 248.183 273.763 248.24 274.528C248.393 276.201 248.041 278.128 247.401 279.97C247.239 280.432 247.067 280.894 246.863 281.348C246.771 281.573 246.664 281.807 246.559 282.043C246.454 282.279 246.349 282.513 246.234 282.744C245.798 283.676 245.322 284.583 244.814 285.472C244.306 286.361 243.762 287.225 243.173 288.055C242.592 288.886 241.963 289.683 241.291 290.442C241.049 290.729 240.794 290.998 240.535 291.263Z" fill="#BFE1F0"/>
<path d="M506.136 313.707C506.878 318.105 506.176 321.886 504.574 322.154C502.971 322.423 501.078 319.08 500.33 314.682C499.583 310.284 500.29 306.504 501.893 306.235C503.495 305.967 505.397 309.312 506.136 313.707Z" fill="#184655"/>
<path d="M441.557 240.286C445.402 236.285 468.827 213.844 511.598 212.443C511.954 212.433 512.308 212.514 512.624 212.68C512.94 212.845 513.208 213.089 513.402 213.388C513.596 213.686 513.711 214.03 513.734 214.385C513.757 214.741 513.688 215.096 513.534 215.418C508.497 225.889 492.08 261.229 487.301 286.302C487.209 286.793 486.943 287.235 486.55 287.546C486.158 287.856 485.667 288.015 485.166 287.993C476.583 287.617 440.653 283.544 440.981 241.701C440.985 241.173 441.191 240.667 441.557 240.286Z" fill="#A3D0E4"/>
<path opacity="0.5" d="M468.028 255.472C468.028 254.565 468.069 253.665 468.141 252.787C468.843 244.15 472.796 236.124 478.97 230.035C486.191 222.911 497.206 215.452 512.897 212.851C512.523 212.567 512.062 212.422 511.592 212.44C468.816 213.844 445.394 236.28 441.557 240.289C441.191 240.667 440.985 241.17 440.981 241.696C440.653 283.539 476.583 287.609 485.166 287.988C485.667 288.01 486.158 287.851 486.55 287.54C486.943 287.229 487.209 286.788 487.301 286.296C487.433 285.617 487.57 284.927 487.718 284.234C476.147 280.55 469.44 275.427 468.028 255.472Z" fill="#BFE1F0"/>
<path opacity="0.5" d="M523.769 392.096C523.769 392.096 506.913 395.742 458.103 402.03C386.9 411.218 330.783 365.909 340.499 302.092C345.96 266.204 366.497 238.049 388.347 221.273C387.623 221.273 386.897 221.255 386.171 221.255C327.091 221.255 276.357 253.249 254.403 298.942C254.293 298.961 254.177 298.975 254.054 298.985C253.563 299.017 253.07 298.982 252.588 298.881C251.992 298.766 251.406 298.602 250.837 298.389C250.196 298.149 249.568 297.876 248.955 297.57C247.642 296.89 246.384 296.11 245.19 295.237C244.574 294.791 243.967 294.322 243.372 293.836C243.122 293.631 242.875 293.419 242.633 293.21C242.902 292.974 243.171 292.732 243.418 292.488C244.232 291.702 244.999 290.87 245.717 289.996C246.441 289.129 247.113 288.227 247.742 287.298C248.372 286.369 248.968 285.418 249.517 284.449C249.66 284.207 249.786 283.96 249.926 283.718C250.066 283.477 250.195 283.23 250.324 282.969C250.593 282.457 250.837 281.93 251.071 281.396C251.549 280.311 251.934 279.187 252.22 278.037C252.527 276.819 252.68 275.567 252.674 274.31C252.672 272.924 252.384 271.553 251.83 270.283C251.228 268.938 250.305 267.763 249.141 266.859C248.007 265.989 246.702 265.367 245.311 265.034C243.919 264.69 242.472 264.626 241.054 264.846C239.509 265.076 238.052 265.712 236.832 266.688C236.679 266.814 236.51 266.956 236.37 267.074L236.031 267.407C235.805 267.63 235.574 267.847 235.356 268.081C234.937 268.559 234.504 269.029 234.127 269.552C233.742 270.066 233.383 270.598 233.051 271.147C232.74 271.708 232.414 272.267 232.156 272.855C231.614 274.016 231.193 275.23 230.9 276.477C230.332 278.916 230.156 281.431 230.381 283.925C230.593 286.378 231.122 288.793 231.954 291.11C232.381 292.315 232.906 293.482 233.525 294.601C233.632 294.789 233.74 294.974 233.853 295.162C231.924 295.577 229.933 295.612 227.991 295.264C227.49 295.183 227.001 295.049 226.506 294.926C226.011 294.802 225.527 294.625 225.059 294.421C223.134 293.636 221.363 292.516 219.829 291.113C218.262 289.689 216.875 288.079 215.701 286.318C214.512 284.539 213.458 282.674 212.549 280.738C213.313 282.751 214.226 284.704 215.282 286.581C216.348 288.479 217.644 290.239 219.141 291.822C220.662 293.444 222.46 294.782 224.452 295.774C224.949 296.043 225.476 296.233 225.998 296.451C226.52 296.668 227.074 296.821 227.611 296.953C228.711 297.243 229.837 297.423 230.973 297.49C232.113 297.552 233.257 297.5 234.388 297.337C234.692 297.294 234.996 297.24 235.3 297.181C235.332 297.221 235.37 297.259 235.41 297.302C235.566 297.463 235.706 297.616 235.88 297.782L236.02 297.903L236.48 298.4L236.972 298.91C237.3 299.246 237.628 299.571 237.965 299.893C238.637 300.535 239.325 301.158 240.038 301.772C241.492 303.018 243.04 304.15 244.669 305.158C246.455 306.275 248.388 307.14 250.413 307.728C250.472 307.746 250.536 307.76 250.595 307.776C245.438 321.129 242.794 335.318 242.797 349.63C242.797 382.61 256.692 412.684 279.522 435.415C287.502 443.314 293.377 453.079 296.612 463.823L304.41 490.034C304.802 491.346 305.607 492.497 306.707 493.316C307.806 494.134 309.141 494.576 310.512 494.577H360.928C362.29 494.577 363.624 494.187 364.771 493.453C365.917 492.719 366.829 491.672 367.398 490.436L371.612 481.275C372.119 480.172 372.946 479.245 373.987 478.617C375.027 477.988 376.233 477.686 377.447 477.75C380.316 477.904 383.217 477.982 386.15 477.983C388.909 477.983 391.649 477.913 394.37 477.771C395.583 477.71 396.787 478.013 397.826 478.641C398.865 479.269 399.691 480.195 400.198 481.297L404.059 489.69C404.731 491.151 405.809 492.388 407.165 493.254C408.521 494.12 410.097 494.579 411.707 494.577H459.784C461.593 494.577 463.355 493.993 464.806 492.913C466.257 491.833 467.319 490.313 467.835 488.581L476.835 458.378C479.011 451.05 483.132 444.447 488.762 439.268C501.465 427.618 511.716 413.812 518.759 398.521C519.909 396.022 521.623 393.823 523.766 392.096H523.769ZM240.535 291.263L240.457 291.159C240.339 291.016 240.229 290.844 240.113 290.678C239.633 289.952 239.213 289.187 238.857 288.393C238.107 286.721 237.574 284.959 237.271 283.152C236.671 279.543 237.136 275.902 239 273.003C239.218 272.629 239.492 272.294 239.747 271.929C239.885 271.759 240.035 271.598 240.175 271.432L240.39 271.182L240.535 271.04C240.965 270.626 241.501 270.338 242.084 270.21C242.786 270.044 243.514 270.018 244.226 270.132C244.938 270.247 245.62 270.501 246.234 270.879C246.806 271.246 247.278 271.748 247.608 272.342C247.968 273.019 248.183 273.763 248.24 274.528C248.393 276.2 248.041 278.128 247.401 279.97C247.239 280.432 247.067 280.894 246.863 281.348C246.771 281.573 246.664 281.807 246.559 282.043C246.454 282.279 246.349 282.513 246.234 282.744C245.798 283.675 245.322 284.583 244.814 285.472C244.306 286.36 243.762 287.225 243.173 288.055C242.592 288.885 241.963 289.682 241.291 290.442C241.049 290.729 240.794 290.997 240.535 291.263Z" fill="#88C0D9"/>
<path opacity="0.2" d="M323.423 254.731C327.647 261.293 321.508 272.753 309.708 280.327C297.908 287.902 284.917 288.723 280.692 282.161C276.468 275.599 282.607 264.137 294.407 256.565C306.207 248.993 319.201 248.169 323.423 254.731Z" fill="white"/>
<path d="M421.119 240.189C379.534 226.614 342.927 239.999 342.561 240.136L339.856 234.876C340.259 234.725 349.897 231.16 365.042 229.355C378.988 227.696 400.458 227.296 423.523 234.825L421.119 240.189Z" fill="#184655"/>
<path d="M294.138 243.444C294.138 243.444 292.64 245.884 292.775 246.607C292.909 247.329 294.711 254.981 295.706 255.489C296.701 255.996 299.202 255.894 298.645 256.887C298.22 257.639 293.729 258.638 290.731 259.223C289.857 259.393 287.033 252.795 286.428 251.872C285.562 250.529 283.516 247.53 283.709 246.394C283.801 245.841 284.594 244.55 285.834 243.221C287.138 241.822 288.06 239.193 288.06 239.193L294.138 243.444Z" fill="#F48C7F"/>
<path d="M315.888 242.748C315.888 242.748 315.382 248.218 315.382 248.231C315.452 249.061 315.428 251.158 315.613 251.88C316.302 254.597 327.298 246.472 324.243 245.973C323.974 245.925 322.965 245.253 322.648 244.348C322.161 242.955 322.866 240.877 322.866 240.877L315.888 242.748Z" fill="#F7A491"/>
<path d="M311.429 144.386C311.429 144.386 314.605 153.16 314.64 153.295C318.332 167.855 328.435 195.565 328.581 198.44C328.93 205.456 323.135 243.167 323.135 243.167L315.097 244.209L314.922 200.857L307.019 185.389L293.498 154.283L311.429 144.386Z" fill="#3C8F7C"/>
<path d="M287.264 158.965L287.947 167.872L292.847 203.993L286.296 242.163C286.296 242.163 289.706 246.615 293.049 246.515L308.377 205.147L312.04 156.267L308.982 146.373L287.264 158.965Z" fill="#50BFA5"/>
<path d="M285.923 243.148C285.923 243.148 293.775 254.876 295.727 255.045C296.246 255.091 298.64 254.93 299.325 255.832C299.532 256.101 299.971 257.462 299.971 257.462L290.12 260.292C290.12 260.292 287.458 254.194 286.356 251.821C286.356 251.821 282.279 246.362 282.419 245.739C282.558 245.116 285.923 243.148 285.923 243.148Z" fill="#13375B"/>
<path d="M315.124 253.271L315.423 248.169C315.423 248.169 318.69 248.669 320.112 248.089C321.535 247.509 324.205 245.941 324.205 245.941C330.587 246.386 335.65 246.107 335.166 247.885L315.124 253.271Z" fill="#13375B"/>
<path d="M376.603 113.35C373.914 115.208 374.309 115.603 373.96 115.831C373.543 116.099 367.022 115.965 367.022 115.965C367.022 115.965 347.792 115.697 346.754 115.646L328.782 106.863L322.024 114.969C322.024 114.969 341.822 123.966 342.938 124.248C344.054 124.53 370.098 121.727 372.405 121.563C372.405 121.563 375.213 122.42 376.996 122.906C378.779 123.392 380.674 123.005 381.196 123.059C382.543 123.088 383.888 122.944 385.198 122.629C387.08 122.189 385.109 121.708 385.109 121.708C385.109 121.708 381.495 121.872 381.532 121.571C381.562 121.34 383.541 121.373 385.623 120.911L387.169 120.556C388.441 120.258 388.632 119.359 387.257 119.45C386.632 119.485 386.01 119.567 385.397 119.695C384.784 119.845 384.173 119.775 383.641 119.818C382.581 119.904 381.809 119.982 381.831 119.934C381.852 119.885 381.635 119.732 382.199 119.59C382.88 119.415 384.396 119.378 385.378 119.039C385.932 118.849 387.115 118.524 387.115 118.524C387.115 118.524 389.135 117.788 389.019 117.512C388.766 116.908 387.405 117.144 386.698 117.512C386.125 117.496 384.888 117.874 384.888 117.874C384.888 117.874 382.229 118.057 382.199 117.665C382.199 117.506 383.641 117.066 385.128 116.481C386.698 115.86 387.801 115.337 387.742 115.004C387.647 114.467 386.351 114.875 386.351 114.875C386.351 114.875 385.211 115.227 384.824 115.313C384.369 115.415 382.987 115.611 382.987 115.611C382.987 115.611 378.147 116.059 378.147 115.686C378.147 115.313 378.529 114.343 378.819 114.214C379.109 114.086 379.768 114.12 380.059 113.984C380.349 113.847 380.949 113.495 380.817 113.108C380.685 112.722 378.714 112.735 378.714 112.735C378.714 112.735 377.378 112.813 376.603 113.35Z" fill="#F8A492"/>
<path d="M340.773 111.897C340.773 111.897 339.184 115.772 338.417 117.165C337.78 118.323 334.139 122.839 334.139 122.839C334.139 122.839 326.012 117.89 322.237 115.264C317.665 112.077 312.825 106.404 313.336 105.942C314.756 104.661 316.885 103.276 319.445 103.238C328.309 103.104 340.773 111.897 340.773 111.897Z" fill="white"/>
<path d="M375.673 118.408C377.017 118.011 378.176 117.168 378.184 115.764C378.953 117.05 377.219 118.696 375.673 118.408Z" fill="#FE875E"/>
<path d="M326.73 104.616C322.651 102.913 314.836 101.447 314.836 101.447C314.836 101.447 309.974 100.145 308.337 100.33C305.916 100.599 296.098 96.4855 286.216 160.517L316.74 160.568C314.715 154.573 321.89 138.014 322.705 135.174C324.536 128.826 330.605 106.227 326.73 104.616Z" fill="#2B6D8D"/>
<path d="M319.827 93.0996L314.242 101.31C314.242 101.31 317.173 108.023 320.524 108.525C323.334 108.952 323.302 104.731 323.302 104.731C323.302 104.731 324.28 99.3771 325.878 97.0949C327.475 94.8126 319.827 93.0996 319.827 93.0996Z" fill="#F7A491"/>
<path d="M319.913 96.625C321.142 98.2146 322.628 99.5877 324.31 100.687C324.724 99.3583 325.251 98.0024 325.875 97.1056C326.609 96.0531 325.378 95.1214 323.837 94.4206C321.758 93.6366 319.825 93.1077 319.825 93.1077L318.749 94.6864C318.932 95.2879 319.599 96.2115 319.913 96.625Z" fill="#F47458"/>
<path d="M318.448 79.8385C318.241 79.7392 315.651 90.6778 318.206 94.0153C320.76 97.3528 326.225 98.9101 328.457 96.7003C330.923 94.2623 331.979 82.3302 327.849 78.7484C323.718 75.1666 318.448 79.8385 318.448 79.8385Z" fill="#F7A491"/>
<path d="M324.229 74.0281C320.717 73.8053 315.979 75.5156 313.441 78.8933C310.318 83.0443 311.983 88.9648 314.877 91.682C317.77 94.3992 317.178 96.9956 317.178 96.9956L318.77 94.6597C318.77 94.6597 319.101 92.0391 318.502 90.3637C317.902 88.6882 320.384 87.8532 321.175 86.5859C321.788 85.6085 322.043 83.2591 323.014 81.6401C323.014 81.6401 326.386 79.4921 328.618 79.6478C332.429 79.8948 329.255 74.3449 324.229 74.0281Z" fill="#13375B"/>
<path d="M320.026 88.7634C320.613 89.9421 320.516 91.1799 319.806 91.5317C319.096 91.8834 318.05 91.2121 317.464 90.0361C316.877 88.8601 316.974 87.6196 317.681 87.2678C318.389 86.9161 319.44 87.5874 320.026 88.7634Z" fill="#F7A491"/>
<path d="M329.551 91.9639L324.98 91.051C324.98 91.051 324.738 92.8339 326.736 93.293C329.175 93.8569 329.551 91.9639 329.551 91.9639Z" fill="white"/>
<path d="M424.784 130.273C428.094 108.501 413.243 88.1947 391.614 84.9171C369.985 81.6395 349.768 96.6318 346.459 118.403C343.15 140.175 358.001 160.481 379.629 163.759C401.258 167.036 421.475 152.044 424.784 130.273Z" fill="#E59F39"/>
<path d="M419.475 129.468C422.335 110.649 409.499 93.0965 390.804 90.2635C372.109 87.4305 354.634 100.389 351.774 119.208C348.913 138.027 361.75 155.579 380.445 158.412C399.14 161.245 416.614 148.286 419.475 129.468Z" fill="#F7CC7F"/>
<path d="M378.593 149.568L379.644 142.764C372.166 140.248 368.74 134.529 369.657 128.59C370.582 122.586 374.358 119.41 382.74 117.831C388.75 116.572 391.305 115.53 391.643 113.328C391.931 111.462 390.818 109.376 386.475 108.708C384.489 108.394 382.468 108.37 380.475 108.638C379.955 108.707 379.427 108.67 378.921 108.53C378.415 108.391 377.943 108.151 377.532 107.825C377.122 107.5 376.781 107.095 376.53 106.634C376.279 106.174 376.124 105.669 376.073 105.147C375.971 104.126 376.275 103.107 376.921 102.309C377.567 101.511 378.502 101 379.523 100.886C381.597 100.682 383.687 100.702 385.757 100.945L386.663 95.0758L393.211 96.0827L392.232 102.422C399.165 104.922 402.599 110.163 401.693 116.032C400.682 122.508 395.303 125.091 387.774 126.394C382.573 127.301 380.188 128.574 379.795 131.109C379.384 133.777 381.764 135.646 385.571 136.231C388.042 136.595 390.556 136.551 393.012 136.1C393.542 136.008 394.085 136.026 394.607 136.153C395.129 136.281 395.619 136.514 396.047 136.839C396.474 137.164 396.83 137.574 397.092 138.043C397.354 138.512 397.516 139.029 397.568 139.564L397.592 139.811C397.689 140.797 397.406 141.784 396.802 142.57C396.197 143.357 395.315 143.884 394.335 144.045C391.616 144.472 388.851 144.537 386.115 144.238L385.136 150.575L378.593 149.568Z" fill="#E59F39"/>
<g style="mix-blend-mode:multiply" opacity="0.3">
<path d="M389.656 90.1005C394.669 90.6914 399.487 92.3878 403.762 95.0668C408.037 97.7458 411.662 101.34 414.375 105.59C408.808 98.9512 400.909 94.6897 392.297 93.6797C373.521 91.4645 356.48 104.984 354.232 123.894C353.271 131.85 355.116 139.891 359.449 146.636C356.404 143.021 354.135 138.821 352.783 134.294C351.432 129.768 351.026 125.012 351.591 120.323C353.837 101.412 370.881 87.8854 389.656 90.1005Z" fill="#F7CC7F"/>
</g>
<path d="M361.896 137.99C360.466 137.163 359.247 135.574 357.435 134.768C356.655 134.46 355.843 134.239 355.015 134.108C347.835 133.498 329.175 132 328.293 131.613C327.247 131.157 309.361 119.343 309.361 119.343L317.348 113.038L333.483 124.315C334.491 124.549 353.296 128.198 353.296 128.198C353.296 128.198 357.091 129.041 359.086 129.331C359.956 129.394 360.829 129.371 361.694 129.264C362.646 129.162 364.572 129.194 365.018 129.32C365.535 129.468 366.594 129.806 367.229 130.018C367.863 130.231 368.616 130.453 368.939 130.606C369.274 130.7 369.621 130.743 369.969 130.733C370.084 130.735 370.196 130.771 370.29 130.838C370.384 130.904 370.456 130.998 370.496 131.106C370.536 131.213 370.543 131.331 370.515 131.443C370.487 131.554 370.426 131.655 370.34 131.731C369.972 132.054 369.264 132.062 368.831 132.064C367.6 132.064 365.76 131.38 365.771 131.565C365.782 131.75 368.331 133.893 368.608 134.156C368.885 134.419 371.835 136.922 372.249 137.595C372.663 138.269 372.314 138.64 371.87 138.53C371.488 138.439 367.153 135.284 367.153 135.284C367.153 135.284 366.599 134.881 366.632 135.246C366.664 135.611 370.596 138.484 371.104 139.021C371.612 139.558 371.695 140.157 371.002 140.213C370.157 140.283 366.161 136.956 366.161 136.956C366.161 136.956 365.653 136.548 365.564 136.817C365.475 137.085 368.864 139.475 369.06 139.84C369.256 140.205 369.098 140.737 368.452 140.646C367.694 140.552 364.15 137.552 364.15 137.552C364.15 137.552 363.816 137.402 363.832 137.612C363.848 137.821 366.591 140.063 366.691 140.533C366.706 140.582 366.711 140.633 366.705 140.684C366.7 140.735 366.684 140.785 366.659 140.829C366.634 140.874 366.6 140.913 366.559 140.944C366.518 140.976 366.472 140.998 366.422 141.011C365.691 141.368 363.327 138.814 361.896 137.99Z" fill="#F8A492"/>
<path d="M315.974 126.917C315.974 126.917 318.451 124.6 319.916 122.852C320.898 121.684 325.071 116.363 325.071 116.363C325.071 116.363 317.972 107.548 314.675 104.734C302.574 94.4073 300.229 106.613 300.331 109.148C300.565 114.824 315.974 126.917 315.974 126.917Z" fill="white"/>
<path d="M138.945 472.917V491.374C138.945 494.357 172.29 496.776 213.405 496.776C254.519 496.776 287.861 494.359 287.861 491.374V472.917H138.945Z" fill="#598DA6"/>
<path d="M192.83 496.567V472.917H138.945V491.374C138.945 493.839 161.714 495.92 192.83 496.567Z" fill="#2B6D8D"/>
<path d="M195.336 496.615C201.121 496.72 207.168 496.776 213.405 496.776C222.687 496.776 231.575 496.652 239.758 496.427V472.917H195.336V496.615Z" fill="#2B6D8D"/>
<path d="M242.754 496.341C269.282 495.514 287.861 493.602 287.861 491.374V472.917H242.754V496.341Z" fill="#EAB054"/>
<path d="M213.405 478.123C254.527 478.123 287.864 475.705 287.864 472.721C287.864 469.738 254.527 467.319 213.405 467.319C172.282 467.319 138.945 469.738 138.945 472.721C138.945 475.705 172.282 478.123 213.405 478.123Z" fill="#598DA6"/>
<path d="M213.405 476.467C247.268 476.467 274.72 474.79 274.72 472.721C274.72 470.652 247.268 468.975 213.405 468.975C179.541 468.975 152.09 470.652 152.09 472.721C152.09 474.79 179.541 476.467 213.405 476.467Z" fill="#F7CC7F"/>
<path d="M126.207 453.389V471.843C126.207 474.829 159.552 477.245 200.663 477.245C241.775 477.245 275.123 474.829 275.123 471.843V453.389H126.207Z" fill="#598DA6"/>
<path d="M180.092 477.039V453.389H126.207V471.843C126.207 474.311 148.978 476.389 180.092 477.039Z" fill="#2B6D8D"/>
<path d="M182.592 477.087C188.377 477.192 194.425 477.245 200.658 477.245C209.944 477.245 218.829 477.125 227.012 476.899V453.389H182.592V477.087Z" fill="#2B6D8D"/>
<path d="M230.015 476.81C256.544 475.983 275.123 474.072 275.123 471.843V453.389H230.015V476.81Z" fill="#EAB054"/>
<path d="M200.663 458.595C241.786 458.595 275.123 456.177 275.123 453.193C275.123 450.21 241.786 447.791 200.663 447.791C159.541 447.791 126.204 450.21 126.204 453.193C126.204 456.177 159.541 458.595 200.663 458.595Z" fill="#598DA6"/>
<path d="M200.663 456.939C234.527 456.939 261.979 455.262 261.979 453.193C261.979 451.124 234.527 449.448 200.663 449.448C166.8 449.448 139.348 451.124 139.348 453.193C139.348 455.262 166.8 456.939 200.663 456.939Z" fill="#F7CC7F"/>
<path d="M134.694 433.34V451.794C134.694 454.78 168.039 457.196 209.153 457.196C250.267 457.196 283.61 454.78 283.61 451.794V433.34H134.694Z" fill="#598DA6"/>
<path d="M188.578 456.987V433.338H134.694V451.792C134.694 454.262 157.462 456.34 188.578 456.987Z" fill="#2B6D8D"/>
<path d="M191.085 457.038C196.869 457.143 202.917 457.196 209.153 457.196C218.436 457.196 227.324 457.076 235.52 456.85V433.34H191.085V457.038Z" fill="#2B6D8D"/>
<path d="M238.502 456.761C265.031 455.934 283.61 454.023 283.61 451.794V433.34H238.502V456.761Z" fill="#2B6D8D"/>
<path d="M209.153 438.546C250.276 438.546 283.613 436.128 283.613 433.144C283.613 430.161 250.276 427.742 209.153 427.742C168.03 427.742 134.694 430.161 134.694 433.144C134.694 436.128 168.03 438.546 209.153 438.546Z" fill="#598DA6"/>
<path d="M209.153 436.89C243.016 436.89 270.468 435.213 270.468 433.144C270.468 431.076 243.016 429.399 209.153 429.399C175.29 429.399 147.838 431.076 147.838 433.144C147.838 435.213 175.29 436.89 209.153 436.89Z" fill="#F7CC7F"/>
<path d="M126.207 413.565V432.017C126.207 435 159.552 437.419 200.663 437.419C241.775 437.419 275.123 435.002 275.123 432.017V413.56L126.207 413.565Z" fill="#598DA6"/>
<path d="M180.092 437.215V413.565H126.207V432.017C126.207 434.487 148.978 436.581 180.092 437.215Z" fill="#2B6D8D"/>
<path d="M182.592 437.263C188.377 437.368 194.425 437.424 200.658 437.424C209.944 437.424 218.829 437.301 227.012 437.075V413.565H182.592V437.263Z" fill="#2B6D8D"/>
<path d="M230.015 436.987C256.544 436.162 275.123 434.248 275.123 432.022V413.565H230.015V436.987Z" fill="#2B6D8D"/>
<path d="M200.663 418.771C241.786 418.771 275.123 416.353 275.123 413.369C275.123 410.386 241.786 407.967 200.663 407.967C159.541 407.967 126.204 410.386 126.204 413.369C126.204 416.353 159.541 418.771 200.663 418.771Z" fill="#598DA6"/>
<path d="M200.663 417.115C234.527 417.115 261.979 415.438 261.979 413.369C261.979 411.301 234.527 409.624 200.663 409.624C166.8 409.624 139.348 411.301 139.348 413.369C139.348 415.438 166.8 417.115 200.663 417.115Z" fill="#BFE1F0"/>
<path d="M371.919 447.713H241.476V495.114H371.919V447.713Z" fill="#50BFA5"/>
<path d="M371.919 454.622H241.476V460.719H371.919V454.622Z" fill="#96D9C9"/>
<path d="M371.919 466.532H241.476V472.63H371.919V466.532Z" fill="#96D9C9"/>
<path d="M371.919 478.443H241.476V484.541H371.919V478.443Z" fill="#96D9C9"/>
<path d="M371.919 489.016H241.476V495.114H371.919V489.016Z" fill="#96D9C9"/>
<path d="M323.358 447.713H296.23V495.114H323.358V447.713Z" fill="#BFE1F0"/>
<path d="M243.058 447.713H223.36V495.114H243.058V447.713Z" fill="#3C8F7C"/>
<path d="M377.872 360.48C377.746 360.97 377.553 361.44 377.297 361.876C375.638 364.889 371.789 369.19 371.789 369.19L368.813 362.494C368.813 362.494 369.299 360.391 370.141 357.392C373.016 358.133 375.753 358.568 377.872 360.48Z" fill="#F8A492"/>
<path d="M360.804 354.672C360.804 354.672 377.41 361.812 377.945 361.675C378.292 361.586 384.757 350.782 384.826 340.622C384.859 335.928 379.986 330.285 374.53 331.402C371.79 331.963 371.841 332.725 367.775 338.608C363.709 344.491 360.804 354.672 360.804 354.672Z" fill="white"/>
<path d="M346.63 482.672C346.63 482.672 347.025 489.183 347.028 489.196C347.173 490.023 347.743 492.066 347.743 492.816C347.743 495.64 334.316 490.421 337.326 489.169C337.594 489.057 339.025 488.2 339.114 487.239C339.251 485.757 339.601 482.763 339.601 482.763L346.63 482.672Z" fill="#F7A491"/>
<path d="M337.358 489.143C337.358 489.143 340.509 490.007 342.126 490.217C343.742 490.426 345.869 488.606 347.009 489.105C348.268 489.642 348.217 494.51 348.217 494.51C348.217 494.51 331.313 495.895 326.561 494.464C324.676 493.9 330.915 491.154 337.358 489.143Z" fill="#355389"/>
<path d="M374.097 482.672C374.097 482.672 374.492 489.183 374.492 489.196C374.637 490.023 375.207 492.066 375.207 492.816C375.207 495.64 361.781 490.421 364.79 489.169C365.059 489.057 366.914 487.558 367.003 486.6C367.14 485.118 367.068 482.763 367.068 482.763L374.097 482.672Z" fill="#F7A491"/>
<path d="M364.825 489.143C364.825 489.143 367.976 490.007 369.59 490.217C371.203 490.426 373.333 488.606 374.476 489.105C375.732 489.642 375.783 494.51 375.783 494.51C375.783 494.51 358.801 496.121 354.025 494.464C352.172 493.822 358.379 491.154 364.825 489.143Z" fill="#355389"/>
<path d="M369.993 364.086L358.161 347.546C358.11 347.401 358.002 347.106 357.838 346.652C357.244 345.012 356.004 341.596 354.926 338.197L354.912 338.162C354.574 336.976 353.856 334.903 353.159 332.9C352.387 330.671 351.427 327.906 351.392 327.436C351.422 327.355 351.478 327.21 351.554 327.02C351.987 325.894 352.573 323.218 352.78 322.055C352.912 321.314 353.049 319.512 352.161 319.512C350.774 319.512 351.435 321.311 350.795 322.434C350.39 321.204 350.069 319.948 349.835 318.675L349.604 315.16C349.558 314.891 349.841 312.955 348.867 312.955H348.822C347.948 313.02 347.966 315.082 347.603 318.57C347.49 318.17 347.375 317.684 347.289 317.227C347.233 316.607 347.134 315.992 346.993 315.385C347.168 314.413 347.066 312.88 346.028 313.025C345.509 313.098 345.552 315.238 345.552 315.238C345.552 315.53 345.587 317.794 345.573 318.24C345.466 317.48 345.049 314.244 344.229 314.244C343.554 314.244 343.5 315.114 343.513 315.804C343.513 316.212 343.946 319.719 343.97 320.127C343.653 319.59 343.274 316.505 342.959 316.505C341.644 316.505 342.12 320.898 342.604 322.044C342.667 322.245 342.716 322.449 342.752 322.656C342.951 323.8 343.333 324.904 343.882 325.927C344.707 327.336 345.847 329.581 346.033 329.925C346.162 330.625 346.571 333.147 347.055 336.312C347.267 337.655 347.501 339.156 347.743 340.697C347.789 341.03 348.034 342.09 348.969 346.067C350.249 351.507 350.384 351.743 350.44 351.842C350.994 352.825 363.746 370.1 364.287 370.85L364.607 371.282L369.993 364.086Z" fill="#F7A491"/>
<path d="M347.999 325.513C347.999 325.513 348.959 323.062 350.666 323.056C350.368 322.962 350.052 322.941 349.743 322.994C349.435 323.046 349.144 323.172 348.894 323.36C348.077 324.007 347.999 325.513 347.999 325.513Z" fill="#F47458"/>
<path d="M372.852 320.777L374.374 330.389C374.374 330.389 368.573 335.04 365.19 334.06C362.353 333.235 364.3 329.533 364.3 329.533C364.3 329.533 365.812 324.402 365.346 321.711C364.881 319.021 372.852 320.777 372.852 320.777Z" fill="#F7A491"/>
<path d="M371.757 323.682C369.67 324.612 367.459 325.235 365.193 325.529C365.408 324.187 365.529 322.761 365.346 321.711C365.134 320.471 366.715 320.175 368.482 320.218C370.792 320.417 372.852 320.777 372.852 320.777L373.142 322.624C372.749 323.059 372.28 323.417 371.757 323.682Z" fill="#FE875E"/>
<path d="M380.171 309.691C380.411 309.691 377.878 320.431 373.96 322.275C370.042 324.12 364.195 323.161 363.101 320.267C361.885 317.069 366.312 306.114 371.822 304.723C377.332 303.332 380.171 309.691 380.171 309.691Z" fill="#F7A491"/>
<path d="M375.635 299.823C377.859 301.109 379.625 303.057 380.685 305.395C382.156 306.09 383.934 307.596 384.786 311.653C385.835 316.642 382.097 320.487 378.149 321.641C374.202 322.796 373.578 325.4 373.578 325.4L373.129 322.589C373.129 322.589 374.008 320.141 375.331 318.916C376.654 317.692 374.704 315.904 374.524 314.448C374.393 313.326 375.221 311.148 375.041 309.309C375.041 309.309 372.844 305.983 370.676 305.161C367 303.77 371.62 297.498 375.635 299.823Z" fill="#13375B"/>
<path d="M373.97 316.328C373.457 317.568 373.667 318.801 374.438 319.077C375.21 319.354 376.248 318.578 376.759 317.337C377.27 316.097 377.063 314.865 376.294 314.588C375.525 314.311 374.481 315.087 373.97 316.328Z" fill="#F7A491"/>
<path d="M359.374 364.355L336.562 360.641C336.562 360.641 339.16 354.119 340.085 354.119C341.01 354.119 357.333 361.232 357.333 361.232L358.632 363.834L359.374 364.355Z" fill="#F8A492"/>
<path d="M371.055 379.97C371.055 379.97 373.333 390.955 372.4 399.281C371.467 407.607 371.4 437.193 371.4 437.193L374.938 484.53L366.543 484.712C366.543 484.712 356.593 437.4 356.771 438.614C356.948 439.827 353.433 405.301 353.433 405.301L365.303 378.929L371.055 379.97Z" fill="#13375B"/>
<path d="M368.831 379.45C368.831 379.45 370.316 389.338 368.46 393.68C366.605 398.022 352.554 440.576 352.369 444.045C352.183 447.514 347.509 485.872 347.509 485.872L337.748 485.604L335.634 442.963L340.058 389.368L344.36 375.817L368.831 379.45Z" fill="#355389"/>
<path d="M374.374 330.389C374.374 330.389 371.954 331.968 369.719 331.785C367.484 331.603 364.3 329.533 364.3 329.533L364.741 328.04C364.741 328.04 370.55 327.194 370.698 327.285C370.846 327.377 374.374 330.389 374.374 330.389Z" fill="#F7A491"/>
<path d="M348.714 353.797C348.714 353.797 340.085 361.924 336.191 360.536C332.297 359.148 330.686 354.404 340.187 347.463C348.692 341.263 348.714 353.797 348.714 353.797Z" fill="#F8A492"/>
<path d="M342.865 363.834C344.148 356.871 353.436 335.206 354.178 331.216C354.539 329.275 359.557 329.232 364.322 329.484C369.361 329.753 374.371 330.389 374.371 330.389C374.371 330.389 378.832 331.122 380.796 332.959C382.759 334.795 383.28 339.875 380.459 349.52C378.23 357.132 375.468 361.312 374.102 366.857C373.833 368.718 373.589 370.551 373.274 372.697C372.771 380.988 373.274 391.943 373.274 391.943C373.274 391.943 348.98 396.975 339.891 389.338C339.907 389.338 341.556 370.968 342.865 363.834Z" fill="#2B6D8D"/>
<path d="M336.68 348.865C336.68 348.865 346.213 356.721 346.77 356.721C347.127 356.721 360.374 346.993 363.442 339C365.131 334.58 361.587 329.637 357.526 329.653C354.719 329.653 353.471 330.386 347.907 335.072C342.343 339.757 336.68 348.865 336.68 348.865Z" fill="white"/>
<path d="M364.378 316.417C364.378 316.417 363.875 317.689 365.287 318.395C367.008 319.257 367.635 317.931 367.635 317.931L364.378 316.417Z" fill="white"/>
<path d="M190.122 208.388C190.122 208.388 189.245 212.684 188.549 214.276C188.183 215.109 186.572 218.317 186.572 218.317L185.819 227.036L179.22 226.16C179.22 226.16 181.452 219.877 180.697 217.99C180.1 216.505 179.731 213.39 179.769 212.62C179.903 209.967 190.122 208.388 190.122 208.388Z" fill="#F7A491"/>
<path d="M107.834 213.707C107.834 213.707 114.525 218.019 115.81 219.187C116.485 219.802 119.271 222.09 119.271 222.09L123.528 229.761L129.205 226.316C129.205 226.316 124.577 221.467 124.507 219.44C124.445 217.842 123.507 214.846 123.163 214.15C121.936 211.774 107.834 213.707 107.834 213.707Z" fill="#F7A491"/>
<path d="M161.206 240.367C161.206 240.367 157.766 236.782 155.002 241.143C155.002 241.143 152.872 239.961 151.377 242.069C151.377 242.069 147.526 240.922 146.593 246.615C146.593 246.615 144.611 246.244 144.35 248.575C144.184 249.939 144.516 251.317 145.283 252.457C145.283 252.457 144.17 253.281 144.676 255.411C145.106 257.231 146.631 257.508 146.631 257.508C146.631 257.508 147.039 260.577 148.387 261.5C149.734 262.424 151.563 261.981 151.563 261.981C151.563 261.981 152.049 263.645 153.617 263.498C155.185 263.35 157.132 261.871 158.888 262.537C160.644 263.202 165.205 262.499 165.205 262.499C165.205 262.499 170.314 260.244 168.792 255.067C168.792 255.067 171.481 252.664 169.128 249.78C169.128 249.78 170.846 245.269 167.447 242.609C164.048 239.948 161.206 240.367 161.206 240.367Z" fill="#07345A"/>
<path d="M122.993 367.023C122.993 367.023 117.064 366.355 116.082 365.877C115.1 365.399 110.126 370.1 111.112 372.458C111.666 373.8 113.425 373.618 113.425 373.618L114.848 372.246L122.377 373.795L122.993 367.023Z" fill="#F7A491"/>
<path d="M156.825 391.741C156.825 391.741 153.703 396.773 152.851 397.45C151.998 398.126 154.195 404.579 156.777 404.699C158.229 404.764 158.818 403.115 158.818 403.115L158.162 401.26L162.766 395.176L156.825 391.741Z" fill="#F7A491"/>
<path d="M153.039 397.246C153.039 397.246 154.833 399.506 155.809 400.406C156.726 401.225 157.688 401.993 158.691 402.704C158.691 402.704 160.523 405.993 161.023 407.143C162.139 409.699 163.389 412.545 163.209 413.976C163.15 414.435 162.109 414.921 161.238 414.655C157.621 413.554 148.371 405.185 147.201 402.938C145.853 400.333 153.039 397.246 153.039 397.246Z" fill="#3C8F7C"/>
<path d="M179.446 320.635C179.11 319.706 178.787 318.844 178.475 318.036C174.627 318.868 170.279 319.781 165.81 320.721L165.272 336.933C165.272 335.681 168.633 362.792 168.633 362.792C168.633 362.792 159.493 380.733 153.55 391.83C155.989 394.843 157.852 396.161 161.394 398.212C170.618 387.274 182.407 367.99 182.907 364.663C183.198 362.744 183.456 331.799 179.446 320.635Z" fill="#13375B"/>
<path d="M145.098 325.325C146.144 336.562 147.873 353.577 148.188 359.301C140.844 360.349 123.491 365.512 120.253 365.506C119.029 368.218 118.352 371.513 119.201 374.219C119.368 374.756 153.434 375.83 162.228 370.278C164.521 368.828 165.229 353.306 165.264 336.935L165.801 320.723C158.361 322.294 151.509 323.835 145.098 325.325Z" fill="#355389"/>
<path d="M169.561 267.74L161.203 268.986C161.203 268.986 154.902 269.083 153.219 269.099C153.074 269.099 146.515 300.744 144.92 312.655C143.326 324.565 144.563 326.671 144.563 326.671C144.563 326.671 155.68 329.146 163.906 328.424C172.46 327.675 182.084 323.105 182.084 323.105C182.084 323.105 174.229 299.896 172.777 292.764C171.325 285.633 169.561 267.74 169.561 267.74Z" fill="#2B6D8D"/>
<path d="M186.747 223.583C186.747 223.583 186.016 252.897 185.115 254.702C183.808 257.328 174.455 276.042 174.455 276.042C174.455 276.042 181.49 305.164 184.448 315.219C184.747 316.231 186.061 322.772 186.061 323.411C186.061 324.826 179.839 326.633 179.099 326.515C178.438 326.418 173.008 298.72 169.542 285.166C168.365 280.568 166.349 276.227 163.596 272.358L161.176 268.973L175.477 251.853C175.477 251.853 178.559 224.796 178.559 223.105C178.559 222.662 185.852 221.918 186.747 223.583Z" fill="#50BFA5"/>
<path d="M153.219 269.099L138.905 247.745C138.905 247.745 129.614 225.309 129.385 224.482C129.157 223.655 121.856 224.597 119.548 224.375C118.809 224.305 129.275 247.927 130.38 251.864C131.684 256.517 138.671 274.716 138.671 274.716C138.671 274.716 143.511 285.614 142.745 294.034C141.494 308.02 139.015 328.174 139.617 328.778C143.366 331.114 155.166 331.028 156.075 329.584C166.132 313.557 153.219 269.099 153.219 269.099Z" fill="#50BFA5"/>
<path d="M160.625 264.714L161.246 269.279C161.246 269.279 162.642 275.86 160.848 277.13C159.055 278.4 153.219 269.091 153.219 269.091L153.835 257.516L160.625 264.714Z" fill="#F7A491"/>
<path d="M153.636 261.269C155.118 265.219 158.646 267.646 161.152 268.586L160.614 264.714L153.824 257.518L153.636 261.269Z" fill="#F47458"/>
<path d="M144.288 249.654C144.288 251.415 145.302 252.844 146.553 252.844C147.803 252.844 148.817 251.415 148.817 249.654C148.817 247.893 147.803 246.461 146.553 246.461C145.302 246.461 144.288 247.89 144.288 249.654Z" fill="#07345A"/>
<path d="M151.078 242.791C151.078 243.806 152.313 244.628 153.832 244.628C155.351 244.628 156.589 243.806 156.589 242.791C156.589 241.776 155.354 240.957 153.832 240.957C152.31 240.957 151.078 241.779 151.078 242.791Z" fill="#07345A"/>
<path d="M157.981 245.358C158.832 245.074 159.733 244.978 160.624 245.076C161.515 245.175 162.374 245.465 163.142 245.928C163.909 246.391 164.567 247.015 165.069 247.756C165.57 248.498 165.905 249.34 166.049 250.223C166.342 252.164 166.509 254.122 166.549 256.085C166.646 261.42 163.86 266.612 161.405 266.612C158.95 266.612 152.205 263.157 151.952 255.585C151.799 250.908 154.16 246.66 157.981 245.358Z" fill="#F7A491"/>
<path d="M153.757 256.184C153.757 257.36 152.966 258.313 151.995 258.313C151.025 258.313 150.234 257.36 150.234 256.184C150.234 255.008 151.022 254.052 151.995 254.052C152.969 254.052 153.757 255.005 153.757 256.184Z" fill="#F7A491"/>
<path d="M168.59 242.705C171.121 244.687 172.005 247.699 170.569 249.434C169.133 251.168 165.92 250.964 163.389 248.983C160.859 247.001 159.974 243.986 161.41 242.254C162.846 240.522 166.06 240.721 168.59 242.705Z" fill="#07345A"/>
<path d="M161.978 244.335C161.978 245.197 160.926 245.895 159.627 245.895C158.328 245.895 157.28 245.197 157.28 244.335C157.28 243.473 158.331 242.775 159.627 242.775C160.923 242.775 161.978 243.468 161.978 244.335Z" fill="#07345A"/>
<path d="M166.961 252.965C168.068 252.965 168.967 252.067 168.967 250.959C168.967 249.851 168.068 248.953 166.961 248.953C165.853 248.953 164.954 249.851 164.954 250.959C164.954 252.067 165.853 252.965 166.961 252.965Z" fill="#07345A"/>
<path d="M116.343 365.966C116.343 365.966 115.031 368.532 114.619 369.789C114.257 370.956 113.961 372.143 113.732 373.344C113.732 373.344 111.494 376.375 110.655 377.312C108.786 379.391 106.501 381.853 105.113 382.296C104.667 382.438 103.403 382.065 103.416 381.093C103.462 377.35 107.095 365.141 108.66 363.144C110.464 360.835 116.343 365.966 116.343 365.966Z" fill="#3C8F7C"/>
<path d="M113.414 216.22C113.414 216.22 115.152 218.162 117.241 218.46C119.331 218.758 121.165 216.618 121.165 216.618L113.414 216.22Z" fill="#F47458"/>
<path d="M180.361 212.574L180.732 213.138C180.732 213.138 186.328 213.334 188.665 211.304L180.361 212.574Z" fill="#F47458"/>
<path d="M79.4183 156.517C124.375 162.123 170.416 158.815 215.131 146.762C218.93 165.629 222.732 184.498 226.538 203.37C174.85 217.302 121.616 221.131 69.6379 214.647C72.899 195.272 76.1591 175.895 79.4183 156.517Z" fill="#3C8F7C"/>
<path d="M214.254 158.2C216.535 170 218.816 181.801 221.098 193.605C216.39 194.834 213.138 199.2 213.854 203.477C170.384 213.817 125.975 217.01 82.3011 212.934C82.8927 208.563 79.5232 204.675 74.7903 204.122C76.7283 192.018 78.668 179.915 80.6096 167.813C84.966 168.317 88.9863 165.093 89.5779 160.727C127.933 164.306 166.928 161.503 205.101 152.422C205.816 156.691 209.922 159.331 214.254 158.2Z" fill="#96D9C9"/>
<path d="M123.625 189.464C124.235 178.367 133.604 169.381 144.557 168.669C155.51 167.957 164.995 175.771 165.742 186.782C166.49 197.793 157.137 207.972 144.821 208.751C132.505 209.529 123.012 200.545 123.625 189.464Z" fill="#50BFA5"/>
<path d="M145.665 172.09L145.794 175.682C147.354 175.604 148.916 175.721 150.446 176.031C150.716 176.084 150.971 176.19 151.199 176.343C151.426 176.496 151.621 176.693 151.771 176.922C151.922 177.151 152.024 177.408 152.074 177.677C152.124 177.947 152.119 178.223 152.06 178.491C152.06 178.536 152.041 178.585 152.033 178.63C151.899 179.246 151.528 179.784 150.999 180.127C150.47 180.471 149.827 180.592 149.209 180.464C147.812 180.142 146.373 180.04 144.945 180.164C142.723 180.362 141.223 181.313 141.26 182.83C141.295 184.266 142.578 185.082 145.536 185.762C149.815 186.739 152.821 188.291 153.028 191.956C153.219 195.272 150.847 198.172 146.496 199.375C146.541 200.572 146.588 201.77 146.639 202.967C145.292 203.094 143.948 203.212 142.605 203.322C142.573 202.21 142.54 201.099 142.505 199.99C141.253 200.054 139.997 199.984 138.759 199.78C138.473 199.741 138.197 199.642 137.951 199.489C137.705 199.336 137.495 199.133 137.333 198.893C137.171 198.654 137.062 198.382 137.013 198.097C136.963 197.812 136.975 197.52 137.047 197.24C137.219 196.639 137.611 196.123 138.145 195.795C138.679 195.467 139.316 195.351 139.932 195.468C141.107 195.7 142.31 195.762 143.503 195.653C146.138 195.428 146.945 194.281 146.9 193.223C146.851 191.972 145.41 191.325 141.973 190.393C137.17 189.185 135.25 187.198 135.218 183.791C135.186 180.384 137.611 177.395 142.021 176.273C141.986 174.988 141.951 173.701 141.919 172.412C143.167 172.313 144.416 172.206 145.665 172.09Z" fill="#3C8F7C"/>
<path d="M171.814 184.97C182.424 183.538 193.001 181.652 203.546 179.312C203.831 181.154 204.118 182.997 204.407 184.841C193.731 187.207 183.01 189.12 172.245 190.579C172.099 188.71 171.956 186.84 171.814 184.97Z" fill="#50BFA5"/>
<path d="M86.3348 186.876C96.8923 187.85 107.487 188.372 118.118 188.444C118.007 190.329 117.895 192.215 117.784 194.101C107.013 194.03 96.2702 193.5 85.5549 192.512C85.8167 190.627 86.0766 188.748 86.3348 186.876Z" fill="#50BFA5"/>
<path d="M120.059 217.963C120.059 217.963 121.673 216.556 121.772 214.397C121.786 214.129 121.041 211.712 121.977 211.554C123.534 211.285 124.209 218.489 124.209 218.489C124.209 218.489 122.033 217.724 120.059 217.963Z" fill="#F7A491"/>
<path d="M182.81 215.149C182.81 215.149 187.199 211.162 188.189 209.242C188.31 209 188.616 206.501 189.533 206.726C191.069 207.102 189.154 212.534 189.154 212.534C189.154 212.534 184.714 215.724 182.81 215.149Z" fill="#F7A491"/>
<path d="M229.609 331.726C227.923 327.675 226.208 323.618 221.835 321.566C218.296 319.907 214.599 320.533 211.455 322.893C202.543 329.584 210.307 336.954 200.161 349.641C197.009 353.582 193.193 356.764 191.305 361.382C188.662 367.848 191.811 370.954 196.856 374.05C220.999 388.869 233.654 358.445 233.199 351.496C232.879 346.309 230.693 334.334 229.609 331.726Z" fill="#13375B"/>
<path d="M254.661 410.574C253.645 410.416 251.165 408.646 250.3 408.485C249.625 408.361 248.162 408.141 247.538 408.047C246.774 405.201 242.896 389.679 242.463 385.131C241.993 380.201 238.502 358.88 238.502 358.88L229.461 360.52C229.461 360.52 233.226 376.923 234.253 384.876C235.146 391.709 242.652 407.067 243.606 408.689C243.606 408.729 243.606 408.767 243.606 408.807C243.752 411.224 244.916 410.418 244.916 410.418L246.798 410.899C246.798 410.899 253.486 411.543 253.922 411.704C254.357 411.865 255.681 410.735 254.661 410.574Z" fill="#F7A491"/>
<path d="M230.62 346.416C237.01 348.564 240.643 365.923 240.643 365.923C240.643 365.923 230.618 368.718 228.05 367.265C228.05 367.265 225.135 354.377 224.089 354.812L230.62 346.416Z" fill="#50BFA5"/>
<path d="M280.047 440.542C281.357 444.022 282.381 447.603 283.107 451.249C283.153 451.539 282.744 452.938 282.782 453.236C286.708 458.582 292.347 459.753 297.182 460.094C294.719 457.677 291.099 455.414 290.927 454.654C289.739 450.032 288.904 445.327 288.429 440.579C285.422 441.967 283.381 440.877 280.047 440.542Z" fill="#F7A491"/>
<path d="M224.438 382.943L215.801 407.229C215.801 407.229 229.679 409.836 234.867 410.786C240.054 411.737 269.04 412.999 269.774 413.514C270.312 413.895 276.309 433.23 278.982 443.895C282.018 444.561 287.211 443.761 289.975 442.821C288.48 427.565 283.088 403.394 281.37 400.763C278.549 396.467 224.438 382.943 224.438 382.943Z" fill="#13375B"/>
<path d="M258.171 451.187C258.806 454.851 259.14 458.561 259.168 462.279C259.168 462.569 258.493 463.869 258.475 464.159C261.328 470.143 266.65 472.348 271.334 473.586C269.363 470.766 266.225 467.853 266.208 467.074C265.909 462.312 265.972 457.535 266.397 452.782C263.183 453.593 261.384 452.13 258.171 451.187Z" fill="#F7A491"/>
<path d="M214.357 384.205L211.006 389.916C209.808 391.961 209.07 394.242 208.841 396.6C208.612 398.958 208.898 401.338 209.679 403.575C210.461 405.812 211.719 407.853 213.368 409.557C215.016 411.262 217.015 412.589 219.227 413.447L219.374 413.503C224.293 415.407 252.529 422.074 253.153 422.716C253.618 423.191 255.871 443.307 256.495 454.28C259.351 455.502 264.603 455.687 267.497 455.271C268.892 440.007 268.134 415.265 266.932 412.349C264.971 407.612 214.357 384.205 214.357 384.205Z" fill="#355389"/>
<path d="M259.601 462.446C258.848 461.619 256.089 466.181 255.401 467.152C254.624 468.248 254.844 469.075 254.938 469.244C255.183 469.698 269.729 478.247 273.286 478.856C273.666 478.878 274.043 478.778 274.362 478.572C275.75 477.345 269.363 468.294 266.496 467.104C264.63 466.334 262.998 466.175 259.601 462.446Z" fill="#F47458"/>
<path d="M283.572 451.413C282.68 450.739 280.824 455.739 280.329 456.823C279.773 458.045 280.144 458.813 280.267 458.971C280.593 459.369 296.494 465.042 300.094 464.978C300.466 464.925 300.812 464.758 301.084 464.5C302.219 463.036 294.246 455.339 291.207 454.705C289.244 454.302 287.595 454.444 283.572 451.413Z" fill="#F47458"/>
<path d="M224.559 346.365C224.778 346.351 224.995 346.307 225.202 346.233C226.388 346.021 228.983 345.696 231.002 346.561C233.458 347.595 237.263 357.261 237.037 367.179C236.945 368.696 236.854 370.055 236.768 371C236.147 378.494 233.993 392.555 233.877 392.628C230.949 394.507 213.275 387.215 212.063 385.612C210.85 384.009 210.132 364.532 209.54 363.56L208.392 346.633C210.441 346.011 221.418 346.343 224.559 346.365Z" fill="#50BFA5"/>
<path d="M217.398 340.128C217.398 340.128 218.535 346.003 218.31 348.322C218.084 350.642 219.176 358.109 224.091 358.133C229.007 358.158 225.024 348.637 224.559 346.365C224.094 344.094 223.989 337.064 223.989 337.064L217.398 340.128Z" fill="#F7A491"/>
<path d="M224.089 340.59C224.013 338.667 223.989 337.064 223.989 337.064L217.398 340.128C217.398 340.128 217.632 341.328 217.866 342.861C220.749 343.438 222.838 342.372 224.089 340.59Z" fill="#F47458"/>
<path d="M214.991 323.91C213.34 324.935 212.11 326.515 211.522 328.365C210.594 331.412 211.651 339.279 218.21 341.178C224.769 343.076 227.622 336.847 226.259 331.976C224.895 327.105 221.969 320.941 214.991 323.91Z" fill="#F7A491"/>
<path d="M227.079 330.089C226.952 331.396 226.229 332.398 225.465 332.323C224.702 332.247 224.188 331.128 224.317 329.82C224.446 328.512 225.167 327.511 225.931 327.586C226.694 327.661 227.208 328.781 227.079 330.089Z" fill="#F7A491"/>
<path d="M215.76 323.513C215.76 323.513 214.569 332.288 211.727 333.872C208.884 335.456 210.073 339.346 210.073 339.346C210.073 339.346 207.497 330.309 209.745 327.406C211.993 324.504 215.76 323.513 215.76 323.513Z" fill="#13375B"/>
<path d="M213.41 335.131C214.182 336.275 214.179 337.623 213.41 338.144C212.641 338.664 211.385 338.144 210.613 337.013C209.842 335.883 209.847 334.521 210.613 334.003C211.38 333.485 212.641 333.987 213.41 335.131Z" fill="#F7A491"/>
<path d="M222.967 335.625L218.358 336.78C218.358 336.78 218.915 338.533 220.961 338.082C223.446 337.531 222.967 335.625 222.967 335.625Z" fill="white"/>
<path d="M179.634 408.823C179.715 408.614 179.903 408.609 180.089 408.603C181.919 408.575 183.745 408.439 185.559 408.195C185.859 408.155 186.154 408.08 186.438 407.972C186.921 407.784 187.454 407.764 187.949 407.916C188.224 407.984 188.508 408.014 188.791 408.005C189.711 408.005 192.335 407.11 193.683 406.874C193.832 406.846 193.971 406.775 194.082 406.671C194.194 406.567 194.273 406.434 194.312 406.286C195.638 401.05 198.483 389.301 198.851 385.437C199.322 380.499 202.74 358.225 202.74 358.225L211.883 360.77C211.883 360.77 208.118 377.21 207.08 385.185C206.273 391.339 200.115 404.404 198.184 408.16C197.24 410.955 195.124 411.033 194.632 411.092C194.35 411.127 194.091 411.265 193.906 411.479C193.574 411.87 193.185 412.208 192.752 412.483C192.439 412.686 192.171 412.952 191.967 413.264C191.577 413.831 191.23 414.422 190.891 415.015C190.663 415.41 190.426 415.533 190.084 415.439C189.743 415.345 189.547 415.074 189.547 414.634C189.565 413.998 189.75 413.379 190.084 412.838C190.391 412.317 190.367 412.013 190.009 411.533C189.813 411.252 189.583 410.996 189.323 410.773C189.202 410.651 189.055 410.558 188.893 410.499C188.732 410.44 188.559 410.417 188.388 410.432C187.732 410.6 187.067 410.723 186.395 410.802L185.841 410.915L185.54 410.98C185.494 410.98 184.521 411.098 184.195 411.098C183.926 411.098 183.496 411.116 183.12 411.133C182.757 411.114 182.397 411.062 182.044 410.977C181.727 410.971 181.424 410.848 181.191 410.633C181.092 410.545 180.995 410.445 181.046 410.295C181.068 410.233 181.108 410.179 181.161 410.139C181.213 410.099 181.276 410.076 181.342 410.072C181.563 410.032 182.687 409.892 182.687 409.846C182.351 409.846 181.296 409.82 180.958 409.812C180.739 409.811 180.523 409.766 180.323 409.678C180.123 409.59 179.944 409.462 179.796 409.301C179.696 409.167 179.554 409.036 179.634 408.823Z" fill="#F7A491"/>
<path d="M208.279 346.585C203.767 345.78 200.045 365.917 200.045 365.917C200.045 365.917 210.07 368.712 212.638 367.26C212.638 367.26 215.553 354.372 216.599 354.807L208.279 346.585Z" fill="#50BFA5"/>
<path d="M488.902 193.948L486.718 190.262L488.52 186.377C488.566 186.277 488.584 186.166 488.57 186.057C488.557 185.948 488.513 185.845 488.444 185.759C488.375 185.674 488.283 185.609 488.179 185.573C488.075 185.537 487.963 185.531 487.855 185.555L483.671 186.492L480.525 183.579C480.444 183.504 480.344 183.454 480.237 183.433C480.129 183.412 480.017 183.421 479.914 183.46C479.812 183.5 479.722 183.567 479.655 183.654C479.589 183.741 479.548 183.846 479.538 183.955L479.137 188.219L475.391 190.307C475.295 190.361 475.217 190.44 475.164 190.536C475.111 190.632 475.085 190.741 475.091 190.85C475.097 190.96 475.133 191.066 475.195 191.156C475.258 191.246 475.344 191.316 475.445 191.36L479.382 193.06L480.21 197.262C480.233 197.369 480.285 197.467 480.361 197.546C480.436 197.626 480.532 197.682 480.638 197.71C480.744 197.738 480.856 197.736 480.961 197.704C481.066 197.672 481.159 197.612 481.232 197.53L484.066 194.308L488.326 194.818C488.433 194.829 488.541 194.811 488.638 194.765C488.736 194.719 488.818 194.647 488.878 194.557C488.937 194.468 488.971 194.364 488.975 194.256C488.979 194.149 488.954 194.042 488.902 193.948Z" fill="#355389"/>
<path d="M534.106 182.451L534.348 171.945L544.15 171.523L544.846 161.183L554.162 159.626L555.95 151.974L559.83 152.876L557.44 163.114L548.611 164.588L547.888 175.344L538.247 175.757L538.027 185.281L534.106 182.451Z" fill="#F48C7F"/>
<path d="M617.058 205.977L613.051 213.449L604.408 212.966L600.509 221.66L591.463 218.309L586.619 227.946L577.909 225.889L571.73 234.4L574.957 236.734L579.577 230.37L588.768 232.542L593.423 223.279L602.622 226.684L606.922 217.09L615.364 217.563L619.077 210.638L624.555 212.104L625.588 208.262L617.058 205.977Z" fill="#F7CC7F"/>
<path d="M448.817 133.793L452.251 134.47C452.251 134.47 457.269 132.131 457.651 131.004C458.033 129.876 457.858 127.274 458.592 127.111C459.175 126.96 459.794 127.047 460.313 127.352C460.832 127.657 461.208 128.156 461.359 128.738C461.768 129.989 460.348 133.93 460.69 134.288C460.905 134.513 462.868 134.959 464.306 135.26C464.773 135.36 465.202 135.587 465.547 135.915C465.893 136.243 466.141 136.66 466.264 137.12C466.349 137.43 466.327 137.759 466.201 138.054C466.075 138.35 465.853 138.594 465.57 138.747L464.667 139.231L465.092 140.17C465.244 140.508 465.258 140.892 465.132 141.241C465.005 141.589 464.748 141.874 464.414 142.036L463.712 142.375L464.019 142.941C464.113 143.114 464.17 143.305 464.186 143.501C464.202 143.697 464.178 143.894 464.114 144.08C464.05 144.266 463.948 144.437 463.815 144.581C463.681 144.726 463.519 144.841 463.338 144.92L462.72 145.189L462.768 145.358C462.865 145.694 462.834 146.055 462.68 146.369C462.527 146.684 462.262 146.931 461.937 147.063L461.319 147.31L452.176 145.505C451.319 145.336 450.507 144.99 449.791 144.491L446.682 143.315C446.519 143.252 446.383 143.133 446.301 142.979C446.218 142.825 446.194 142.647 446.233 142.477L447.967 134.365C448.006 134.178 448.116 134.013 448.275 133.906C448.434 133.799 448.629 133.759 448.817 133.793Z" fill="#96D9C9"/>
<path d="M652.234 494.086H73.8222V497.361H652.234V494.086Z" fill="#184655"/>
<path d="M163.728 261.382L158.963 261.492C158.963 261.492 159.116 263.326 161.214 263.339C163.769 263.353 163.728 261.382 163.728 261.382Z" fill="white"/>
</svg>
