<svg width="68" height="64" viewBox="0 0 68 64" fill="none" xmlns="http://www.w3.org/2000/svg">
<rect width="68" height="64" rx="15" fill="white"/>
<path d="M49.4932 19.5442C49.3452 18.2675 48.5706 17.2134 47.3156 16.9359C45.3581 16.503 41.5637 16 34.5 16C27.4363 16 23.6419 16.503 21.6844 16.9359C20.4294 17.2134 19.6548 18.2675 19.5068 19.5442C19.2828 21.4749 19 24.6546 19 28.4C19 35.397 22.6928 41.9442 28.9142 45.1461C30.9925 46.2157 33.0208 47 34.5 47C35.9793 47 38.0075 46.2157 40.0858 45.1461C46.3072 41.9442 50 35.397 50 28.4C50 24.6546 49.7172 21.4749 49.4932 19.5442Z" fill="#306A90"/>
<path fill-rule="evenodd" clip-rule="evenodd" d="M25.1949 28.4633C24.7645 28.4633 24.4157 28.1091 24.4252 27.6748C24.4599 26.0843 24.5639 24.6974 24.6675 23.6555C24.7958 22.364 25.5843 21.3181 26.8516 21.0983C27.9511 20.9076 29.6307 20.7225 32.1556 20.6503C32.5893 20.6379 32.9483 20.9912 32.9483 21.4291V27.6802C32.9483 28.1127 32.601 28.4633 32.1725 28.4633H25.1949ZM44.5748 27.6748C44.5843 28.1091 44.2356 28.4633 43.8051 28.4633H36.8275C36.399 28.4633 36.0517 28.1127 36.0517 27.6802V21.4291C36.0517 20.9912 36.4107 20.6379 36.8444 20.6503C39.3693 20.7225 41.0489 20.9076 42.1484 21.0983C43.4157 21.3181 44.2042 22.364 44.3325 23.6555C44.4361 24.6974 44.5401 26.0843 44.5748 27.6748ZM32.0344 40.7715C32.5029 40.9079 32.9483 40.5366 32.9483 40.0444V32.379C32.9483 31.9465 32.601 31.5959 32.1725 31.5959H25.2417C24.7935 31.5959 24.4356 31.9794 24.5029 32.4266C25.1265 36.573 28.341 39.6961 32.0344 40.7715ZM36.9656 40.7715C36.4971 40.9079 36.0517 40.5366 36.0517 40.0444V32.379C36.0517 31.9465 36.399 31.5959 36.8275 31.5959H43.7583C44.2065 31.5959 44.5644 31.9794 44.4971 32.4266C43.8735 36.573 40.659 39.6961 36.9656 40.7715Z" fill="#40A4D3"/>
</svg>
