<svg width="706" height="424" viewBox="0 0 706 424" fill="none" xmlns="http://www.w3.org/2000/svg">
<path d="M532.581 341.12C465.37 341.12 410.885 286.583 410.885 219.309C410.885 152.034 465.37 97.4973 532.581 97.4973C599.792 97.4973 654.277 152.034 654.277 219.309C654.277 286.583 599.792 341.12 532.581 341.12Z" fill="#CFEFFA"/>
<path d="M532.864 90.4949H535.96V170.367H532.864V90.4949Z" fill="#583C1C"/>
<path d="M532.996 93.8544C532.996 93.8544 504.382 90.9409 506.338 96.4997C508.294 102.059 488.11 102.576 478.547 99.9008C478.547 99.9008 480.673 108.407 482.798 120.103C484.924 131.799 517.321 124.887 514.667 120.103C512.012 115.319 532.864 117.458 532.864 117.458L532.996 93.8544Z" fill="#2B6D8D"/>
<mask id="mask0_33_158" style="mask-type:alpha" maskUnits="userSpaceOnUse" x="411" y="97" width="244" height="245">
<path d="M533.094 341.131C465.883 341.131 411.398 286.594 411.398 219.32C411.398 152.046 465.883 97.5088 533.094 97.5088C600.305 97.5088 654.791 152.046 654.791 219.32C654.791 286.594 600.305 341.131 533.094 341.131Z" fill="#DFF0F7"/>
</mask>
<g mask="url(#mask0_33_158)">
<path d="M471 220.983L540.584 359.274H401.416L471 220.983Z" fill="#7FB3A7"/>
<path d="M534.14 154.371V354.263H449.597L534.14 154.371Z" fill="#7FB3A7"/>
<path d="M602.679 209.117L672.263 347.408H533.094L602.679 209.117Z" fill="#7FB3A7"/>
<path d="M534.366 153.831L619.139 354.263H534.14V154.371L534.366 153.831Z" fill="#7FB3A7"/>
</g>
<path d="M236.993 299.143C237.352 299.143 237.703 299.036 238.002 298.836C238.3 298.637 238.533 298.353 238.67 298.021C238.807 297.689 238.843 297.323 238.773 296.971C238.703 296.618 238.531 296.295 238.277 296.04L225.267 283.018C225.1 282.842 224.899 282.701 224.677 282.604C224.455 282.507 224.216 282.455 223.973 282.452C223.731 282.448 223.49 282.494 223.265 282.585C223.041 282.677 222.837 282.812 222.665 282.984C222.494 283.155 222.358 283.36 222.267 283.585C222.176 283.809 222.13 284.05 222.133 284.293C222.137 284.536 222.188 284.775 222.286 284.998C222.383 285.22 222.523 285.421 222.699 285.588L235.709 298.61C235.878 298.779 236.078 298.913 236.298 299.005C236.518 299.096 236.755 299.143 236.993 299.143Z" fill="#65A7DD"/>
<path d="M223.983 299.143C224.222 299.143 224.458 299.096 224.678 299.005C224.898 298.913 225.098 298.779 225.267 298.61L238.277 285.588C238.453 285.421 238.594 285.22 238.691 284.998C238.788 284.775 238.84 284.536 238.843 284.293C238.846 284.05 238.801 283.809 238.709 283.585C238.618 283.36 238.483 283.155 238.311 282.984C238.14 282.812 237.936 282.677 237.711 282.585C237.486 282.494 237.246 282.448 237.003 282.452C236.761 282.455 236.521 282.507 236.299 282.604C236.077 282.701 235.876 282.842 235.71 283.018L222.699 296.04C222.446 296.295 222.273 296.618 222.203 296.971C222.133 297.323 222.169 297.689 222.306 298.021C222.444 298.353 222.676 298.637 222.975 298.836C223.273 299.036 223.624 299.143 223.983 299.143Z" fill="#65A7DD"/>
<path d="M404.893 333.641C405.252 333.641 405.603 333.534 405.901 333.335C406.2 333.135 406.432 332.851 406.57 332.519C406.707 332.187 406.743 331.822 406.673 331.469C406.603 331.117 406.43 330.793 406.177 330.539L393.17 317.52C392.827 317.194 392.37 317.015 391.897 317.021C391.423 317.028 390.971 317.219 390.636 317.554C390.302 317.889 390.111 318.341 390.105 318.815C390.099 319.289 390.277 319.746 390.603 320.09L403.59 333.108C403.761 333.28 403.964 333.415 404.188 333.507C404.411 333.598 404.651 333.644 404.893 333.641Z" fill="#65A7DD"/>
<path d="M391.887 333.641C392.125 333.641 392.361 333.595 392.582 333.503C392.802 333.412 393.002 333.277 393.17 333.108L406.176 320.078C406.352 319.911 406.493 319.711 406.59 319.488C406.688 319.266 406.739 319.026 406.743 318.784C406.746 318.541 406.7 318.3 406.609 318.075C406.518 317.85 406.382 317.646 406.211 317.474C406.039 317.303 405.835 317.167 405.611 317.076C405.386 316.984 405.145 316.939 404.903 316.942C404.66 316.945 404.421 316.997 404.199 317.094C403.977 317.192 403.776 317.333 403.609 317.509L390.603 330.527C390.349 330.782 390.176 331.105 390.106 331.458C390.036 331.81 390.072 332.176 390.21 332.508C390.347 332.84 390.58 333.123 390.878 333.323C391.177 333.523 391.528 333.63 391.887 333.63V333.641Z" fill="#65A7DD"/>
<path d="M98.7078 326.775C99.9286 326.775 101.122 326.412 102.137 325.733C103.152 325.055 103.944 324.09 104.411 322.961C104.878 321.832 105 320.589 104.762 319.391C104.524 318.192 103.936 317.091 103.073 316.227C102.209 315.363 101.109 314.775 99.9121 314.536C98.7147 314.298 97.4735 314.42 96.3456 314.888C95.2176 315.355 94.2536 316.147 93.5753 317.163C92.897 318.18 92.535 319.374 92.535 320.596C92.538 322.234 93.1893 323.804 94.3463 324.962C95.5033 326.12 97.0716 326.772 98.7078 326.775ZM98.7078 316.949C99.4261 316.949 100.128 317.163 100.726 317.562C101.323 317.962 101.788 318.529 102.063 319.194C102.338 319.858 102.41 320.589 102.27 321.294C102.13 321.999 101.784 322.647 101.276 323.155C100.768 323.664 100.121 324.01 99.4164 324.15C98.7118 324.291 97.9816 324.219 97.3179 323.943C96.6542 323.668 96.087 323.202 95.6879 322.604C95.2889 322.007 95.0758 321.304 95.0758 320.585C95.0808 319.623 95.4655 318.703 96.1458 318.024C96.8262 317.345 97.7471 316.963 98.7078 316.961V316.949Z" fill="#65A7DD"/>
<path d="M308.235 366.095C309.98 366.095 311.686 365.577 313.137 364.607C314.588 363.636 315.719 362.257 316.387 360.643C317.054 359.029 317.229 357.254 316.889 355.541C316.548 353.827 315.708 352.254 314.474 351.019C313.24 349.784 311.668 348.942 309.956 348.602C308.245 348.261 306.471 348.436 304.859 349.104C303.246 349.773 301.868 350.905 300.899 352.357C299.929 353.809 299.412 355.517 299.412 357.263C299.414 359.605 300.344 361.85 301.998 363.506C303.653 365.162 305.896 366.093 308.235 366.095ZM308.235 352.064C309.263 352.064 310.267 352.369 311.121 352.94C311.976 353.511 312.641 354.323 313.035 355.274C313.428 356.224 313.531 357.269 313.33 358.278C313.13 359.287 312.635 360.213 311.908 360.94C311.182 361.668 310.256 362.163 309.249 362.363C308.241 362.564 307.196 362.461 306.247 362.068C305.298 361.674 304.487 361.007 303.916 360.152C303.345 359.297 303.04 358.292 303.04 357.263C303.042 355.885 303.59 354.564 304.564 353.589C305.538 352.614 306.858 352.066 308.235 352.064Z" fill="#65A7DD"/>
<path d="M121.255 276.008H154.633C155.114 276.008 155.576 275.817 155.917 275.476C156.258 275.135 156.449 274.673 156.449 274.19C156.449 273.708 156.258 273.246 155.917 272.905C155.576 272.564 155.114 272.373 154.633 272.373H121.255C120.773 272.373 120.311 272.564 119.97 272.905C119.63 273.246 119.439 273.708 119.439 274.19C119.439 274.673 119.63 275.135 119.97 275.476C120.311 275.817 120.773 276.008 121.255 276.008Z" fill="#65A7DD"/>
<path d="M255.187 359.081H286.255C286.736 359.081 287.198 358.89 287.539 358.549C287.879 358.208 288.071 357.746 288.071 357.263C288.071 356.781 287.879 356.319 287.539 355.978C287.198 355.637 286.736 355.446 286.255 355.446H255.187C254.705 355.446 254.243 355.637 253.903 355.978C253.562 356.319 253.371 356.781 253.371 357.263C253.371 357.746 253.562 358.208 253.903 358.549C254.243 358.89 254.705 359.081 255.187 359.081Z" fill="#65A7DD"/>
<path d="M420.999 68.0479C421.358 68.0477 421.709 67.941 422.007 67.7413C422.306 67.5416 422.538 67.2577 422.676 66.9257C422.813 66.5937 422.849 66.2283 422.779 65.8759C422.709 65.5234 422.536 65.1996 422.282 64.9454L409.276 51.9269C409.109 51.7507 408.909 51.6099 408.687 51.5126C408.464 51.4153 408.225 51.3635 407.982 51.3603C407.74 51.3571 407.499 51.4025 407.275 51.4939C407.05 51.5853 406.846 51.7209 406.674 51.8925C406.503 52.0641 406.368 52.2684 406.276 52.4933C406.185 52.7182 406.14 52.9591 406.143 53.2018C406.146 53.4445 406.198 53.6841 406.295 53.9065C406.392 54.1289 406.533 54.3295 406.709 54.4965L419.715 67.5189C420.056 67.8581 420.518 68.0483 420.999 68.0479Z" fill="#65A7DD"/>
<path d="M407.992 68.048C408.473 68.0483 408.935 67.8581 409.276 67.5189L422.282 54.4966C422.608 54.1529 422.787 53.6954 422.781 53.2217C422.774 52.748 422.584 52.2954 422.249 51.9604C421.914 51.6254 421.462 51.4344 420.989 51.4281C420.515 51.4219 420.058 51.6009 419.715 51.9269L406.709 64.9454C406.455 65.1996 406.282 65.5234 406.212 65.8759C406.142 66.2284 406.178 66.5937 406.316 66.9258C406.453 67.2578 406.686 67.5416 406.984 67.7414C407.282 67.9411 407.633 68.0478 407.992 68.048Z" fill="#65A7DD"/>
<path d="M297.728 110.263C299.474 110.263 301.181 109.746 302.633 108.776C304.085 107.805 305.217 106.426 305.886 104.811C306.554 103.197 306.73 101.42 306.39 99.7062C306.05 97.992 305.209 96.4174 303.975 95.1814C302.741 93.9454 301.168 93.1035 299.455 92.7623C297.743 92.4211 295.968 92.5959 294.355 93.2645C292.742 93.9331 291.363 95.0655 290.393 96.5185C289.423 97.9716 288.905 99.6799 288.905 101.428C288.908 103.769 289.838 106.014 291.492 107.67C293.146 109.326 295.389 110.259 297.728 110.263ZM297.728 96.2314C298.756 96.2307 299.761 96.5351 300.616 97.1062C301.471 97.6773 302.137 98.4893 302.531 99.4396C302.924 100.39 303.028 101.436 302.827 102.445C302.627 103.454 302.132 104.381 301.405 105.108C300.679 105.836 299.753 106.331 298.744 106.531C297.736 106.732 296.692 106.629 295.742 106.235C294.793 105.841 293.981 105.174 293.411 104.318C292.84 103.462 292.536 102.456 292.537 101.428C292.539 100.05 293.087 98.7296 294.06 97.7555C295.033 96.7815 296.352 96.2334 297.728 96.2314Z" fill="#65A7DD"/>
<path d="M107.599 89.7428C107.958 89.7427 108.309 89.636 108.607 89.4362C108.906 89.2365 109.139 88.9527 109.276 88.6206C109.413 88.2886 109.449 87.9233 109.379 87.5708C109.309 87.2183 109.136 86.8945 108.883 86.6403L95.8952 73.618C95.7283 73.4419 95.5279 73.301 95.3057 73.2037C95.0835 73.1064 94.8441 73.0546 94.6017 73.0514C94.3592 73.0482 94.1185 73.0937 93.8939 73.1851C93.6692 73.2765 93.4651 73.412 93.2936 73.5837C93.1221 73.7553 92.9867 73.9596 92.8954 74.1844C92.8041 74.4093 92.7587 74.6502 92.7619 74.8929C92.7651 75.1356 92.8168 75.3753 92.9141 75.5976C93.0113 75.82 93.152 76.0206 93.3279 76.1877L106.338 89.21C106.672 89.5461 107.125 89.7375 107.599 89.7428Z" fill="#65A7DD"/>
<path d="M94.5964 89.7428C94.8349 89.7431 95.0711 89.6962 95.2914 89.6048C95.5117 89.5133 95.7117 89.3792 95.88 89.21L108.89 76.1877C109.066 76.0206 109.207 75.82 109.304 75.5976C109.401 75.3753 109.453 75.1356 109.456 74.8929C109.459 74.6502 109.414 74.4093 109.323 74.1844C109.231 73.9596 109.096 73.7553 108.924 73.5837C108.753 73.412 108.549 73.2765 108.324 73.1851C108.1 73.0937 107.859 73.0482 107.616 73.0514C107.374 73.0546 107.134 73.1064 106.912 73.2037C106.69 73.301 106.49 73.4419 106.323 73.618L93.3128 86.6403C93.059 86.8945 92.8861 87.2183 92.8161 87.5708C92.7462 87.9233 92.7821 88.2886 92.9195 88.6206C93.0569 88.9527 93.2895 89.2365 93.588 89.4362C93.8864 89.636 94.2374 89.7427 94.5964 89.7428Z" fill="#65A7DD"/>
<path d="M233.52 103.245H271.602C271.848 103.256 272.092 103.218 272.322 103.131C272.552 103.045 272.762 102.913 272.94 102.744C273.117 102.574 273.258 102.37 273.355 102.144C273.451 101.918 273.501 101.675 273.501 101.429C273.501 101.184 273.451 100.94 273.355 100.715C273.258 100.489 273.117 100.285 272.94 100.115C272.762 99.9453 272.552 99.8133 272.322 99.7271C272.092 99.6409 271.848 99.6023 271.602 99.6135H233.52C233.275 99.6023 233.03 99.6409 232.8 99.7271C232.57 99.8133 232.36 99.9453 232.183 100.115C232.005 100.285 231.864 100.489 231.767 100.715C231.671 100.94 231.621 101.184 231.621 101.429C231.621 101.675 231.671 101.918 231.767 102.144C231.864 102.37 232.005 102.574 232.183 102.744C232.36 102.913 232.57 103.045 232.8 103.131C233.03 103.218 233.275 103.256 233.52 103.245Z" fill="#65A7DD"/>
<path d="M614.835 372.606C615.194 372.606 615.545 372.499 615.844 372.299C616.142 372.1 616.375 371.816 616.512 371.484C616.65 371.152 616.686 370.787 616.616 370.434C616.546 370.082 616.373 369.758 616.119 369.504L603.113 356.485C602.769 356.159 602.312 355.98 601.839 355.986C601.366 355.992 600.914 356.183 600.579 356.518C600.244 356.853 600.053 357.306 600.047 357.78C600.041 358.254 600.22 358.711 600.545 359.055L613.552 372.073C613.72 372.242 613.92 372.377 614.14 372.468C614.361 372.559 614.597 372.606 614.835 372.606Z" fill="#65A7DD"/>
<path d="M601.829 372.606C602.068 372.606 602.304 372.559 602.524 372.468C602.744 372.377 602.944 372.242 603.113 372.073L616.119 359.055C616.445 358.711 616.624 358.254 616.617 357.78C616.611 357.306 616.42 356.853 616.086 356.518C615.751 356.183 615.299 355.992 614.825 355.986C614.352 355.98 613.895 356.159 613.552 356.485L600.545 369.504C600.292 369.758 600.119 370.082 600.049 370.434C599.979 370.787 600.015 371.152 600.152 371.484C600.29 371.816 600.522 372.1 600.821 372.299C601.119 372.499 601.47 372.606 601.829 372.606Z" fill="#65A7DD"/>
<path d="M615.168 90.2454C616.912 90.2424 618.616 89.7219 620.065 88.7497C621.514 87.7775 622.643 86.3971 623.308 84.7831C623.974 83.1692 624.146 81.3939 623.804 79.6818C623.462 77.9696 622.621 76.3974 621.386 75.1639C620.151 73.9303 618.579 73.0907 616.868 72.7511C615.157 72.4116 613.384 72.5873 611.773 73.2562C610.161 73.9251 608.784 75.0571 607.815 76.509C606.846 77.961 606.329 79.6679 606.329 81.414C606.33 82.5747 606.56 83.7239 607.004 84.7959C607.449 85.8679 608.1 86.8418 608.921 87.6619C609.742 88.4819 610.716 89.1322 611.788 89.5755C612.859 90.0188 614.008 90.2464 615.168 90.2454ZM615.168 76.2141C616.195 76.2141 617.199 76.5191 618.054 77.0904C618.908 77.6618 619.574 78.4739 619.967 79.4241C620.36 80.3742 620.463 81.4197 620.263 82.4284C620.062 83.4371 619.567 84.3636 618.841 85.0908C618.114 85.818 617.189 86.3133 616.181 86.5139C615.173 86.7145 614.129 86.6116 613.18 86.218C612.23 85.8244 611.419 85.158 610.848 84.3028C610.277 83.4477 609.973 82.4424 609.973 81.414C609.974 80.0352 610.521 78.7132 611.495 77.7382C612.469 76.7633 613.79 76.2151 615.168 76.2141Z" fill="#65A7DD"/>
<path opacity="0.14" d="M399 365.903L468.584 227.612V365.903H399Z" fill="white"/>
<path opacity="0.14" d="M530.679 354.037L600.263 215.746V354.037H530.679Z" fill="white"/>
<path opacity="0.14" d="M531.724 161V360.892H447.182L531.724 161Z" fill="white"/>
</svg>
