<svg width="31" height="23" viewBox="0 0 31 23" fill="none" xmlns="http://www.w3.org/2000/svg">
<path fill-rule="evenodd" clip-rule="evenodd" d="M30.4403 14.9331C30.462 15.1582 30.4731 15.3863 30.4731 15.6171C30.4731 19.5009 27.3247 22.6494 23.4409 22.6494C19.5571 22.6494 16.4086 19.5009 16.4086 15.6171C16.4086 11.7333 19.5571 8.58484 23.4409 8.58484C23.6104 8.58484 23.7784 8.59083 23.9449 8.60262C24.2115 7.25561 24.2449 3.97536 22.4819 5.72205e-06C24.963 2.45064 30.0348 8.89536 30.4731 15.0691C30.4639 15.0258 30.4529 14.9804 30.4403 14.9331Z" fill="#3ED7A0"/>
<path fill-rule="evenodd" clip-rule="evenodd" d="M14.0317 14.9331C14.0534 15.1582 14.0645 15.3863 14.0645 15.6171C14.0645 19.5009 10.9161 22.6494 7.03226 22.6494C3.14845 22.6494 0 19.5009 0 15.6171C0 11.7333 3.14845 8.58484 7.03226 8.58484C7.20173 8.58484 7.36981 8.59083 7.53629 8.60262C7.80291 7.25561 7.8363 3.97536 6.07331 5.72205e-06C8.55439 2.45064 13.6261 8.89536 14.0645 15.0691C14.0552 15.0258 14.0443 14.9804 14.0317 14.9331Z" fill="#3ED7A0"/>
</svg>
