<svg width="121" height="121" viewBox="0 0 121 121" fill="none" xmlns="http://www.w3.org/2000/svg">
<circle cx="60.5" cy="60.5" r="60.5" fill="#2B6D8D" fill-opacity="0.29"/>
<path d="M23.2751 34.9177C23.6477 31.7052 25.5966 29.0532 28.7543 28.3549C33.6797 27.2656 43.2267 26 61 26C78.7733 26 88.3203 27.2656 93.2457 28.3549C96.4034 29.0532 98.3523 31.7052 98.7249 34.9177C99.2884 39.7756 100 47.7762 100 57.2C100 74.8053 90.7084 91.279 75.0545 99.3354C69.8253 102.027 64.722 104 61 104C57.278 104 52.1747 102.027 46.9455 99.3354C31.2916 91.279 22 74.8053 22 57.2C22 47.7762 22.7116 39.7756 23.2751 34.9177Z" fill="#2B6D8D"/>
<path fill-rule="evenodd" clip-rule="evenodd" d="M84.8645 39.8411C84.924 39.891 84.9877 39.9359 85.053 39.9779C86.9881 41.224 87.5978 43.9523 86.3483 45.9878C75.8458 63.098 66.0444 74.3791 61.2309 79.4944C59.4478 81.3893 56.6979 81.5166 54.7984 79.7567C50.7974 76.0497 43.737 68.8307 36.7284 58.3643C35.6114 56.6963 35.8031 54.413 37.1382 52.941L40.2297 49.5321C41.7336 47.874 44.1905 47.7737 45.7423 49.3802C52.269 56.137 58.1211 63.8897 58.1211 63.8897C58.1211 63.8897 66.0921 51.2637 77.2665 38.3531C78.4941 36.9349 80.4536 36.6005 82.042 37.4973C82.1096 37.5354 82.1727 37.5812 82.2322 37.6312L84.8645 39.8411Z" fill="#40A4D3"/>
</svg>
