<svg width="68" height="64" viewBox="0 0 68 64" fill="none" xmlns="http://www.w3.org/2000/svg">
<rect width="68" height="64" rx="15" fill="white"/>
<circle r="12.2469" transform="matrix(-1 0 0 1 34.2469 29.2469)" fill="#306A90"/>
<path d="M28.2901 39.2538C27.6736 39.2705 27.024 39.4393 26.7876 40.009C26.6759 40.2781 26.5926 40.6376 26.5926 41.1111C26.5926 41.5846 26.6759 41.9441 26.7876 42.2132C26.8625 42.3937 26.979 42.534 27.1227 42.642C26.979 42.7499 26.8625 42.8902 26.7876 43.0707C26.6759 43.3398 26.5926 43.6993 26.5926 44.1728C26.5926 44.6464 26.6759 45.0058 26.7876 45.2749C27.024 45.8446 27.6736 46.0134 28.2901 46.0301C28.6259 46.0392 29.0678 46.0489 29.64 46.0576L30.102 46.9817C30.3035 47.3848 30.6722 47.6784 31.1168 47.7516C31.787 47.8619 32.8958 48 34.2469 48C35.5981 48 36.7069 47.8619 37.3771 47.7516C37.8217 47.6784 38.1904 47.3848 38.3919 46.9817L38.8539 46.0576C39.4261 46.0489 39.868 46.0392 40.2037 46.0301C40.8203 46.0134 41.4699 45.8446 41.7063 45.2749C41.8179 45.0058 41.9013 44.6464 41.9013 44.1728C41.9013 43.6993 41.8179 43.3398 41.7063 43.0707C41.6314 42.8902 41.5149 42.7499 41.3712 42.642C41.5149 42.534 41.6314 42.3937 41.7063 42.2132C41.8179 41.9441 41.9013 41.5846 41.9013 41.1111C41.9013 40.6376 41.8179 40.2781 41.7063 40.009C41.4699 39.4393 40.8203 39.2705 40.2037 39.2538C39.2526 39.2281 37.4487 39.1975 34.2469 39.1975C31.0452 39.1975 29.2413 39.2281 28.2901 39.2538Z" fill="#40A4D3"/>
<path fill-rule="evenodd" clip-rule="evenodd" d="M34.2469 23.1235C37.6288 23.1235 40.3704 25.8651 40.3704 29.247C40.3704 30.0924 41.0558 30.7778 41.9013 30.7778C42.7467 30.7778 43.4321 30.0924 43.4321 29.247C43.4321 24.1741 39.3198 20.0618 34.2469 20.0618C33.4015 20.0618 32.7161 20.7472 32.7161 21.5926C32.7161 22.4381 33.4015 23.1235 34.2469 23.1235Z" fill="#40A4D3"/>
</svg>
