<svg width="20" height="20" viewBox="0 0 20 20" fill="none" xmlns="http://www.w3.org/2000/svg">
<path d="M10 20C15.5228 20 20 15.5228 20 10C20 4.47715 15.5228 0 10 0C4.47715 0 0 4.47715 0 10C0 15.5228 4.47715 20 10 20Z" fill="#4467AD"/>
<path d="M10.7734 8.63711C10.9378 8.45192 11.0697 8.26378 11.2415 8.10526C11.4853 7.8676 11.7739 7.68077 12.0906 7.55564C12.4072 7.43051 12.7456 7.36957 13.086 7.37637C13.4782 7.36961 13.8696 7.41697 14.2489 7.51711C15.1171 7.76896 15.6208 8.36599 15.8622 9.2134C16.0223 9.84845 16.0946 10.5024 16.0771 11.1571C16.0771 12.5393 16.0771 13.9201 16.0771 15.3053C16.0771 15.4341 16.0415 15.4682 15.9141 15.4667C15.201 15.4608 14.4894 15.4608 13.7793 15.4667C13.6534 15.4667 13.6311 15.4297 13.6311 15.3186C13.6311 14.004 13.6311 12.6895 13.6311 11.3749C13.6385 11.0447 13.5996 10.715 13.5156 10.3956C13.3452 9.80303 12.923 9.50674 12.3052 9.53785C11.4622 9.58229 11.0222 10.0016 10.9156 10.8593C10.8894 11.0637 10.8766 11.2696 10.8771 11.4756C10.8771 12.7541 10.8771 14.0327 10.8771 15.3112C10.8771 15.4386 10.8445 15.4756 10.7141 15.4741C9.99854 15.4741 9.28151 15.4741 8.56447 15.4741C8.44891 15.4741 8.41632 15.4445 8.41632 15.326C8.41632 12.7956 8.41632 10.2648 8.41632 7.7334C8.41632 7.60748 8.45632 7.58526 8.57484 7.58526C9.25632 7.59118 9.93732 7.59118 10.6178 7.58526C10.7423 7.58526 10.7748 7.62526 10.766 7.74378C10.7689 8.03118 10.7734 8.3334 10.7734 8.63711Z" fill="#FEFEFE"/>
<path d="M6.8741 11.5289C6.8741 12.7808 6.8741 14.0326 6.8741 15.2845C6.8741 15.4237 6.84002 15.4667 6.69632 15.4652C5.98373 15.4563 5.27262 15.4652 4.56151 15.4652C4.44743 15.4652 4.41336 15.4371 4.41336 15.3171C4.41336 12.7808 4.41336 10.2455 4.41336 7.71113C4.41336 7.60595 4.44003 7.56298 4.55114 7.57039C5.27262 7.57039 5.9941 7.57039 6.71558 7.57039C6.85484 7.57039 6.87262 7.62224 6.87262 7.74224C6.87163 9.00447 6.87212 10.2667 6.8741 11.5289Z" fill="#FEFEFE"/>
<path d="M7.06965 5.05933C7.07111 5.34076 6.98896 5.61629 6.83361 5.85097C6.67826 6.08565 6.45671 6.26889 6.19706 6.37748C5.93741 6.48606 5.65137 6.51508 5.37521 6.46086C5.09905 6.40664 4.8452 6.27162 4.64588 6.07293C4.44656 5.87424 4.31075 5.62082 4.25566 5.34483C4.20058 5.06884 4.2287 4.7827 4.33646 4.52271C4.44423 4.26273 4.62679 4.0406 4.86098 3.88452C5.09517 3.72843 5.37043 3.64542 5.65187 3.646C6.02652 3.64793 6.38534 3.79732 6.65068 4.06182C6.91602 4.32633 7.06654 4.68468 7.06965 5.05933Z" fill="#FEFEFE"/>
</svg>
