<svg width="20" height="20" viewBox="0 0 20 20" fill="none" xmlns="http://www.w3.org/2000/svg">
<path d="M10 20C15.5228 20 20 15.5229 20 10C20 4.47715 15.5228 0 10 0C4.47715 0 0 4.47715 0 10C0 15.5229 4.47715 20 10 20Z" fill="url(#paint0_linear_66_492)"/>
<path fill-rule="evenodd" clip-rule="evenodd" d="M14.8104 5.31276C13.723 4.22261 12.2762 3.56514 10.7399 3.46297C9.20354 3.36079 7.68247 3.82088 6.46032 4.75744C5.23816 5.694 4.39835 7.0431 4.0975 8.55316C3.79664 10.0632 4.05527 11.6312 4.82516 12.9646L3.9259 16.2505L7.28739 15.3691C8.21817 15.875 9.2606 16.1403 10.32 16.1409C11.5745 16.141 12.801 15.7691 13.8442 15.0723C14.8874 14.3754 15.7006 13.3848 16.1809 12.2259C16.6612 11.0669 16.787 9.79153 16.5426 8.56102C16.2981 7.33051 15.6943 6.20011 14.8074 5.31276H14.8104ZM10.3215 15.0698C9.37695 15.0676 8.45035 14.8118 7.6385 14.3291L7.4459 14.215L5.45035 14.7379L5.97479 12.7987L5.85628 12.6002C5.23515 11.6098 4.96076 10.4412 5.07623 9.27788C5.1917 8.11459 5.69049 7.02267 6.49418 6.17376C7.29787 5.32486 8.36089 4.76711 9.51612 4.58821C10.6713 4.4093 11.8533 4.61939 12.8761 5.18543C13.8989 5.75148 14.7046 6.64138 15.1665 7.71525C15.6285 8.78911 15.7204 9.98604 15.4279 11.1179C15.1355 12.2497 14.4751 13.2522 13.5508 13.9678C12.6264 14.6835 11.4905 15.0716 10.3215 15.0713V15.0698ZM13.2148 11.1187C13.0563 11.0387 12.277 10.6565 12.1318 10.6031C11.9866 10.5498 11.88 10.5246 11.7748 10.6831C11.6696 10.8417 11.3659 11.1987 11.2726 11.3039C11.1792 11.4091 11.0874 11.4224 10.9289 11.3439C10.4621 11.1569 10.0311 10.8908 9.6548 10.5572C9.30568 10.2374 9.00611 9.86742 8.76591 9.45943C8.67258 9.30091 8.75554 9.21498 8.83554 9.13647C8.91553 9.05795 8.99405 8.95128 9.07257 8.85795C9.13843 8.78018 9.19282 8.69337 9.23405 8.60017C9.25486 8.55622 9.26452 8.50782 9.26219 8.45924C9.25987 8.41067 9.24562 8.36342 9.22072 8.32165C9.18072 8.24313 8.86368 7.46239 8.73183 7.14535C8.59998 6.82832 8.47258 6.87869 8.37628 6.87424C8.27998 6.8698 8.17776 6.87424 8.07109 6.87424C7.99085 6.87652 7.91193 6.89533 7.83928 6.92948C7.76663 6.96364 7.70181 7.01242 7.64887 7.07276C7.46988 7.24253 7.32818 7.4477 7.23279 7.67521C7.1374 7.90272 7.09041 8.14758 7.09479 8.39424C7.09479 9.1735 7.6622 9.92758 7.7422 10.0328C7.8222 10.1379 8.85924 11.7394 10.4489 12.4254C10.7441 12.5525 11.0457 12.6643 11.3526 12.7602C11.676 12.8583 12.0179 12.8796 12.3511 12.8224C12.6563 12.7765 13.2889 12.4387 13.4207 12.0698C13.5526 11.7009 13.5541 11.3824 13.5141 11.3157C13.4741 11.2491 13.3733 11.2017 13.2148 11.1187Z" fill="white"/>
<defs>
<linearGradient id="paint0_linear_66_492" x1="10" y1="18.5467" x2="10" y2="-1.45333" gradientUnits="userSpaceOnUse">
<stop stop-color="#78CD51"/>
<stop offset="1" stop-color="#A0FC84"/>
</linearGradient>
</defs>
</svg>
