<svg width="24" height="24" viewBox="0 0 24 24" fill="none" xmlns="http://www.w3.org/2000/svg">
<path d="M12.0001 2.04175C6.47724 2.04175 2 6.51898 2 12.0418C2 16.9951 5.60522 21.0973 10.3322 21.8917V14.1281H7.91994V11.3343H10.3322V9.27425C10.3322 6.88402 11.7921 5.58147 13.9247 5.58147C14.9461 5.58147 15.8238 5.65758 16.0786 5.6911V8.18954L14.5995 8.19025C13.44 8.19025 13.2165 8.74114 13.2165 9.54982V11.3329H15.9832L15.6223 14.1267H13.2165V21.9585C18.1642 21.3563 22 17.1496 22 12.0389C22 6.51898 17.5228 2.04175 12.0001 2.04175Z" fill="url(#paint0_linear_31_313)"/>
<defs>
<linearGradient id="paint0_linear_31_313" x1="12" y1="2.04175" x2="12" y2="21.9585" gradientUnits="userSpaceOnUse">
<stop stop-color="#2FB1FE"/>
<stop offset="1" stop-color="#026AE3"/>
</linearGradient>
</defs>
</svg>
