<svg width="20" height="20" viewBox="0 0 20 20" fill="none" xmlns="http://www.w3.org/2000/svg">
<path d="M10 20C15.5228 20 20 15.5229 20 10C20 4.47716 15.5228 0 10 0C4.47715 0 0 4.47716 0 10C0 15.5229 4.47715 20 10 20Z" fill="#5A99EC"/>
<path d="M7.97924 15.7586C12.8681 15.7586 15.5348 11.7127 15.5348 8.20304C15.5348 8.08897 15.5348 7.9749 15.5348 7.86082C16.0543 7.48467 16.5027 7.01916 16.8593 6.486C16.3745 6.69977 15.8608 6.84056 15.3348 6.90378C15.8892 6.57156 16.304 6.04931 16.5022 5.43415C15.9813 5.7439 15.411 5.96188 14.8163 6.0786C14.4519 5.69059 13.9793 5.421 13.4599 5.3048C12.9404 5.18859 12.3981 5.23113 11.9031 5.42688C11.4081 5.62264 10.9834 5.96259 10.6839 6.40266C10.3845 6.84273 10.2241 7.36261 10.2237 7.89489C10.2228 8.09883 10.2457 8.30217 10.2918 8.50082C9.23608 8.44789 8.20326 8.1735 7.26043 7.69546C6.31761 7.21741 5.48587 6.5464 4.81924 5.72601C4.47929 6.31057 4.37508 7.00278 4.52786 7.66153C4.68064 8.32027 5.0789 8.89595 5.64146 9.27119C5.21972 9.2583 4.80721 9.1445 4.4385 8.93934C4.43773 8.95069 4.43773 8.96207 4.4385 8.97341C4.43867 9.58648 4.65091 10.1806 5.03921 10.6551C5.4275 11.1295 5.96795 11.455 6.56888 11.5764C6.17805 11.6825 5.76817 11.6982 5.37036 11.6223C5.54101 12.1492 5.87148 12.6099 6.3159 12.9404C6.76032 13.271 7.29662 13.4549 7.85035 13.4667C6.90952 14.2044 5.74813 14.6046 4.55258 14.603C4.34116 14.6034 4.12991 14.5911 3.91998 14.566C5.13402 15.3457 6.54675 15.7597 7.98962 15.7586" fill="white"/>
</svg>
