<svg width="121" height="121" viewBox="0 0 121 121" fill="none" xmlns="http://www.w3.org/2000/svg">
<circle cx="60.5" cy="60.5" r="60.5" fill="#2B6D8D" fill-opacity="0.29"/>
<path d="M30.5593 51.4702C33.0874 48.5071 37.6097 49.165 40.7448 50.7347C42.5569 51.68 44.7934 50.9824 45.7471 49.1713C46.7035 47.3551 46.0077 45.1068 44.193 44.1497L44.1874 44.1467C38.0057 40.9048 29.7004 41.0281 24.9102 46.6425C20.7926 51.4687 21.3028 59 24.8209 64.7323C28.5293 70.7748 35.7432 75.4286 46.143 75.4286C48.1943 75.4286 49.8571 73.7643 49.8571 71.7113C49.8571 69.6583 48.1942 67.9941 46.143 67.9941C38.1345 67.9941 33.4109 64.5242 31.1505 60.8412C28.6998 56.848 29.21 53.0518 30.5593 51.4702Z" fill="#40A4D3"/>
<path d="M91.4407 51.4702C88.9126 48.5071 84.3903 49.165 81.2552 50.7347C79.4431 51.68 77.2066 50.9824 76.2529 49.1713C75.2965 47.3551 75.9923 45.1068 77.807 44.1497L77.8126 44.1467C83.9943 40.9048 92.2996 41.0281 97.0898 46.6425C101.207 51.4687 100.697 59 97.1791 64.7323C93.4707 70.7748 86.2568 75.4286 75.857 75.4286C73.8057 75.4286 72.1429 73.7643 72.1429 71.7113C72.1429 69.6583 73.8058 67.9941 75.857 67.9941C83.8655 67.9941 88.5891 64.5242 90.8495 60.8412C93.3002 56.848 92.79 53.0518 91.4407 51.4702Z" fill="#40A4D3"/>
<path d="M65.7515 77.2856H56.2485L53.8996 89.5267C53.5995 91.0907 52.3132 92.2942 50.7011 92.5192L44.087 93.4425C41.6939 93.7765 39.7764 95.5489 39.3023 97.8653L38.7612 100.509C38.4672 101.945 39.5916 103.286 41.0908 103.286H80.9092C82.4084 103.286 83.5328 101.945 83.2388 100.509L82.6977 97.8653C82.2236 95.5489 80.3061 93.7765 77.913 93.4425L71.2989 92.5192C69.6868 92.2942 68.4005 91.0907 68.1004 89.5267L65.7515 77.2856Z" fill="#40A4D3"/>
<path d="M40.2963 71.0917C41.845 80.0289 49.7887 86.5714 59.0913 86.5714H62.9087C72.2113 86.5714 80.1551 80.0289 81.7037 71.0917L85.083 51.5897C85.5451 48.9233 86.3785 46.3309 87.5603 43.8841L89.8207 39.2041C91.952 34.7914 90.2108 30.5634 85.2387 30.0009C80.4312 29.4571 72.8622 29 61 29C49.1378 29 41.5688 29.4571 36.7613 30.0009C31.7892 30.5634 30.048 34.7914 32.1793 39.2042L34.4397 43.8842C35.6215 46.3309 36.4549 48.9233 36.917 51.5897L40.2963 71.0917Z" fill="#2B6D8D"/>
<path d="M59.5323 43.1259C60.3069 41.6247 62.4431 41.6247 63.2177 43.1259L65.7267 47.9882L71.0734 49.0465C72.6542 49.3593 73.2932 51.2845 72.2159 52.4888L68.4161 56.7367L69.1119 62.404C69.3147 64.0559 67.6062 65.2698 66.1247 64.5265L61.375 62.1435L56.6253 64.5265C55.1438 65.2698 53.4353 64.0559 53.6381 62.404L54.3339 56.7367L50.5341 52.4888C49.4568 51.2845 50.0958 49.3593 51.6766 49.0465L57.0233 47.9882L59.5323 43.1259Z" fill="#40A4D3"/>
</svg>
