<svg width="12" height="145" viewBox="0 0 12 145" fill="none" xmlns="http://www.w3.org/2000/svg">
<path d="M7 1L7 4.37114e-08L5 -4.37114e-08L5 1L7 1ZM5.99999 144.5L11.7735 134.5L0.226491 134.5L5.99999 144.5ZM5 1L5 4.98611L7 4.98611L7 1L5 1ZM5 12.9583L5 20.9306L7 20.9306L7 12.9583L5 12.9583ZM5 28.9028L5 36.875L7 36.875L7 28.9028L5 28.9028ZM5 44.8472L5 52.8194L7 52.8194L7 44.8472L5 44.8472ZM5 60.7917L5 68.7639L7 68.7639L7 60.7917L5 60.7917ZM5 76.7361L5 84.7083L7 84.7083L7 76.7361L5 76.7361ZM5 92.6805L5 100.653L7 100.653L7 92.6805L5 92.6805ZM5 108.625L4.99999 116.597L6.99999 116.597L7 108.625L5 108.625ZM4.99999 124.569L4.99999 132.542L6.99999 132.542L6.99999 124.569L4.99999 124.569Z" fill="white"/>
</svg>
