<svg width="492" height="420" viewBox="0 0 492 420" fill="none" xmlns="http://www.w3.org/2000/svg">
<g clip-path="url(#clip0_33_213)">
<path d="M492 376.282H0V376.528H492V376.282Z" fill="#EBEBEB"/>
<path d="M234.586 332.395H44.5752C43.085 332.395 41.6559 331.803 40.6022 330.75C39.5485 329.696 38.9565 328.267 38.9565 326.777V59.6896C38.9695 58.2079 39.5672 56.7914 40.6195 55.7483C41.6718 54.7053 43.0935 54.1201 44.5752 54.1201H234.586C235.323 54.1201 236.054 54.2654 236.736 54.5478C237.417 54.8302 238.037 55.244 238.559 55.7658C239.08 56.2875 239.494 56.9069 239.777 57.5886C240.059 58.2703 240.204 59.0009 240.204 59.7388V326.777C240.204 327.515 240.059 328.245 239.777 328.927C239.494 329.609 239.08 330.228 238.559 330.75C238.037 331.271 237.417 331.685 236.736 331.968C236.054 332.25 235.323 332.395 234.586 332.395ZM44.5752 54.3169C43.1511 54.3195 41.786 54.8864 40.779 55.8934C39.772 56.9004 39.2051 58.2654 39.2025 59.6896V326.777C39.2051 328.201 39.772 329.566 40.779 330.573C41.786 331.58 43.1511 332.147 44.5752 332.149H234.586C236.01 332.147 237.375 331.58 238.382 330.573C239.389 329.566 239.956 328.201 239.958 326.777V59.6896C239.956 58.2654 239.389 56.9004 238.382 55.8934C237.375 54.8864 236.01 54.3195 234.586 54.3169H44.5752Z" fill="#EBEBEB"/>
<path d="M447.425 332.395H257.414C255.924 332.395 254.495 331.803 253.441 330.75C252.388 329.696 251.796 328.267 251.796 326.777V59.6896C251.809 58.2079 252.406 56.7914 253.459 55.7483C254.511 54.7053 255.933 54.1201 257.414 54.1201H447.425C448.915 54.1201 450.344 54.7121 451.398 55.7658C452.451 56.8195 453.043 58.2486 453.043 59.7388V326.777C453.043 328.267 452.451 329.696 451.398 330.75C450.344 331.803 448.915 332.395 447.425 332.395ZM257.414 54.3169C255.99 54.3195 254.625 54.8864 253.618 55.8934C252.611 56.9004 252.044 58.2654 252.042 59.6896V326.777C252.044 328.201 252.611 329.566 253.618 330.573C254.625 331.58 255.99 332.147 257.414 332.149H447.425C448.849 332.147 450.214 331.58 451.221 330.573C452.228 329.566 452.795 328.201 452.797 326.777V59.6896C452.795 58.2654 452.228 56.9004 451.221 55.8934C450.214 54.8864 448.849 54.3195 447.425 54.3169H257.414Z" fill="#EBEBEB"/>
<path d="M492 376.282H0V376.528H492V376.282Z" fill="#EBEBEB"/>
<path d="M442.702 392.114H410.112V392.36H442.702V392.114Z" fill="#EBEBEB"/>
<path d="M325.92 394.791H317.37V395.037H325.92V394.791Z" fill="#EBEBEB"/>
<path d="M409.128 382.983H390.245V383.229H409.128V382.983Z" fill="#EBEBEB"/>
<path d="M94.1196 384.636H51.6206V384.882H94.1196V384.636Z" fill="#EBEBEB"/>
<path d="M221.548 388.788H129.366V389.034H221.548V388.788Z" fill="#EBEBEB"/>
<path d="M151.9 156.141C163.993 156.141 197.922 161.061 197.922 142.867C197.922 127.389 181.341 128.53 181.341 128.53C181.341 128.53 181.814 115.118 167.044 113.327C151.9 111.497 149.568 125.952 149.568 125.952C149.568 125.952 123.276 116.722 127.271 139.886C127.271 139.886 112.698 137.317 112.698 147.758C112.737 159.408 140.181 156.112 151.9 156.141Z" fill="#F0F0F0"/>
<path d="M136.658 293.931C161.258 294 230.059 305.276 230.059 263.545C230.059 228.121 196.416 230.689 196.416 230.689C196.416 230.689 197.4 199.959 167.408 195.875C136.658 191.683 131.984 224.884 131.984 224.884C131.984 224.884 78.602 203.747 86.72 256.795C86.72 256.795 57.1311 250.891 57.1311 274.782C57.1705 301.468 112.865 293.862 136.658 293.931Z" fill="#F5F5F5"/>
<path d="M228.377 297.621C214.797 297.621 176.707 303.899 176.707 280.814C176.707 261.193 195.324 262.64 195.324 262.64C195.324 262.64 194.783 245.636 211.373 243.383C228.377 241.06 230.945 259.432 230.945 259.432C230.945 259.432 260.465 247.732 255.988 277.085C255.988 277.085 272.352 273.818 272.352 287.033C272.352 301.793 241.543 297.581 228.377 297.621Z" fill="#F0F0F0"/>
<path d="M304.204 200.894C317.753 200.894 355.746 206.119 355.746 186.891C355.746 170.557 337.177 171.757 337.177 171.757C337.177 171.757 337.709 157.598 321.168 155.718C304.204 153.75 301.635 169.081 301.635 169.081C301.635 169.081 272.184 159.339 276.671 183.782C276.671 183.782 260.337 181.066 260.337 192.067C260.337 204.367 291.077 200.864 304.204 200.894Z" fill="#F0F0F0"/>
<path d="M263.801 376.164L283.599 247.801L342.481 173.46L362.555 88.8357C362.555 88.8357 411.223 135.851 412.571 137.052C413.92 138.252 424.635 265.208 426.121 267.146C427.607 269.085 441.59 291.264 441.59 291.264L448.094 375.829L263.801 376.164Z" fill="#FAFAFA"/>
<path d="M263.801 376.164L292.022 265.247L332.002 227.127L339.49 275.373L349.566 220.495L361 239.201L358.511 174.7L360.498 154.055L367.209 167.762L362.555 88.7964L396.483 89.5737L403.548 126.848L412.571 137.052L426.121 267.146L441.59 291.215L448.094 375.78L263.801 376.164Z" fill="#EBEBEB"/>
<path d="M363.44 89.2195L383.593 154.429L395.607 163.974C395.607 163.974 401.934 190.473 401.866 188.781C401.797 187.088 401.137 157.391 401.137 157.391L404.247 133.165L396.375 90.0067L363.44 89.2195Z" fill="#F5F5F5"/>
<path d="M426.121 267.146L430.825 289.07L441.59 291.215L426.121 267.146Z" fill="#F5F5F5"/>
<path d="M350.363 332.041C371.893 332.1 432.232 341.989 432.232 305.404C432.232 274.329 402.712 276.612 402.712 276.612C402.712 276.612 403.568 249.68 377.285 246.108C350.334 242.438 346.27 271.535 346.27 271.535C346.27 271.535 299.49 253.006 306.605 299.51C306.605 299.51 280.676 294.334 280.676 315.254C280.706 338.653 329.522 331.982 350.363 332.041Z" fill="#F5F5F5"/>
<path d="M109.116 384.636H102.887V384.882H109.116V384.636Z" fill="#EBEBEB"/>
<path d="M248.106 420.178C353.475 420.178 438.894 415.191 438.894 409.039C438.894 402.887 353.475 397.9 248.106 397.9C142.737 397.9 57.318 402.887 57.318 409.039C57.318 415.191 142.737 420.178 248.106 420.178Z" fill="#F5F5F5"/>
<path d="M396.896 93.5587C396.896 98.1231 395.083 102.501 391.856 105.728C388.628 108.956 384.251 110.769 379.686 110.769C379.302 110.769 378.919 110.769 378.535 110.769C374.182 110.474 370.103 108.537 367.124 105.349C364.145 102.161 362.488 97.9611 362.488 93.598C362.488 89.235 364.145 85.0348 367.124 81.8471C370.103 78.6594 374.182 76.7222 378.535 76.4272C378.919 76.4272 379.302 76.4272 379.686 76.4272C384.237 76.4272 388.603 78.2296 391.828 81.4401C395.053 84.6506 396.876 89.0079 396.896 93.5587Z" fill="#3C8F7C"/>
<path opacity="0.2" d="M394.584 93.5587C394.373 96.6872 393.252 99.6859 391.36 102.186C389.468 104.686 386.886 106.579 383.932 107.631C380.979 108.684 377.782 108.85 374.735 108.11C371.688 107.37 368.923 105.756 366.782 103.466C364.64 101.176 363.214 98.3096 362.679 95.2199C362.145 92.1303 362.524 88.9517 363.772 86.075C365.02 83.1983 367.081 80.7489 369.702 79.0279C372.323 77.3069 375.389 76.3893 378.525 76.3879C382.88 76.6799 386.962 78.6159 389.943 81.8039C392.925 84.9919 394.584 89.1938 394.584 93.5587Z" fill="white"/>
<path opacity="0.4" d="M390.388 98.4894C393.108 91.9222 389.99 84.3932 383.423 81.673C376.855 78.9527 369.326 82.0713 366.606 88.6386C363.886 95.2058 367.005 102.735 373.572 105.455C380.139 108.175 387.668 105.057 390.388 98.4894Z" fill="white"/>
<g opacity="0.7">
<path opacity="0.7" d="M384.419 96.2943C384.921 99.1479 382.963 101.047 379.44 101.352L379.381 103.704H377.236L377.295 101.352C375.455 101.214 373.673 100.648 372.09 99.6989L373.074 97.0421C374.374 97.8833 375.854 98.4058 377.393 98.5673L377.482 94.9462C375.386 94.346 373.064 93.5588 372.562 91.0102C372.07 88.1566 374.058 86.2378 377.659 85.982L377.718 83.6204H379.853L379.824 85.9623C381.274 86.0817 382.684 86.497 383.967 87.1824L383.13 89.8294C382.095 89.2191 380.941 88.8398 379.745 88.7175L379.667 92.496C381.733 93.0668 383.986 93.8343 384.419 96.2943ZM377.531 91.886L377.61 88.806C376.429 89.0422 375.858 89.7015 375.986 90.5182C376.114 91.3349 376.705 91.5711 377.531 91.886ZM381.054 96.8552C380.946 96.2352 380.385 95.8712 379.588 95.5661L379.519 98.5181C380.631 98.2623 381.192 97.6719 381.054 96.8552Z" fill="white"/>
</g>
<path d="M294.078 251.619H235.855V409.088H294.078V251.619Z" fill="#1B465A"/>
<path opacity="0.2" d="M252.298 251.461H235.845V409.118H252.298V251.461Z" fill="#9ABAC9"/>
<path d="M235.786 314.595H177.563V409.088H235.786V314.595Z" fill="#1B465A"/>
<path opacity="0.2" d="M195.058 314.595H177.563V408.99H195.058V314.595Z" fill="#9ABAC9"/>
<path d="M177.514 334.658H119.29V409.088H177.514V334.658Z" fill="#1B465A"/>
<path opacity="0.2" d="M136.609 334.658H119.29V408.99H136.609V334.658Z" fill="#9ABAC9"/>
<path d="M119.271 354.722H61.0474V409.088H119.271V354.722Z" fill="#1B465A"/>
<path opacity="0.2" d="M77.5097 354.673H61.0573V408.99H77.5097V354.673Z" fill="#9ABAC9"/>
<path d="M219.353 129.967C216.588 133.312 213.735 136.589 210.891 139.807L208.736 142.247L206.768 144.402C205.96 145.371 205.442 146.547 205.272 147.797L204.623 154.153C204.406 156.308 204.19 158.463 203.944 160.609C203.462 164.918 202.96 169.228 202.389 173.528C202.298 174.207 201.957 174.827 201.433 175.268C200.909 175.709 200.239 175.939 199.555 175.913C198.871 175.887 198.22 175.608 197.731 175.129C197.242 174.65 196.948 174.005 196.908 173.322C196.662 168.992 196.495 164.663 196.347 160.343C196.259 158.178 196.219 156.013 196.16 153.858L196.013 147.256C196.086 144.167 197.053 141.166 198.798 138.616L200.933 135.733L202.901 133.155C205.508 129.731 208.126 126.267 210.773 122.961C211.686 121.823 213.014 121.094 214.465 120.936C215.915 120.777 217.369 121.201 218.507 122.114C219.645 123.028 220.373 124.356 220.532 125.806C220.691 127.257 220.267 128.711 219.353 129.849V129.967Z" fill="#3C8F7C"/>
<path d="M196.259 173.863L192.657 179.974L200.943 180.81L202.399 174.611C202.441 174.437 202.446 174.256 202.416 174.08C202.386 173.903 202.32 173.735 202.222 173.585C202.124 173.435 201.997 173.306 201.848 173.207C201.7 173.107 201.532 173.039 201.356 173.007C200.492 172.806 199.597 172.778 198.722 172.924C197.847 173.071 197.01 173.39 196.259 173.863Z" fill="#CB7A63"/>
<path d="M192.657 179.974L193.041 182.129C193.13 182.645 193.399 183.114 193.801 183.451C194.203 183.788 194.711 183.972 195.235 183.969H197.932C198.336 183.967 198.732 183.857 199.078 183.649C199.424 183.441 199.708 183.144 199.9 182.788L200.952 180.82L192.657 179.974Z" fill="#CB7A63"/>
<path d="M195.668 169.287L203.639 169.563L203.127 174.325L196.397 173.804L195.668 169.287Z" fill="#3C8F7C"/>
<path opacity="0.3" d="M195.816 169.248L203.786 169.524L203.275 174.286L196.544 173.765L195.816 169.248Z" fill="white"/>
<path d="M203.688 219.275L202.379 221.243L201.395 219.206L203.786 188.308C204.16 183.388 202.507 179.364 196.397 179.216C190.68 179.078 187.216 182.985 186.812 187.885L184.313 218.724L182.945 220.692L182.01 218.665L184.53 187.836C184.992 182.138 187.482 177.563 196.515 177.779C205.548 177.996 206.522 182.699 206.079 188.377L203.688 219.275Z" fill="#263238"/>
<path d="M178.38 198.433H176.805C175.214 198.425 173.674 198.999 172.477 200.046C171.279 201.094 170.505 202.543 170.301 204.121L167.349 226.379L177.602 226.743L178.38 198.433Z" fill="#263238"/>
<path opacity="0.2" d="M178.38 198.433H176.805C175.214 198.425 173.674 198.999 172.477 200.046C171.279 201.094 170.505 202.543 170.301 204.121L167.349 226.379L177.602 226.743L178.38 198.433Z" fill="white"/>
<path d="M207.329 219.531L205.016 219.471L205.243 188.574C205.243 183.654 203.334 179.629 197.213 179.472C191.486 179.334 188.298 183.241 188.239 188.141L187.944 218.989L185.632 218.92L185.996 188.092C186.065 182.385 188.279 177.819 197.282 178.035C206.286 178.252 207.624 182.955 207.585 188.633L207.329 219.531Z" fill="#263238"/>
<path d="M218.192 227.944L172.633 226.586L173.066 203.619C173.068 202.928 173.208 202.244 173.478 201.608C173.747 200.972 174.141 200.395 174.636 199.912C175.13 199.43 175.716 199.05 176.359 198.796C177.002 198.542 177.689 198.419 178.379 198.433L211.56 199.299C213.382 199.366 215.106 200.14 216.367 201.457C217.627 202.775 218.324 204.532 218.31 206.355L218.192 227.944Z" fill="#263238"/>
<path opacity="0.4" d="M213.144 227.796L177.641 226.733C176.296 226.672 175.029 226.087 174.109 225.103C173.19 224.119 172.692 222.815 172.721 221.469L173.086 203.619C173.088 202.928 173.228 202.244 173.498 201.608C173.767 200.972 174.161 200.395 174.655 199.912C175.15 199.43 175.736 199.05 176.378 198.796C177.021 198.542 177.708 198.419 178.399 198.433L211.58 199.299C213.402 199.366 215.126 200.14 216.386 201.457C217.647 202.775 218.344 204.532 218.33 206.355L218.231 222.797C218.243 223.464 218.118 224.127 217.865 224.744C217.612 225.361 217.236 225.921 216.76 226.388C216.285 226.856 215.719 227.222 215.097 227.464C214.475 227.706 213.811 227.819 213.144 227.796Z" fill="white"/>
<g opacity="0.3">
<path opacity="0.3" d="M207.329 219.53L206.158 221.498L205.016 219.432L205.243 188.534C205.243 183.614 203.334 179.59 197.213 179.432C191.486 179.295 188.298 183.201 188.239 188.101L187.944 218.989L186.714 220.957L185.632 218.93L185.996 188.101C186.065 182.394 188.279 177.829 197.282 178.045C206.286 178.261 207.624 182.965 207.585 188.643L207.329 219.53Z" fill="white"/>
</g>
<path d="M188.672 207.063L184.874 206.965L184.894 205.538L188.692 205.636L188.672 207.063Z" fill="#263238"/>
<path d="M188.574 216.332L184.766 216.234L184.785 214.797L188.593 214.906L188.574 216.332Z" fill="#263238"/>
<path d="M208.195 207.594L204.377 207.486L204.387 206.059L208.205 206.158L208.195 207.594Z" fill="#263238"/>
<path d="M208.126 216.884L204.308 216.775L204.318 215.339L208.136 215.447L208.126 216.884Z" fill="#263238"/>
<path d="M200.923 208.214L192.775 207.988L192.805 204.928L200.952 205.154L200.923 208.214Z" fill="white"/>
<path d="M236.101 95.4481C236.416 95.389 236.75 95.7138 236.849 96.1959C236.947 96.6781 236.79 97.111 236.475 97.1799C236.16 97.2488 235.825 96.9142 235.727 96.4419C235.629 95.9696 235.786 95.4973 236.101 95.4481Z" fill="#263238"/>
<path d="M236.16 95.8416C236.492 95.6617 236.752 95.3735 236.898 95.0249C236.63 95.2742 236.28 95.4146 235.914 95.4185C235.984 95.4659 236.043 95.5285 236.086 95.6018C236.128 95.6751 236.154 95.7571 236.16 95.8416Z" fill="#263238"/>
<path d="M236.79 100.653C237.197 100.671 237.604 100.598 237.98 100.439C238.356 100.281 238.692 100.042 238.964 99.7383C237.761 98.692 236.705 97.4871 235.825 96.1565L236.79 100.653Z" fill="#B74D3C"/>
<path d="M233.464 94.6609C233.689 94.3803 233.978 94.1573 234.307 94.0102C234.635 93.8631 234.994 93.796 235.353 93.8146H235.451C235.49 93.8146 235.528 93.8069 235.563 93.792C235.598 93.777 235.63 93.7551 235.657 93.7276C235.683 93.7 235.704 93.6674 235.718 93.6316C235.732 93.5959 235.738 93.5577 235.737 93.5194C235.734 93.4428 235.702 93.3703 235.647 93.317C235.592 93.2638 235.518 93.234 235.442 93.2341C234.992 93.1975 234.541 93.2675 234.123 93.4385C233.706 93.6095 233.335 93.8766 233.041 94.2181C232.998 94.2713 232.974 94.3369 232.972 94.405C232.974 94.4825 233.006 94.5562 233.061 94.611C233.116 94.6659 233.189 94.6978 233.267 94.7002C233.335 94.7114 233.405 94.6974 233.464 94.6609Z" fill="#263238"/>
<path d="M230.473 123.098C222.286 123.187 221.026 118.729 221.026 118.729C223.466 116.348 223.585 111.979 223.063 108.083C223.723 109.003 224.547 109.794 225.493 110.415C227.461 111.704 231.703 109.637 231.703 109.637C231.703 109.637 231.703 110.356 231.762 111.408C231.889 113.957 232.45 118.434 234.773 119.133C234.773 119.133 239.496 123 230.473 123.098Z" fill="#CB7A63"/>
<path d="M231.821 110.297C231.742 110.67 231.653 111.054 231.594 111.448C231.562 111.456 231.528 111.456 231.496 111.448C230.477 111.697 229.418 111.731 228.386 111.546C227.354 111.361 226.372 110.963 225.503 110.375C224.549 109.76 223.721 108.968 223.063 108.043C222.935 107.059 222.758 106.075 222.581 105.209L231.496 110.129L231.821 110.297Z" fill="#CB7A63"/>
<path d="M237.685 103.615C237.661 105.023 237.279 106.401 236.575 107.62C235.871 108.839 234.868 109.858 233.661 110.582C233.054 110.967 232.389 111.252 231.693 111.428C231.66 111.436 231.627 111.436 231.594 111.428C230.576 111.678 229.516 111.711 228.484 111.526C227.452 111.342 226.47 110.943 225.602 110.356C224.648 109.74 223.819 108.949 223.161 108.023C221.557 105.819 220.888 102.887 219.737 98.7542C219.347 97.4179 219.306 96.0043 219.616 94.6475C219.926 93.2907 220.578 92.0356 221.51 91.0015C222.441 89.9674 223.622 89.1886 224.939 88.7388C226.256 88.2891 227.666 88.1835 229.036 88.432C235.176 89.5931 237.813 98.085 237.685 103.615Z" fill="#CB7A63"/>
<path opacity="0.2" d="M233.208 110.749C232.771 111.056 232.28 111.28 231.761 111.409C231.702 110.356 231.712 109.637 231.702 109.637L231.82 107.807C231.82 107.807 232.785 110.749 233.208 110.749Z" fill="black"/>
<path d="M235.54 92.496C234.871 93.5587 232.775 94.464 232.844 94.2082C233.208 93.3324 233.139 91.6399 232.047 92.0335C232.352 92.7125 233.257 97.7604 232.844 98.3803C232.618 98.7149 232.411 102.749 230.689 106.321C229.321 109.165 229.321 110.041 229.321 110.041L223.732 111.123C221.636 110.857 219.688 108.171 219.52 107.896C218.782 106.636 216.568 104.944 215.388 104.107C214.881 103.716 214.498 103.186 214.286 102.582C213.902 101.509 214.689 97.662 214.856 95.8219C215.102 93.2143 216.47 90.7937 220.268 89.239C222.61 88.255 224.578 86.1689 226.979 85.303C228.157 84.8308 229.432 84.6504 230.695 84.7772C231.957 84.904 233.171 85.3342 234.231 86.0311C235.225 86.7691 237.213 89.7998 235.54 92.496Z" fill="#263238"/>
<path d="M232.618 96.1269C234.34 96.6386 235.235 99.1773 235.314 100.781C235.393 102.562 234.212 103.733 232.657 102.493C231.487 101.577 230.65 100.301 230.276 98.8624C229.862 97.1208 230.896 95.6251 232.618 96.1269Z" fill="#CB7A63"/>
<path d="M234.694 102.06C234.691 102.26 234.61 102.45 234.468 102.59C234.327 102.73 234.135 102.808 233.936 102.808C233.738 102.808 233.548 102.729 233.407 102.589C233.267 102.449 233.188 102.259 233.188 102.06C233.188 101.861 233.267 101.67 233.407 101.528C233.547 101.386 233.737 101.305 233.936 101.303C234.136 101.305 234.327 101.386 234.469 101.527C234.611 101.669 234.691 101.86 234.694 102.06Z" fill="#52C0A6"/>
<path opacity="0.3" d="M234.714 102.11C234.711 102.309 234.63 102.499 234.488 102.639C234.346 102.779 234.155 102.858 233.956 102.858C233.758 102.858 233.567 102.779 233.427 102.639C233.287 102.498 233.208 102.308 233.208 102.11C233.208 101.91 233.286 101.719 233.426 101.577C233.566 101.436 233.757 101.355 233.956 101.352C234.156 101.355 234.347 101.435 234.489 101.577C234.63 101.718 234.711 101.91 234.714 102.11Z" fill="white"/>
<path d="M218.684 121.682C218.684 121.682 219.953 117.746 221.872 116.516C223.791 115.286 232.214 116.516 233.533 117.086C234.851 117.657 236.16 120.639 236.16 120.639L218.684 121.682Z" fill="#50BFA5"/>
<path opacity="0.3" d="M218.684 121.682C218.684 121.682 219.953 117.746 221.872 116.516C223.791 115.286 232.214 116.516 233.533 117.086C234.851 117.657 236.16 120.639 236.16 120.639L218.684 121.682Z" fill="white"/>
<path d="M237.911 120.048C236.867 119.808 235.809 119.631 234.743 119.517C230.224 119.3 225.697 119.35 221.183 119.664C219.559 119.801 217.95 120.074 216.372 120.481C214.811 120.855 213.434 121.772 212.488 123.069C211.541 124.365 211.087 125.956 211.206 127.556C211.875 136.766 214.591 142.178 214.994 148.22C215.443 156.034 214.95 163.874 213.528 171.57L219.727 172.554C228.163 172.473 236.496 170.693 244.229 167.32C244.229 167.32 242.625 152.717 244.17 147.453C248.391 133.067 245.646 130.794 244.819 126.68C244.477 125.004 243.633 123.472 242.4 122.287C241.166 121.102 239.6 120.322 237.911 120.048Z" fill="#50BFA5"/>
<path opacity="0.1" d="M244.18 147.403C243.653 149.796 243.428 152.246 243.51 154.695C243.51 160.599 244.239 167.28 244.239 167.28C236.508 170.658 228.173 172.439 219.737 172.515L213.538 171.531C214.953 163.827 215.445 155.982 215.004 148.161C214.591 142.1 211.875 136.697 211.206 127.497C211.087 125.896 211.541 124.306 212.488 123.01C213.434 121.713 214.811 120.796 216.372 120.422C217.95 120.015 219.559 119.741 221.183 119.605C225.697 119.297 230.224 119.244 234.743 119.448C235.808 119.57 236.866 119.75 237.911 119.989C239.597 120.266 241.158 121.049 242.388 122.233C243.618 123.418 244.459 124.948 244.799 126.621C245.095 128.097 245.646 129.347 246.02 130.99C246.619 133.958 246.589 137.019 245.931 139.974C245.486 142.481 244.901 144.962 244.18 147.403Z" fill="white"/>
<path d="M239.693 119.566C241.956 119.881 244.199 120.333 246.443 120.707C248.686 121.081 250.93 121.593 253.164 122.075L252.357 122.006C253.341 122.006 254.236 122.124 254.787 122.164C255.053 122.164 255.24 122.164 255.171 122.223C255.102 122.282 255.023 122.282 254.876 122.38C254.625 122.515 254.399 122.692 254.207 122.902C253.814 123.278 253.564 123.779 253.498 124.319C253.498 124.545 253.567 124.486 253.577 124.319C253.591 123.736 253.528 123.153 253.39 122.587L253.488 122.872C252.353 119.592 251.287 116.289 250.29 112.963C249.306 109.628 248.411 106.262 247.761 102.799C247.655 102.237 247.748 101.656 248.025 101.156C248.302 100.655 248.745 100.268 249.278 100.06C249.81 99.8522 250.399 99.8371 250.941 100.017C251.484 100.198 251.946 100.562 252.248 101.047C254.118 103.999 255.732 107.118 257.296 110.228C258.861 113.337 260.248 116.486 261.675 119.664L261.783 119.96C262.238 121.078 262.568 122.243 262.767 123.433C262.902 124.317 262.902 125.216 262.767 126.1C262.545 127.518 261.88 128.83 260.868 129.849C260.346 130.363 259.749 130.794 259.097 131.128C258.601 131.381 258.08 131.582 257.542 131.728C256.802 131.931 256.044 132.066 255.279 132.132C254.049 132.25 253.144 132.25 252.327 132.299H252.199L251.52 132.22C249.247 131.984 246.974 131.709 244.711 131.423C242.448 131.138 240.185 130.823 237.931 130.439C236.594 130.107 235.429 129.285 234.669 128.135C233.909 126.986 233.607 125.593 233.825 124.232C234.043 122.871 234.764 121.641 235.845 120.786C236.926 119.931 238.289 119.513 239.663 119.615L239.693 119.566Z" fill="#50BFA5"/>
<g opacity="0.1">
<path opacity="0.1" d="M239.693 119.566C241.956 119.881 244.199 120.333 246.443 120.707C248.686 121.081 250.93 121.593 253.164 122.075L252.357 122.006C253.341 122.006 254.236 122.124 254.787 122.164C255.053 122.164 255.24 122.164 255.171 122.223C255.102 122.282 255.023 122.282 254.876 122.38C254.625 122.515 254.399 122.692 254.207 122.902C253.814 123.278 253.564 123.779 253.498 124.319C253.498 124.545 253.567 124.486 253.577 124.319C253.591 123.736 253.528 123.153 253.39 122.587L253.488 122.872C252.353 119.592 251.287 116.289 250.29 112.963C249.306 109.628 248.411 106.262 247.761 102.799C247.655 102.237 247.748 101.656 248.025 101.156C248.302 100.655 248.745 100.268 249.278 100.06C249.81 99.8522 250.399 99.8371 250.941 100.017C251.484 100.198 251.946 100.562 252.248 101.047C254.118 103.999 255.732 107.118 257.296 110.228C258.861 113.337 260.248 116.486 261.675 119.664L261.783 119.96C262.238 121.078 262.568 122.243 262.767 123.433C262.902 124.317 262.902 125.216 262.767 126.1C262.545 127.518 261.88 128.83 260.868 129.849C260.346 130.363 259.749 130.794 259.097 131.128C258.601 131.381 258.08 131.582 257.542 131.728C256.802 131.931 256.044 132.066 255.279 132.132C254.049 132.25 253.144 132.25 252.327 132.299H252.199L251.52 132.22C249.247 131.984 246.974 131.709 244.711 131.423C242.448 131.138 240.185 130.823 237.931 130.439C236.594 130.107 235.429 129.285 234.669 128.135C233.909 126.986 233.607 125.593 233.825 124.232C234.043 122.871 234.764 121.641 235.845 120.786C236.926 119.931 238.289 119.513 239.663 119.615L239.693 119.566Z" fill="white"/>
</g>
<path d="M280.381 98.3804L309.881 97.4751L309.429 88.2354L279.987 90.1738L280.381 98.3804Z" fill="#3C8F7C"/>
<path d="M258.084 98.7344L281.946 97.9669L281.581 90.3901L257.769 91.9252L258.084 98.7344Z" fill="#3C8F7C"/>
<path d="M278.787 98.1539L280.351 98.3212L279.968 90.2229L278.423 90.5476L278.787 98.1539Z" fill="#263238"/>
<path opacity="0.2" d="M278.787 98.1539L280.351 98.3212L279.968 90.2229L278.423 90.5476L278.787 98.1539Z" fill="black"/>
<path d="M280.361 98.3802L281.955 98.331L281.562 90.0654L279.968 90.1737L280.361 98.3802Z" fill="#263238"/>
<path d="M254.384 97.6129L256.745 98.715L256.44 92.073L254.187 93.3916L254.384 97.6129Z" fill="#263238"/>
<path d="M242.261 97.5341L249.277 97.17L249.129 94.0605L242.113 94.4738L242.261 97.5341Z" fill="#263238"/>
<path opacity="0.2" d="M242.261 97.5341L249.277 97.17L249.129 94.0605L242.113 94.4738L242.261 97.5341Z" fill="black"/>
<path d="M248.312 97.79L256.116 97.4948L255.919 93.1455L248.116 93.608L248.312 97.79Z" fill="#263238"/>
<path opacity="0.2" d="M254.384 97.6129L256.745 98.715L256.44 92.073L254.187 93.3916L254.384 97.6129Z" fill="black"/>
<path d="M256.794 98.7739L258.083 98.7346L257.769 91.9253L256.47 92.004L256.794 98.7739Z" fill="#263238"/>
<path d="M308.878 97.5045L313.512 97.3372L313.05 88.0581L308.425 88.2943L308.878 97.5045Z" fill="#263238"/>
<path d="M310.944 98.1639L316.848 97.9966L316.996 97.5833C317.619 95.8533 317.88 94.0135 317.762 92.1783C317.643 90.3432 317.148 88.5521 316.307 86.9167L310.403 87.3202L310.531 87.6252C311.933 90.9738 312.08 94.7158 310.944 98.1639Z" fill="#3C8F7C"/>
<g opacity="0.4">
<path opacity="0.4" d="M304.646 89.2587L307.028 89.1111L307.077 90.0951L304.656 90.2427C304.612 89.9164 304.609 89.5858 304.646 89.2587Z" fill="white"/>
<path opacity="0.4" d="M303.2 89.3669C303.163 89.6939 303.163 90.024 303.2 90.3509L282.506 91.5121L282.408 90.6265L303.2 89.3669Z" fill="white"/>
</g>
<g opacity="0.4">
<path opacity="0.4" d="M258.271 92.4566L258.31 93.2831L277.773 92.1318L277.724 91.2266L258.271 92.4566Z" fill="white"/>
</g>
<g opacity="0.4">
<path opacity="0.4" d="M310.924 87.635L310.983 88.6682L315.598 88.3632L315.549 87.3103L310.924 87.635Z" fill="white"/>
</g>
<path opacity="0.3" d="M316.238 96.6289C316.199 96.9821 316.199 97.3385 316.238 97.6916L311.466 97.8491L311.406 96.8651L316.238 96.6289Z" fill="black"/>
<path opacity="0.3" d="M307.687 96.0581C307.646 96.3848 307.646 96.7154 307.687 97.0421L282.408 97.9867L282.359 97.0618L307.687 96.0581Z" fill="black"/>
<path opacity="0.3" d="M277.537 96.9436C277.508 97.2446 277.508 97.5479 277.537 97.8489L258.713 98.5082V97.6816L277.537 96.9436Z" fill="black"/>
<path d="M240.686 94.5918L240.745 97.5438C240.765 97.7909 240.878 98.0214 241.06 98.1893C241.242 98.3571 241.482 98.4499 241.729 98.4491H244.14L244.042 93.5881L241.631 93.6767C241.388 93.6858 241.158 93.7843 240.983 93.9533C240.809 94.1222 240.703 94.3496 240.686 94.5918Z" fill="#3C8F7C"/>
<path d="M253.154 102.838L254.069 97.298C254.093 97.069 254.093 96.8381 254.069 96.6092L253.803 93.6572C253.78 93.4575 253.701 93.2686 253.573 93.1133C253.446 92.9579 253.276 92.8427 253.085 92.7814H248.657C248.387 92.6874 248.092 92.6979 247.83 92.8108C247.567 92.9238 247.357 93.131 247.24 93.3915L246.443 97.0224C246.379 97.2909 246.379 97.5707 246.443 97.8392L247.761 102.838C247.833 103.054 247.962 103.247 248.136 103.394C248.309 103.542 248.52 103.639 248.745 103.674H251.638C251.95 103.76 252.283 103.721 252.566 103.564C252.849 103.408 253.06 103.147 253.154 102.838Z" fill="#CE7A63"/>
<path d="M255.751 105.17L248.224 107.817L246.974 103.192L253.439 101.234L255.751 105.17Z" fill="#3C8F7C"/>
<path opacity="0.3" d="M255.761 105.288L248.234 107.935L246.984 103.31L253.449 101.352L255.761 105.288Z" fill="white"/>
<path opacity="0.2" d="M246 139.994L240.234 129.111L246.138 131.01C246.721 133.981 246.674 137.042 246 139.994Z" fill="black"/>
<path d="M275.687 230.325L274.487 245.114L281.217 245.242L283.067 230.01L275.687 230.325Z" fill="#CE7A63"/>
<path d="M282.28 243.215L274.615 243.373C274.469 243.38 274.33 243.436 274.221 243.533C274.112 243.629 274.039 243.76 274.014 243.904L272.696 250.635C272.63 250.911 272.674 251.202 272.819 251.447C272.964 251.691 273.199 251.869 273.473 251.943H273.69C276.455 251.835 278.915 251.628 282.359 251.56C286.423 251.481 285.399 252.022 290.182 252.002C293.055 252.002 293.547 248.46 292.327 248.312C286.728 247.663 286.137 245.872 283.953 243.766C283.489 243.371 282.888 243.173 282.28 243.215Z" fill="#263238"/>
<path d="M202.222 293.675L199.496 307.244L206.728 309.458L210.222 295.594L202.222 293.675Z" fill="#CE7A63"/>
<path d="M240.923 167.87C240.923 167.87 230.63 227.963 225.031 245.606C221.095 258.192 210.369 299.392 210.369 299.392L200.736 297.286C200.736 297.286 199.654 269.242 205.036 254.767C206.876 249.847 209.277 245.37 209.956 242.31C212.731 229.233 207.004 205.508 209.543 187.816C210.319 182.188 211.759 176.672 213.833 171.383L240.923 167.87Z" fill="#263238"/>
<path d="M225.031 245.646C221.095 258.231 210.369 299.431 210.369 299.431L200.736 297.286C200.736 297.286 199.654 269.242 205.036 254.767C206.876 249.847 209.277 245.37 209.956 242.31C212.731 229.233 207.004 205.508 209.543 187.816C210.319 182.188 211.759 176.672 213.833 171.383" fill="#263238"/>
<path opacity="0.2" d="M228.298 186.448L233.484 206.797L237.272 187.334L228.298 186.448Z" fill="black"/>
<path d="M283.54 237.42L274.073 237.725C274.073 237.725 274.772 225.336 274.772 207.221C274.798 204.525 275.148 201.842 275.815 199.231C276.63 195.898 277.815 192.667 279.348 189.597L276.602 189.735C271.249 190.01 238.069 191.703 237.419 191.703C236.927 191.654 233.907 192.057 228.504 189.42C218.458 184.5 218.359 170.724 218.359 170.724L244.229 167.28C244.229 167.28 244.652 167.359 250.881 167.467C269.764 167.792 292.966 168.52 297.04 175.004C302.767 184.126 283.54 237.42 283.54 237.42Z" fill="#263238"/>
<path d="M207.093 305.945L199.162 306.044C199.015 306.045 198.875 306.1 198.766 306.198C198.657 306.296 198.588 306.43 198.571 306.575L197.587 313.365C197.546 313.656 197.614 313.952 197.777 314.197C197.94 314.442 198.188 314.619 198.473 314.693H198.699C201.563 314.604 204.091 314.408 207.654 314.358C211.865 314.309 210.832 314.85 215.772 314.85C218.724 314.85 219.068 311.298 217.799 311.141C211.963 310.462 211.245 308.641 208.874 306.506C208.371 306.102 207.736 305.902 207.093 305.945Z" fill="#263238"/>
<path opacity="0.2" d="M275.815 199.28C276.63 195.947 277.815 192.716 279.348 189.646L276.602 189.784C276.521 189.752 276.434 189.735 276.347 189.735L283.235 189.154L275.815 199.28Z" fill="black"/>
<path d="M94.9953 125.716C101.663 125.716 107.069 120.31 107.069 113.642C107.069 106.974 101.663 101.569 94.9953 101.569C88.3272 101.569 82.9216 106.974 82.9216 113.642C82.9216 120.31 88.3272 125.716 94.9953 125.716Z" fill="#3C8F7C"/>
<path opacity="0.6" d="M94.9953 125.716C101.663 125.716 107.069 120.31 107.069 113.642C107.069 106.974 101.663 101.569 94.9953 101.569C88.3272 101.569 82.9216 106.974 82.9216 113.642C82.9216 120.31 88.3272 125.716 94.9953 125.716Z" fill="white"/>
<path d="M95.015 96.9732C94.5391 96.9706 94.0836 96.7798 93.7481 96.4423C93.4125 96.1049 93.2241 95.6484 93.2241 95.1725V87.3005C93.2577 86.8472 93.4615 86.4234 93.7946 86.114C94.1276 85.8047 94.5654 85.6328 95.0199 85.6328C95.4745 85.6328 95.9122 85.8047 96.2453 86.114C96.5784 86.4234 96.7821 86.8472 96.8157 87.3005V95.1725C96.8157 95.6501 96.626 96.1081 96.2883 96.4458C95.9506 96.7835 95.4926 96.9732 95.015 96.9732Z" fill="#3C8F7C"/>
<path d="M95.015 141.696C94.5408 141.693 94.0868 141.504 93.7515 141.169C93.4162 140.833 93.2267 140.379 93.2241 139.905V131.974C93.2577 131.521 93.4615 131.097 93.7946 130.788C94.1276 130.478 94.5654 130.306 95.0199 130.306C95.4745 130.306 95.9122 130.478 96.2453 130.788C96.5784 131.097 96.7821 131.521 96.8157 131.974V139.905C96.8131 140.381 96.6223 140.837 96.2848 141.172C95.9474 141.508 95.4909 141.696 95.015 141.696Z" fill="#3C8F7C"/>
<path d="M82.0262 102.336C81.79 102.336 81.5561 102.289 81.3382 102.198C81.1202 102.107 80.9226 101.973 80.7569 101.805L77.3325 98.4C77.1659 98.2333 77.0336 98.0354 76.9434 97.8176C76.8532 97.5998 76.8068 97.3663 76.8068 97.1306C76.8068 96.8949 76.8532 96.6614 76.9434 96.4436C77.0336 96.2258 77.1659 96.0279 77.3325 95.8612C77.4992 95.6945 77.6971 95.5623 77.9149 95.4721C78.1327 95.3819 78.3662 95.3354 78.6019 95.3354C78.8376 95.3354 79.0711 95.3819 79.2889 95.4721C79.5067 95.5623 79.7046 95.6945 79.8713 95.8612L83.2956 99.2856C83.6309 99.6229 83.8191 100.079 83.8191 100.555C83.8191 101.031 83.6309 101.487 83.2956 101.824C83.1282 101.989 82.9299 102.119 82.712 102.207C82.4942 102.295 82.2611 102.339 82.0262 102.336Z" fill="#3C8F7C"/>
<path d="M111.192 131.531C110.717 131.529 110.262 131.342 109.923 131.01L106.735 127.812C106.398 127.475 106.209 127.019 106.209 126.542C106.209 126.066 106.398 125.61 106.735 125.273C107.071 124.936 107.528 124.747 108.004 124.747C108.48 124.747 108.937 124.936 109.273 125.273L112.461 128.471C112.713 128.722 112.885 129.041 112.954 129.389C113.024 129.738 112.988 130.099 112.852 130.427C112.716 130.755 112.486 131.035 112.19 131.231C111.895 131.428 111.547 131.533 111.192 131.531Z" fill="#3C8F7C"/>
<path d="M76.6438 115.345H68.7718C68.5248 115.363 68.2766 115.33 68.0429 115.248C67.8092 115.166 67.5949 115.037 67.4134 114.868C67.2319 114.7 67.0871 114.496 66.9881 114.268C66.8891 114.041 66.838 113.796 66.838 113.549C66.838 113.301 66.8891 113.056 66.9881 112.829C67.0871 112.602 67.2319 112.398 67.4134 112.229C67.5949 112.061 67.8092 111.931 68.0429 111.849C68.2766 111.768 68.5248 111.735 68.7718 111.753H76.6438C76.8908 111.735 77.1389 111.768 77.3726 111.849C77.6064 111.931 77.8207 112.061 78.0022 112.229C78.1836 112.398 78.3284 112.602 78.4274 112.829C78.5264 113.056 78.5775 113.301 78.5775 113.549C78.5775 113.796 78.5264 114.041 78.4274 114.268C78.3284 114.496 78.1836 114.7 78.0022 114.868C77.8207 115.037 77.6064 115.166 77.3726 115.248C77.1389 115.33 76.8908 115.363 76.6438 115.345Z" fill="#3C8F7C"/>
<path d="M121.317 115.345H113.396C113.149 115.363 112.901 115.33 112.667 115.248C112.434 115.166 112.219 115.037 112.038 114.868C111.856 114.7 111.711 114.496 111.612 114.268C111.513 114.041 111.462 113.796 111.462 113.549C111.462 113.301 111.513 113.056 111.612 112.829C111.711 112.602 111.856 112.398 112.038 112.229C112.219 112.061 112.434 111.931 112.667 111.849C112.901 111.768 113.149 111.735 113.396 111.753H121.317C121.564 111.735 121.812 111.768 122.046 111.849C122.28 111.931 122.494 112.061 122.676 112.229C122.857 112.398 123.002 112.602 123.101 112.829C123.2 113.056 123.251 113.301 123.251 113.549C123.251 113.796 123.2 114.041 123.101 114.268C123.002 114.496 122.857 114.7 122.676 114.868C122.494 115.037 122.28 115.166 122.046 115.248C121.812 115.33 121.564 115.363 121.317 115.345Z" fill="#3C8F7C"/>
<path d="M79.0054 131.364C78.5338 131.375 78.0773 131.198 77.736 130.872C77.4007 130.535 77.2125 130.078 77.2125 129.603C77.2125 129.127 77.4007 128.671 77.736 128.333L80.7569 125.312C81.0936 124.976 81.5502 124.787 82.0263 124.787C82.5024 124.787 82.959 124.976 83.2956 125.312C83.6323 125.649 83.8214 126.106 83.8214 126.582C83.8214 127.058 83.6323 127.514 83.2956 127.851L80.2747 130.872C79.9335 131.198 79.477 131.375 79.0054 131.364Z" fill="#3C8F7C"/>
<path d="M108.014 102.336C107.777 102.337 107.543 102.291 107.325 102.2C107.107 102.108 106.909 101.974 106.744 101.805C106.409 101.467 106.221 101.011 106.221 100.535C106.221 100.06 106.409 99.6034 106.744 99.2661L109.982 96.0287C110.318 95.6921 110.775 95.5029 111.251 95.5029C111.727 95.5029 112.184 95.6921 112.52 96.0287C112.857 96.3654 113.046 96.822 113.046 97.2981C113.046 97.7742 112.857 98.2308 112.52 98.5674L109.283 101.805C108.947 102.143 108.49 102.334 108.014 102.336Z" fill="#3C8F7C"/>
<g opacity="0.6">
<path opacity="0.6" d="M95.015 96.9732C94.5391 96.9706 94.0836 96.7798 93.7481 96.4423C93.4125 96.1049 93.2241 95.6484 93.2241 95.1725V87.3005C93.2577 86.8472 93.4615 86.4234 93.7946 86.114C94.1276 85.8047 94.5654 85.6328 95.0199 85.6328C95.4745 85.6328 95.9122 85.8047 96.2453 86.114C96.5784 86.4234 96.7821 86.8472 96.8157 87.3005V95.1725C96.8157 95.6501 96.626 96.1081 96.2883 96.4458C95.9506 96.7835 95.4926 96.9732 95.015 96.9732Z" fill="white"/>
<path opacity="0.6" d="M95.015 141.696C94.5408 141.693 94.0868 141.504 93.7515 141.169C93.4162 140.833 93.2267 140.379 93.2241 139.905V131.974C93.2577 131.521 93.4615 131.097 93.7946 130.788C94.1276 130.478 94.5654 130.306 95.0199 130.306C95.4745 130.306 95.9122 130.478 96.2453 130.788C96.5784 131.097 96.7821 131.521 96.8157 131.974V139.905C96.8131 140.381 96.6223 140.837 96.2848 141.172C95.9474 141.508 95.4909 141.696 95.015 141.696Z" fill="white"/>
<path opacity="0.6" d="M82.0262 102.336C81.79 102.336 81.5561 102.289 81.3382 102.198C81.1202 102.107 80.9226 101.973 80.7569 101.805L77.3325 98.4C77.1659 98.2333 77.0336 98.0354 76.9434 97.8176C76.8532 97.5998 76.8068 97.3663 76.8068 97.1306C76.8068 96.8949 76.8532 96.6614 76.9434 96.4436C77.0336 96.2258 77.1659 96.0279 77.3325 95.8612C77.4992 95.6945 77.6971 95.5623 77.9149 95.4721C78.1327 95.3819 78.3662 95.3354 78.6019 95.3354C78.8376 95.3354 79.0711 95.3819 79.2889 95.4721C79.5067 95.5623 79.7046 95.6945 79.8713 95.8612L83.2956 99.2856C83.6309 99.6229 83.8191 100.079 83.8191 100.555C83.8191 101.031 83.6309 101.487 83.2956 101.824C83.1282 101.989 82.9299 102.119 82.712 102.207C82.4942 102.295 82.2611 102.339 82.0262 102.336Z" fill="white"/>
<path opacity="0.6" d="M111.192 131.531C110.717 131.529 110.262 131.342 109.923 131.01L106.735 127.812C106.398 127.475 106.209 127.019 106.209 126.542C106.209 126.066 106.398 125.61 106.735 125.273C107.071 124.936 107.528 124.747 108.004 124.747C108.48 124.747 108.937 124.936 109.273 125.273L112.461 128.471C112.713 128.722 112.885 129.041 112.954 129.389C113.024 129.738 112.988 130.099 112.852 130.427C112.716 130.755 112.486 131.035 112.19 131.231C111.895 131.428 111.547 131.533 111.192 131.531Z" fill="white"/>
<path opacity="0.6" d="M76.6438 115.345H68.7718C68.5248 115.363 68.2766 115.33 68.0429 115.248C67.8092 115.166 67.5949 115.037 67.4134 114.868C67.2319 114.7 67.0871 114.496 66.9881 114.268C66.8891 114.041 66.838 113.796 66.838 113.549C66.838 113.301 66.8891 113.056 66.9881 112.829C67.0871 112.602 67.2319 112.398 67.4134 112.229C67.5949 112.061 67.8092 111.931 68.0429 111.849C68.2766 111.768 68.5248 111.735 68.7718 111.753H76.6438C76.8908 111.735 77.1389 111.768 77.3726 111.849C77.6064 111.931 77.8207 112.061 78.0022 112.229C78.1836 112.398 78.3284 112.602 78.4274 112.829C78.5264 113.056 78.5775 113.301 78.5775 113.549C78.5775 113.796 78.5264 114.041 78.4274 114.268C78.3284 114.496 78.1836 114.7 78.0022 114.868C77.8207 115.037 77.6064 115.166 77.3726 115.248C77.1389 115.33 76.8908 115.363 76.6438 115.345Z" fill="white"/>
<path opacity="0.6" d="M121.317 115.345H113.396C113.149 115.363 112.901 115.33 112.667 115.248C112.434 115.166 112.219 115.037 112.038 114.868C111.856 114.7 111.711 114.496 111.612 114.268C111.513 114.041 111.462 113.796 111.462 113.549C111.462 113.301 111.513 113.056 111.612 112.829C111.711 112.602 111.856 112.398 112.038 112.229C112.219 112.061 112.434 111.931 112.667 111.849C112.901 111.768 113.149 111.735 113.396 111.753H121.317C121.564 111.735 121.812 111.768 122.046 111.849C122.28 111.931 122.494 112.061 122.676 112.229C122.857 112.398 123.002 112.602 123.101 112.829C123.2 113.056 123.251 113.301 123.251 113.549C123.251 113.796 123.2 114.041 123.101 114.268C123.002 114.496 122.857 114.7 122.676 114.868C122.494 115.037 122.28 115.166 122.046 115.248C121.812 115.33 121.564 115.363 121.317 115.345Z" fill="white"/>
<path opacity="0.6" d="M79.0054 131.364C78.5338 131.375 78.0773 131.198 77.736 130.872C77.4007 130.535 77.2125 130.078 77.2125 129.603C77.2125 129.127 77.4007 128.671 77.736 128.333L80.7569 125.312C81.0936 124.976 81.5502 124.787 82.0263 124.787C82.5024 124.787 82.959 124.976 83.2956 125.312C83.6323 125.649 83.8214 126.106 83.8214 126.582C83.8214 127.058 83.6323 127.514 83.2956 127.851L80.2747 130.872C79.9335 131.198 79.477 131.375 79.0054 131.364Z" fill="white"/>
<path opacity="0.6" d="M108.014 102.336C107.777 102.337 107.543 102.291 107.325 102.2C107.107 102.108 106.909 101.974 106.744 101.805C106.409 101.467 106.221 101.011 106.221 100.535C106.221 100.06 106.409 99.6034 106.744 99.2661L109.982 96.0287C110.318 95.6921 110.775 95.5029 111.251 95.5029C111.727 95.5029 112.184 95.6921 112.52 96.0287C112.857 96.3654 113.046 96.822 113.046 97.2981C113.046 97.7742 112.857 98.2308 112.52 98.5674L109.283 101.805C108.947 102.143 108.49 102.334 108.014 102.336Z" fill="white"/>
</g>
</g>
<defs>
<clipPath id="clip0_33_213">
<rect width="492" height="420" fill="white"/>
</clipPath>
</defs>
</svg>
